<?xml version="1.0" encoding="UTF-8"?>
<svg id="Layer_2" data-name="Layer 2" xmlns="http://www.w3.org/2000/svg" xmlns:xlink="http://www.w3.org/1999/xlink" viewBox="0 0 5067.49 1894.84">
  <defs>
    <style>
      .cls-1 {
        opacity: .3;
      }

      .cls-2 {
        fill: none;
      }

      .cls-3 {
        clip-path: url(#clippath);
      }
    </style>
    <clipPath id="clippath">
      <rect class="cls-2" width="5067.49" height="1894.84"/>
    </clipPath>
  </defs>
  <g id="Layer_1-2" data-name="Layer 1">
    <g class="cls-1">
      <g class="cls-3">
        <g>
          <path d="M4476.5,209.85c-19.95,12.81-39.9,25.63-59.96,38.25-6.6,4.15-13.77,12.76-22.21,2.78,2.45-17.52,17.07-23.59,29.04-31.59,20.58-13.77,41.27-27.39,61.96-41,1.37-4.46,2.8-8.89,4.27-13.32-23.51,15.9-46.98,31.85-70.48,47.77-40.46,27.4-78.18,59.23-120.13,84.01-100.04,59.09-196.76,122.46-284.14,199.41-3.29,2.89-7.43,4.81-11.79,7.57-9.06-27.38-17.16-53.57-26.39-79.35-12.59-35.15-38.58-53.59-75.3-57.47-9.32-.98-18.71-1.34-28.04-2.29-17.17-1.76-34.32-3.75-51.85-5.69-30.09-54.92-35.16-111.4-24.05-173.85-28-17.71-59.75-18.05-92.37-12.02-32.47,6-64.83,12.58-97.24,18.91-.72-.92-1.44-1.84-2.17-2.77,19.18-16.99,38.37-33.98,57.55-50.97,4.98-7.12,11.51-13.88,18.23-20.45,26.72-26.09,52.66-53.05,80.41-77.99,78.24-70.34,156.92-140.2,236.08-209.5,30.16-26.41,62.18-50.7,93.19-76.15,34.09-27.97,66.29-58.64,102.39-83.7,56.63-39.3,115.87-74.86,173.93-112.11,2.28-1.47,3.87-4.01,5.78-6.06-.66-.81-1.32-1.63-1.98-2.44-25.37,15.08-50.75,30.16-78.78,46.83,7.94-21.48,30.86-38.58,46.66-39.81,8.41-8.97,14.16-17.43,21.95-23.06,73.37-53.02,146.79-105.95,220.23-158.87-1.92-2.27-3.8-4.55-5.66-6.85-44.15,31.58-88.26,63.13-132.35,94.66-1.38-1.07-2.77-2.13-4.15-3.2,13.06-26.11,26.12-52.22,39.17-78.34-1.33-.72-2.66-1.43-3.99-2.15-3.81,5.94-8.07,11.63-11.34,17.85-9.35,17.8-19.73,35.24-27.1,53.86-14.45,36.5-47.79,51.64-78.53,76.15.95-9.29,1.44-14.01,1.92-18.73-8.97,8.92-13.22,20.24-20.4,29.22-7.59,9.47-17.97,16.7-28.53,26.17-1.54-7.55-2.31-11.33-3.07-15.11-17.26,36.48-48.37,56.42-80.68,79,.53-5.15,1.02-7.1.82-8.99-.14-1.32-1.2-2.55-2.96-5.98-19.14,32.79-42.39,58.62-76.64,76.16,2.97-7.84,5.13-13.54,7.29-19.23-1.34-.71-2.69-1.42-4.03-2.13-7.15,11.43-14.3,22.87-23.49,37.58-3.14,1.96-9.7,6.05-16.66,10.38-1.48-4.62-2.31-7.23-3.45-10.8-27.03,35.1-60.87,62.89-82.69,66.73,4.44-10.11,8.28-18.87,13.03-29.7-21.06,9.46-18.54,29.3-24.41,44.94-2.82,2.48-5.72,5.25-8.83,7.74-77.44,61.98-154.85,123.99-232.47,185.75-6,4.78-13.46,7.71-16.59,9.46-65.13,66.82-127.66,130.97-190.53,195.47-7.96-.86-15.75-1.71-18.88-2.05-12.17-10.57-20.91-18.15-30.4-26.39-1.52-5.69-3.35-12.56-5.57-20.89-8.95,1.38-17.67.6-24.01,4.13-14.55,8.1-27.82,18.46-41.84,27.55-6.91,4.48-14.33,8.16-17.92,10.18-20.68,20.25-38.49,38.26-56.95,55.58-17.07,16.02-35.12,31-52.26,46.95-38.22,35.58-75.23,72.51-114.52,106.85-21.86,19.11-43.35,39.4-70.75,51.58-19.19,8.53-37.5,19.04-56.2,28.66,1.02,1.39,2.05,2.77,3.07,4.16-5.87,11.78-11.73,23.55-17.67,35.47-10.7,4.99-20.96,9.78-30.42,14.2-30.32-10.56-54.81-2.53-75.04,19.52-7.45-1.33-13.95-2.48-21.09-3.76-13.54-22.44-35.96-29.03-59.21-26.44-37,4.12-73.57,12.12-108.44,18.16-5.12,7.73-8.36,12.63-11.95,18.04-27.43-3.95-52.57,3.67-69.3,24.64-10.19,12.77-21.09,21.56-35.39,26.23-13.05,4.26-27.07,5.44-40.52,8.6-40.71,9.56-81.5,18.82-121.89,29.59-9.93,2.65-18.43,10.64-31.37,18.46-26.08,4.02-57.27,8.83-88.63,13.66-2.02-6.86-3.45-11.74-5.6-19.04-9.94-.25-20-2.12-29.37-.37-13.08,2.45-26.73,5.64-38.24,11.96-29,15.93-56.69,8.03-85.29-.71.62-3.94,1.15-7.37,1.39-8.86-16.69,1.26-32.77,3.58-48.82,3.45-28.15-.23-49.82-18.12-73.67-29.69-55.05-26.69-104.24-60.57-136.99-114.26-6.6-10.83-14.27-21.2-22.68-30.69-40.46-45.64-68.96-102.4-125.9-132.88-17.25-9.24-29.49-25.06-32.14-45.6-14.31-8.37-27.55-16.24-40.92-23.86-3.43-1.95-7.3-3.12-10.78-4.57-2.93,3.05-5.45,5.67-10.12,10.52-8.02-8.54-15.55-15.57-21.88-23.56-8.31-10.49-20.42-14.06-34.47-8.76-24.39-11.31-48.79-22.62-76.39-35.42-5.9-7.21-14.57-17.78-23.23-28.35,3.43-2.63,6.82-5.23,10.05-7.71-2.56-4.61-4.4-7.94-5.5-9.92,4.58-8.32,8.36-15.19,12.26-22.28,5.44.24,11.12.5,18.32.82-.16-5.38-.29-9.52-.43-14.14-12.45-1.53-23.58-2.89-36.97-4.52-1.38,3.02-3,6.55-4.47,9.76-4.93-.59-9.07-1.09-18.8-2.26,5.25,10.08,8.32,15.97,11.45,21.99-5.57,1.51-12.43,3.37-19.7,5.34-3.05-5.34-5.65-9.88-9.1-15.91-9.8-.71-20.13-1.47-34-2.48,2.55-8.05,4.84-15.3,8.06-25.44-2.62-1.75-6.7-4.47-12.06-8.04-6.7,16.58-12.16,30.11-17.67,43.75,6.55,2.24,10.69,3.65,12.87,4.4,3.99,11.7,7.23,21.22,10.37,30.43-16.14-5.56-32.36-11.15-50.37-17.35-1.34,9.28-2.15,14.86-2.69,18.61-12.92,5.19-24.74,9.94-36.55,14.68.21,2.08.42,4.15.63,6.23,19.24,9.92,40.65,10.93,67.28,12.09-10.11,7.35-16.94,12.31-27.26,19.81,1.92,9.56,4.22,21,7.59,37.77-13.62,7.98-31.18,18.27-49.78,29.17-19.03.33-40.28-8.68-61.22,8.38-35.25,93.81-13.65,188.27,6.6,284.47-7.03-2.65-13.42-6.12-18.74-10.82-27.12-23.94-53.89-48.26-80.91-72.3-14.89-13.25-31.65-19.1-51.9-14.09-9.66,2.39-19.91,2.8-29.93,3.26-56.82,2.65-111.97-8.52-166.97-20.71-26.04-5.77-52.1-11.45-78.44-17.23-4.4,7.57-8.01,13.77-11.27,19.38-17.04,5.08-38.41.57-46.09,24.87,17.76,11.78,34.09,22.61,50.42,33.45-.8,1.46-1.59,2.92-2.38,4.38-7.22-1.38-14.45-2.76-26.52-5.07,17.32,16.35,31.03,29.3,44.73,42.24-.81,1.52-1.62,3.04-2.43,4.57-5.63-1.59-11.9-2.1-16.75-5-10.32-6.19-20.05-13.41-29.75-20.58-36.59-27.03-74.23-52.8-109.25-81.73-33.52-27.68-64.29-58.7-96.25-88.27-13.67-12.65-27.3-25.35-40.02-37.16-62.57,9.64-122.82,18.93-183.07,28.21-.11,1.38-.23,2.75-.35,4.13,86.05.86,167.2,20.09,242.31,62.27-79.37-28.51-159.3-53.74-247.48-49.94-2.36,24.95-2.78,49.14-7.28,72.55-7.33,38.17,9.64,64.8,36.68,87.69,22.94,19.42,48.2,36.77,56.1,68.22-9.27,1.97-19.01,4.03-30.09,6.38-.79,3.52-1.71,7.59-3.1,13.78,13.09-2.02,24.13-3.72,38.51-5.94-9.87,27.06-18.59,50.96-28.24,77.45,33.75-1.47,63.06-3.06,92.39-3.94,29.46-.88,58.94-1.61,88.4-1.36,30.13.25,60.37.46,90.34,3.12,28.25,2.51,56.96-11.21,88.58,1.24-5.4,4.55-7.71,6.54-10.07,8.46-1.9,1.54-3.88,2.99-9.31,7.16,29.02-4.47,53.48-8.24,78.71-12.13,2.12-5.33,4.25-10.71,6.45-16.26,7.22-.62,13.51-1.16,21.72-1.87,1.71,16.93,3.28,32.5,5.06,50.06-96.27,4.22-189.45,6.37-282.31,12.93-91.95,6.49-184.1,12.01-275.32,22.49.99,11.69,1.66,19.56,2.32,27.43,4.24,50.71,8.81,101.39,12.55,152.13,1.59,21.6,1.44,43.33,1.95,60.62,16.37,59.17,21.38,117.27,36.3,174.47,4.85-1.4,8.95-2.58,13.05-3.75,20.29,18.22,23.37,19.25,47.46,5.83,28.3-15.76,52.49-37.59,83.51-50.07,24.95-10.04,46.15-29.23,69.4-43.75,23.65-14.77,47.77-28.8,76.01-45.75,6.95,37.08,44.03,51.91,48.48,89.48-16.84,6.21-32.63,12.02-48.41,17.84-1.2-1.23-2.39-2.45-3.59-3.68,5.25-4.09,10.49-8.17,15.2-11.84-9.9-17.34-18.12-31.75-26.73-46.85-5.33,1.96-9.59,3.52-11.71,4.3-9.92-3.24-18.16-5.93-27.93-9.12-4.34,10.79-7.45,18.5-11.11,27.61-8.1,2.54-16.87,5.3-24.57,7.72-6.26,6.63-11.37,12.78-17.22,18.1-43.59,39.62-87.68,78.69-130.66,118.96-7.02,6.57-9.31,18.19-13.79,27.47,1.64,1.67,3.27,3.34,4.91,5.01-10.54,4.89-20.66,11.93-31.73,14.05-11.15,2.14-23.23-.61-33.62-1.15-8.34,13.02-14.18,23.61-21.4,33.16-34.6,45.8-76.59,84.12-121.52,119.48-8.62,6.78-16.02,15.11-23.99,22.73,1.2,2.27,2.39,4.54,3.59,6.81,19.95,8.2,31.18-14.59,48.23-18.42,7.37,3.88,15.38,12.95,23.32-1.76-.94-4.05-2.07-8.95-3.27-14.09,18.39-14.3,36.28-28.21,54.17-42.13,5.48,4.9,10.63,9.49,18.77,16.76,5.24-10.34,9.16-18.08,12.04-23.77,6.34-8.49,11.49-15.38,16.63-22.28-.62-.53-1.24-1.06-1.86-1.6,20.45-16.21,40.9-32.43,60.73-48.16,8.79,2.23,16.33,4.14,25.26,6.4.56,3.61,1.2,7.75,1.89,12.24-6.08-.55-10.93-.99-15.48-1.41-3.99,9.85-7.44,18.35-11.11,27.4,3.72,4.92,7.21,9.52,10.87,14.37-3.19,8.06-6.33,16-8.22,20.77,9.39,8.98,17.81,17.04,27.51,26.32-6.12,4.51-9.52,7.01-13.4,9.87-5.95-6.97-1.73-21.46-17.61-19.27,2.02,7.79,3.81,14.72,5.54,21.4-3.35,7.5-6.57,14.73-11.23,25.16-20.48,5.55-42.44,11.5-65.38,17.72,3.27,6.84,5.48,11.45,8.61,17.99-6.52,6.4-12.84,12.6-19.05,18.69,4.7.3,9.57.61,14.43.92.07.93.14,1.86.21,2.8-10.6,3.06-21.2,6.13-30.88,8.92-16.26-19.32-17.76-19.66-33.78-8.62-1.17,5.31-2.44,11.08-4.19,19.01-10.47.48-20.85.95-32.54,1.48-2.74,4.17-5.91,9.01-10.33,15.76,11.65,3.35,21.44,6.16,31.23,8.98-30.3,8.19-61.07-1.51-90.25,9.77,4.91,2.59,9.93,4.4,14.81,4.07,22.03-1.52,44.2-2.52,65.96-5.97,12.96-2.06,25.25-8.31,37.85-12.68-.38-1.33-.75-2.66-1.13-3.99,30.08-1.19,60.17-2.09,90.22-3.67,29.72-1.56,59.38-8.28,91.51.01-1.08,4.5-3.78,7.32-6.85,7.82-37.55,6.05-75.16,11.75-112.76,17.54.06-1.63.12-3.26.19-4.89-9.95-3.15-19.9-6.31-29.27-9.28-5.68,8.12-9.06,12.96-12.33,17.64-41.32,3.52-81.95,9.51-122.6,9.63-32.14.1-67.21,7.53-95.03-18.25-1.37-1.27-3.65-1.63-5.56-2.24-45.59-14.72-91.32-29.05-136.72-44.34-13.96-4.7-27.06-12-40.55-18.1.54-1.37,1.09-2.74,1.63-4.11-27.15,3.38-51.64-1.46-69.33-21.77-70.92,32.1-140.54,63.61-210.16,95.12-6.71.63-11.15,6.43-17.01,8.93-31.41,13.39-62.95,26.55-94.97,38.37-7.59,2.81-17.2.15-26.84,0,.34-7.31-.83-12.15.83-13.5,29.31-23.85,58.96-47.27,88.73-70.94-31.2,13.47-62.69,27.06-94.35,40.73,2.73,5.88,4.57,9.83,6.66,14.32-5.4,4.07-10.04,7.57-15.97,12.04.92,35.59,2.41,71.69,2.45,107.8.01,10.76-1.33,23.18-6.7,32-22.24,36.54-44.61,73.22-70.02,107.56-35.83,48.42-74.48,94.75-111.7,142.14-4.53,5.77-7.72,12.59-12.31,20.2,19.07,6.49,28.71-4.74,38.4-12.67,82.92-67.84,174.61-121.77,269.04-171.08,5.99,2.36,11.68,4.59,18.93,7.44,1.49-8.48,2.56-14.65,3.52-20.1,62.13-33.69,242.95-112.73,296.48-120.09,5.42,2.12,10.83,4.25,17.07,6.7,5.46-5.53,10.49-10.64,15.49-15.7,9.37-1.44,18.52-2.85,24.82-3.82,20.58,21.02,39.51,40.35,59.87,61.15,2.24,14.55,3.78,31.34,7.62,47.59,4,16.88,8.17,34.28,15.97,49.57,10.82,21.23,23.29,42.19,38.39,60.51,14.02,17,33.29,16.88,48.15,3.89,14.61-12.77,28.35-26.55,43.19-39.04,14.74-12.4,30.37-23.75,45.6-35.55l-.43.58c31.09-22.58,61.8-45.72,93.46-67.48,14.52-9.98,30.92-17.22,46.47-25.7l-.36.17c9.76-7.45,19.52-14.9,30.18-23.04,1.94,4.37,2.95,6.01,3.41,7.79,5.74,22.1,16.12,25.02,33.36,9.62,3.92-3.5,8.39-6.6,13.05-9.01,26.75-13.82,53.55-27.55,80.54-40.87,4.66-2.3,10.35-2.49,15.57-3.66.9,2.21,1.79,4.43,2.69,6.64-35.45,19-70.91,38.01-106.45,57.06-3.98,8.18-8.01,16.46-10.95,22.49,3.33,14.48,6.12,26.63,9,39.15-11.02,2.89-24.87,1.23-22.8,15.93,2.38,16.83,16.12,7.77,25.45,8,9.35,18.68,18.46,36.88,28.07,56.08,11.29,5.58,23.76,11.73,38.18,18.86,8.68,16.14,14.33,37.25,33.53,52.58,27.05-31.35,52.57-60.93,76.43-88.6,13.85.57,24.93,1.03,33.28,1.38,7.92-5.24,13.61-9.01,20.3-13.43,3.43,10.97,5.75,18.4,8.06,25.81,6.01.82,10.73,1.47,19,2.6-5.77,11.83-10.36,21.24-15.33,31.43,4.99,2.92,9.88,5.79,14.21,8.34,1.11,7.19,2.02,13.13,2.97,19.29-4.16,4.12-8.24,8.17-12.58,12.46,1.4,5.05,2.61,9.43,3.88,14.01,5.68,2.85,10.97,5.51,16.36,8.22,5.69,16.35,11.34,32.62,16.92,48.66-4.9,5.5-8.79,9.86-10.55,11.84-7.1,1.1-11.2,1.73-15.29,2.36-.1,1.79-.2,3.59-.31,5.38,5.33.59,10.66,1.18,18.5,2.06,3.59,5.24,8.84,12.89,13.65,19.92,6.58,3.08,12.36,5.79,18.44,8.64-6.56,8.06-12.31,15.11-20.57,25.25,9.34.62,14.17,2.15,18.08.89,4.69-1.52,8.6-5.44,12.91-8.36,4.47,3.44,8.51,6.55,12,9.25q51.57-20.03,64.01-13.87c-17.6,7.05-33.52,13.42-49.58,19.85-9.02,19.51-5.03,25.81,17.54,26.03,8.5-9.82,15.1-24.89,29.55-18.12,8.59-4.31,14.08-7.76,20.03-9.94,69.72-25.57,139.5-51.02,209.31-76.35,24.77-8.99,45.99-23.08,63.13-44.08-24.87,7.74-49.74,15.49-74.61,23.24-.49-1.69-.97-3.38-1.46-5.07,25-25.01,56.89-29.25,89.14-27.65,16.49-12.16,31.76-23.42,47.04-34.68-.96-1.48-1.92-2.96-2.88-4.44-8.74,3.01-17.39,6.32-26.24,8.95-8.07,2.4-16.37,4.08-24.56,6.08-.42-1.38-.83-2.77-1.25-4.15,8.49-6.91,16.98-13.82,26.91-21.9,5.89-1.81,13.55-4.17,20.94-6.45,6.56,1.91,12.78,3.73,19.08,5.57,5.05-4.66,9.36-8.63,13.67-12.6.52.92,1.04,1.84,1.56,2.76,17.08-7.35,34.17-14.7,53.09-22.84-1.57,12.35-2.76,21.68-3.94,31.01,2.18.77,4.36,1.54,6.54,2.31,3.53-6.3,7.06-12.6,9.99-17.83,9.34.85,19.11,1.73,30.18,2.74.33,6.59.73,14.37,1.15,22.87,11.79,6.24,16.18,15.9,14.81,29.5-3.13,31.09-5.79,62.25-7.37,93.45-.71,14.05,1.6,28.25,2.61,43.38,14.55-2.24,25.71-3.96,32.66-5.03,17.09-13.14,31.2-24,46.27-35.58-3.04-14.05,22.81-22.6,5.41-40.49,8.36-2.22,14.69-3.91,21.79-5.79,11.18-20.04,22.23-40.69,34.06-60.88,27.18-46.38,47.59-95.37,61.5-147.41,4.5-16.84,11.36-36.1,23.59-47.01,13.93-12.43,35.08-16.75,53.14-24.62,1.66,4.57,2.88,7.95,5.51,15.18,2.19-8.73,3.4-13.52,4.56-18.14,5.67-3.35,10.78-6.36,16.41-9.68-1.99-4.97-3.81-9.54-5.98-14.95,6.42-7.3,12.52-14.23,18.78-21.35-3.25-4.55-6.53-9.16-10.95-15.35,6.4-4.81,11.87-8.92,18.32-13.77-11.83-19.79,6.65-27.01,15.44-38.1,40.94-9.97,72.37-32.15,95.32-66.41-7.14,5.8-15.03,10.9-21.28,17.54-23.8,25.31-67.83,46.36-104.24,37.37-10.33-1.83-21.25-2.15-30.82-5.89-10.3-4.04-20.84-9.76-28.67-17.42-32.78-32.08-44.22-79.94-19.34-120.75,27.51-45.11,56.13-89.41,96.13-125.05-.55-1.61-1.09-3.22-1.64-4.83-23.46,5.95-46.91,11.91-74.13,18.81,3.71-5.49,5.1-7.54,6.49-9.6-1.96.3-3.91.6-7.2,1.11-.49-5.47-.94-10.53-1.45-16.25,4.71-5,13.95-.07,19,11.14,2.05-6.06,4.1-12.13,7.34-21.74,10.53.87,21.94,1.82,33.35,2.77-.1,1.48-.19,2.96-.29,4.44,18.16-2.8,36.31-5.59,56.02-8.63-.64,4.89-1.35,10.3-2.06,15.7-12.3,19.45-10.25,32.81,6.61,45.92,20.54,15.97,40.52,32.7,61.44,48.15,16.81,12.42,36.04,17.14,57.01,13.01,7.08-1.4,14.26-2.25,22.75-3.55,18.87-18.63,30.28-42.83,34.7-70.61.49-3.04,2.44-6.05,4.3-8.65,11.45-15.99,10.89-28.76-.86-44.3-38.71-51.25-76.4-103.28-115.95-153.88-22.02-28.18-47.42-53.71-70.45-81.14-53.28-63.46-105.61-127.73-159.28-190.86-16.34-19.22-36.62-35.03-53.61-53.74-25.58-28.17-49.99-57.41-74.61-86.43-7.26-8.55-13.49-17.96-20.32-26.89-43.94-57.46-66.37-124.83-88.74-192.24-2.31-6.95-4.63-13.9-7.07-21.21-5.75-2.49-11.14-4.82-17.67-7.64-.78-5.08-1.67-10.8-2.59-16.81,3.39-1.94,6.63-3.8,10.07-5.77-12.58-53.91-29.8-106.92-9.96-164.26,4.34-4.51,10.45-10.86,16.6-17.25.04.03.08.05.13.08,5.87,2.28,11.74,4.56,18.88,7.34-1.32-5.8-2.47-10.85-3.63-15.91,1.71-.78,3.43-1.55,5.14-2.33,4.17,8.23,9.96,16.03,12.25,24.75,12.85,49.09,23.77,98.71,37.66,147.5,6.16,21.66,14.23,44.39,27.48,62.13,43.33,58.03,60.47,128.72,96.27,190.37,69.47,119.63,141.84,237.4,241.59,334.37,73.05,71.02,127.83,154.62,179.83,240.37,37.08,61.15,34.54,126.84,4.22,190.55-15.23,31.99-40.72,54.6-76.89,64.6-1.92-1.12-4.25-2.19-6.22-3.74-1.51-1.19-2.56-2.98-4.58-5.42-3.84,1.77-7.76,3.56-12.61,5.79-4.38-3.69-8.8-7.42-15.78-13.31-7.18,10.21-14.26,20.28-21.34,30.36,22.85,4.03,46.94,4.82,68.22,12.97,22.17,8.5,43.93,14.26,66.42,9.1,40.36-9.26,81.02-18.6,119.98-32.37,131.81-46.61,256.86-109.89,389.36-155.67,104.63-36.15,209.99-62.11,320.09-69.46,20.95-1.4,42.05-.61,63.08-.84,11.26,1.61,22.59.19,33.75,1.01,97.35,7.19,189.83,32.49,277.75,74.97,68.19,32.95,136.27,66.19,205.33,97.24,38.79,17.44,79.03,31.99,123,31.05,28.94-.62,53.17-11.21,74.18-30.56,24.48-22.56,48.44-45.74,73.92-67.11,26.51-22.24,49.04-47.58,67.13-76.88,4.25-6.88,6.37-15.06,10.06-24.07-8.69-1.45-13.99-2.33-20.2-3.36,10.64-32.37,19.38-63.37,30.99-93.25,16.95-43.6,25.82-89.83,51.54-130.87,13.29-21.2,30.29-33.23,48.87-46.38.74-27.88-15.12-39.57-62.41-44.66-5.38-21.34-28.12-35.32-29.68-60.23,7.79-1.2,13.42-2.07,20.83-3.21,1.08-10.72,2.13-21.12,3.17-31.52-1.07-.13-2.14-.26-3.21-.39-2.52,7.47-5.04,14.93-7.56,22.39-7.15-16.83.87-35.16-14.31-52.68-3.37,13.75-6,24.46-8.63,35.17-1.51-.13-3.02-.25-4.53-.38-1.06-6.85-3.37-13.78-2.95-20.54,1.68-27.17,12.49-50.07,32.27-69.3,17.16-16.68,39.77-23.35,59.04-35.41,34.34-21.48,64.86-49.07,96.91-74.21,24.46-19.18,40.77-44.33,51.34-73.12,12.45-33.91,24.06-68.15,13.48-105.39,17.45-13.89,37.37-24.47,36.82-49.97,16.87,1.01,28-3.52,29.9-18.37,14.28-1.48,27.05-2.79,42.13-4.35-4.44-5.26-7.13-8.46-10.88-12.91,52.42-41.44,112.65-66.07,171.02-94.74-3.94-2.33-8.37-4.96-9.33-5.53-20.15,9.59-37.98,18.07-55.79,26.55-.84-1.51-1.68-3.01-2.52-4.52,12.67-8.44,25.21-17.1,38.05-25.28,42.78-27.25,86.44-53.2,128.27-81.83,31.54-21.58,61.62-45.04,99.35-54.74-3.6-15.19,9.52-16.9,16.88-21.38,5.8-3.53,11.61-7.04,17.42-10.58.88-3.81,1.8-7.61,2.75-11.4ZM4281.27-404.26c1.15,1.62,2.29,3.24,3.44,4.86-7.42,4.98-14.83,9.95-22.25,14.93-.89-1.24-1.78-2.48-2.68-3.72,7.16-5.36,14.33-10.71,21.49-16.07ZM4048.23-228.53c1.02,1.27,2.04,2.54,3.06,3.81-7.29,6.13-14.59,12.27-21.88,18.4-1.23-1.53-2.46-3.06-3.68-4.6,7.5-5.87,15.01-11.74,22.51-17.61ZM3802.16-34.41c11.52-10.2,23.43-19.99,35.5-29.54,55.14-43.65,110.37-87.17,165.64-130.66,3.44-2.7,7.41-4.73,11.13-7.06,1.17,1.05,2.35,2.09,3.52,3.14-3.36,3.92-6.24,8.42-10.15,11.68-30.82,25.62-61.97,50.84-92.7,76.56-6.58,5.5-11.59,12.84-17.91,18.7-3.78,3.5-8.89,8.37-13.09,8.08-11.39-.79-13.13,5.99-18.04,13.96-7.55,12.26-19.52,21.78-29.62,32.47-1.15-.95-2.31-1.9-3.46-2.85,1.47-4.15,2.94-8.31,4.41-12.46-17.53,17.58-22.26,46.35-51.09,55.52-1.76-15.57,4.71-27.64,15.87-37.53ZM3774.04-9.73c2.39,8.64,4.26,15.41,6.38,23.09-9.56,9.25-19.13,18.52-29.51,28.56-4.23-1.23-8.37-2.43-12.98-3.77,2.68-23.6,19.31-34.69,36.1-47.88ZM3726.43,33.57c3.12,16.44,1.29,18.27-23.5,22.66,9.18-8.86,15.92-15.35,23.5-22.66ZM3665.96,90.24c10.69-.54,20.33-1.02,34.08-1.71-14.4,16.44-33.82,16.49-48.18,25.77-1.18-1.28-2.36-2.57-3.55-3.85,6.03-6.91,12.06-13.82,17.65-20.21ZM513.33,1295.38c-1.47-1.8-2.94-3.6-4.42-5.39,8.15-6.73,16.31-13.45,24.46-20.17,1.46,1.78,2.92,3.57,4.39,5.36-8.14,6.73-16.29,13.47-24.43,20.21ZM511.77,1407.25l-4.73-5.31c4.82-3.76,9.65-7.51,14.47-11.26,1.19,1.29,2.38,2.57,3.57,3.85-4.44,4.24-8.88,8.48-13.32,12.72ZM523.39,1344.55c1.16-6.38,2.01-11.07,3.67-20.21,7.27,7.39,11.75,11.96,19.06,19.39-9.85.36-15.31.56-22.73.83ZM559.22,1257.64c3.38-17.87,56.99-69.16,78.67-74.89-25.2,23.99-50.41,47.98-78.67,74.89ZM530.81,1748.69c-3.16-3.99-5.11-6.45-6.59-8.32,1.45-9.18,23.13-18.76,36.52-17.12,1,1.64,2.01,3.28,3.01,4.92-10.72,6.68-21.44,13.36-32.94,20.52ZM590.34,1708.18q-7.62-7.79,6-16.26c-2.83,7.66-4.31,11.69-6,16.26ZM512.5,799.36c-17.51,3.31-33.83,14.22-52.89,7.64,16.25-11.38,34.56-9.54,52.89-7.64ZM474.24,1214.35c-1.44-5.32-2.67-9.86-3.82-14.07,9.22,3.45,14.19,5.31,19.1,7.15.23,1.01.46,2.02.69,3.03-4.83,1.17-9.65,2.35-15.98,3.89ZM712.38,1078.18l-2.44-7.33c4.82-1.36,9.65-2.72,14.47-4.07.71,1.98,1.41,3.96,2.12,5.94-4.72,1.82-9.43,3.64-14.15,5.46ZM774.21,1122.85c-20.25-25.87-29.21-56.87-42.66-83.98-37.55,21.77-73.15,42.4-109.39,63.4-5.5-1.5-11.15-3.05-20.76-5.68-4.29,7.49-8.8,15.38-13.31,23.26-34.82,29.32-78.07,48.13-118.05,79-.66-2.44-1.3-4.81-1.93-7.1,10.89-11.78,27.17-20.41,20.77-38.87-5.23-15.09-19-11.06-32.82-8.22-21.17-102.09-45.79-202.33-10.26-306.27,142.89-16.12,283.84-32.02,425.37-47.99,7.38,47.91,15.16,98.42,23.15,150.25-30.34,20-59.12,38.97-88.09,58.06-7.98-4.73-14.56-8.63-23.29-13.81-.27,14.04-.5,25.89-.71,36.6,11.2,12.7,22.42,25.43,33.81,38.36,10.68-3.03,20.1-5.7,29.52-8.37.68.99,1.36,1.99,2.04,2.98-23.96,22.32-47.92,44.64-73.4,68.37ZM828.31,1094.53l-20.4,17.25c-1.49-1.8-2.97-3.59-4.45-5.39,6.86-5.68,13.72-11.36,20.58-17.04,1.43,1.73,2.85,3.45,4.28,5.18ZM746.59,1899.95c3.61-6.55,6.12-11.1,10.83-19.64,2.05,9.51,3.09,14.32,4.59,21.25-5.29-.55-8.77-.91-15.41-1.6ZM1085.84,858.48c-2.8-13.87-5.59-27.74-9.18-45.49-22.92,32.45-33.99,68.15-59.74,97.5-12.62-19.25-.31-36.3-6.96-52.89-1.77,17.89-6.05,35.98-4.6,53.6,1.43,17.37,8.68,34.26,13.37,51.36-1.57.71-3.15,1.43-4.72,2.14-4.03-7.78-8.06-15.55-14.01-27.04-3.14,22.04-5.83,40.87-8.8,61.7-9.41-4.03-15.33-6.57-23.33-10-2.84-12.51-5.9-26.05-9.21-40.64-12.13,12.08-23.6,23.5-33.98,33.84,2.28,24.19,4.42,47.02,6.62,70.36,11.23-3.55,20.15-6.37,29.07-9.19,1.05,2.01,2.11,4.03,3.16,6.04-9.17,6.3-18.35,12.6-28.83,19.81-.68,5.17-1.54,11.67-2.14,16.16-43.1,23.08-84.65,45.34-126.2,67.59-5.46-4.84-10.77-9.54-16.93-14.99,39.37-30.87,75.49-66.36,122.76-91.29-.8-3.62-2.2-9.88-3.75-16.89-6.11-1.85-11.66-3.53-13.32-4.03-27.68,8.62-51.78,16.13-77.48,24.14-5.16-8.07-9.6-15.02-15.82-24.76,40.59-22.42,72.76-54.99,118.83-70.15.05-.47.68-4.29.77-8.13.08-3.31-.46-6.64-.82-11.17,17.19-18.71,11.36-40,5.25-61.83-5.95-21.25-10.87-42.82-15.19-64.47-1.78-8.92-.82-18.38-1.18-30.14,11.82-2.68,22.42-5.08,35.23-7.98,3.45,22.37,6.56,42.6,9.68,62.84-2.01-42.93-9.92-85.45-2.51-128.68,13.6,22.57,6.48,48.24,12.3,74.39,5.64-26.23,10.77-50.09,16.57-77.04,12.4,11.49,10.14,22.52,10.28,32.6.5,36.84.55,73.69.99,110.53.06,4.94,1.42,9.86,3.98,14.93,14.77-48.32,20.6-99.03,40.64-145.31,2.45.36,4.91.72,7.36,1.08,0,7.3.87,14.72-.16,21.88-5.81,40.46-12.12,80.85-18.1,121.29-.73,4.91-.53,9.97-.95,18.9,22.44-31.66,32.45-66.3,57.63-95.67,13.14,27.14,6.11,51,9.05,73.99-1.87.37-3.74.74-5.62,1.1ZM910.82,869.85c1.49-.27,2.99-.55,4.48-.83,2.92,13.6,5.84,27.2,8.76,40.79-2.29.43-4.59.86-6.88,1.29-2.12-13.75-4.24-27.5-6.36-41.25ZM1121.92,1415.55c.92-1.25,1.85-2.51,2.77-3.76,4.1,2.07,10.3,3.09,11.93,6.38,7.4,14.99-.62,25.14-13.2,34.42-3.54-3.11-6.87-6.02-11.42-10.01,5.72-3.81,10.44-6.95,15.81-10.53-2.13-5.97-4.01-11.23-5.89-16.49ZM1105.37,1219.25c1.82.97,3.64,1.93,5.46,2.9-2.39,5.07-4.78,10.14-7.18,15.21-2.27-1.34-4.55-2.67-6.82-4,2.85-4.7,5.69-9.41,8.54-14.11ZM928.68,2119.23c16.92-8.84,32.66-22.09,54.08-15.79-16.87,8.93-33.46,18.62-54.08,15.79ZM923.26,2102.02c.28-16.44,12.89-24.03,53.95-33.31,2.46,3.19,5.18,6.7,9.61,12.42-22.18,7.29-42.67,14.02-63.56,20.89ZM1006.95,2087.76c27.91-14.99,53.64-24.96,83.44-31-8.28,14.58-63.51,35.45-83.44,31ZM998.3,2076.51c.51-6.05.88-10.55,1.32-15.76,27.79-9.79,55.17-19.44,84.22-29.68,3.11,4.3,6.82,9.43,12.96,17.94-33.94,9.48-65.14,18.18-98.5,27.5ZM1210.88,1078.21c12.66-11.44,21.38-10.06,42.86,8.14-17.3,1.8-31.03,3.03-42.86-8.14ZM1237.01,1332.2c9.7-6.17,16.41-10.44,23.13-14.71q.19,20.24-23.13,14.71ZM1160.19,2014.17c-2.33-4.9-4.66-9.79-7.57-15.88,4.44-.69,7.29-1.12,11.55-1.78-.06,6.37-.11,11.88-.16,17.39-1.27.09-2.55.18-3.82.28ZM1271.24,1533.62c-4.72-7.81-9.43-15.61-14.48-23.97,2.49-15.22,13.86-16.68,28.04-16.63,3.35,27.12,3.24,27.45-13.56,40.6ZM1416.77,1436.94l-.75-4.22c5.79-.89,11.58-1.78,17.37-2.68.27,1.4.54,2.8.81,4.21-5.81.89-11.62,1.79-17.43,2.68ZM1499.47,1463.9c-4.86,2.71-9.68,5.4-15.13,8.44-5.45-8.66-9.22-14.63-13.83-21.96,11.7-4.42,16.48-21.28,35.98-17.16-4.57,7.57-7.77,12.88-11.3,18.73,1.09,3.04,2.36,6.57,4.28,11.95ZM1479.86,1399.66c5.55-.85,11.09-1.71,16.64-2.56.28,1.7.57,3.39.85,5.09-5.64,1.15-11.28,2.31-16.92,3.47-.19-2-.39-4-.58-6ZM1531.93,1484.55c-2.93-17.15,4.96-24.3,12.44-31.67,1.48.78,2.96,1.56,4.44,2.34-4.94,8.59-9.89,17.18-16.88,29.33ZM1558.49,1442.65c-2.08-1.01-4.15-2.02-6.23-3.03,2.97-7.25,5.93-14.49,8.9-21.74,2.33,1.05,4.65,2.11,6.98,3.16-3.22,7.2-6.43,14.41-9.64,21.61ZM1556.41,1499.46c11.52-16.72,23.88-34.66,36.13-52.44,8,.04,14.86.08,21.49.12-7.89,8.25-15.57,16.28-23.26,24.32,1.94,1.81,3.87,3.61,5.81,5.42,4.99-3.19,9.97-6.37,18.25-11.66,1.68,22.53-17.53,30.49-23.23,45.02-.96.79-1.87,1.87-2.92,2.01-5.84.81-11.72,1.32-16.8,1.85-5.06-4.78-9.47-8.96-15.48-14.65ZM1597.1,1382.4c-10.76-12.96-5.22-19.54,7.96-26.96-3.3,11.17-5.63,19.06-7.96,26.96ZM1598.06,1404.39l3.74,3.33c-2.96,3.58-5.93,7.17-8.89,10.75-1.66-1.61-3.32-3.22-4.98-4.83,3.38-3.08,6.76-6.16,10.14-9.25ZM1621.31,1480.72c1.47.92,2.93,1.85,4.4,2.77-2.87,6.11-4.96,12.76-8.73,18.25-48.95,71.3,8.32,158.56,79.72,162.86,3.76.22,7.44,1.69,12.17,2.82-6.01,13.01-15.03,15.82-27.56,15.93-30.39.26-53.66-16.13-75.89-32.73-8.16-6.09-12.23-20.66-13.75-31.95-2.43-18.03-12.02-28.36-28.05-35.69-.31-7.51-.64-15.39-.96-22.9,9.86-16.86,19.48-33.32,29.1-49.78,9.86-9.86,19.71-19.72,29.57-29.58ZM1632.84,1346.7c-.15-2.34-.3-4.67-.45-7.01,4.66-.31,9.32-.62,13.98-.93.15,2.38.31,4.76.46,7.14-4.66.27-9.33.54-13.99.81ZM1704.12,1359.62c-13.75-6.31-23.4-10.74-33.01-15.15,4.25-18.27,14.96-21.08,51.69-13,1.27,3.51,2.77,7.66,4.64,12.81-9.16,6.03-17.73,11.66-23.32,15.34ZM1853.19,1470.38c-2.39-3.41-4.56-6.5-7.27-10.35-2.48,3.01-4.8,5.83-7.69,9.34-36.03-13.64-59.42-43.88-89.7-66.43.76-8.92,1.47-17.42,2.19-25.91,2.91-4.99,5.82-9.96,8.45-14.46,20.69-1.49,39.18-2.81,61.74-4.43,4.67,5.51,11.31,13.35,19.06,22.49-4.92,8.69-9.31,16.46-15.28,26.99-14.07-10.46-26.16-19.45-38.25-28.44l-3.92,3.65c.74,4.8,1.48,9.59,2.54,16.46,34.27,11.13,68.72,22.32,107.11,34.78.04,7.68.1,18.91.16,30.28-15.04,2.32-26.83,4.14-39.15,6.03ZM1924.03,1364.17c-35.26,16.92-87.4-32.65-83.27-84,17.69,38.82,48.32,64.04,83.27,84ZM1873.82,1359.15c26.82,17.3,31.02,18.26,61.32,13.5.12,7.18.23,14.19.37,23.04-7.86,5.48-16.03,11.17-24.2,16.87-1.52-1.48-3.04-2.95-4.56-4.43,2.52-4.42,5.04-8.84,9.4-16.48-7.97,3.67-13.24,6.11-17.94,8.27,1.1,10.36,1.98,18.6,2.9,27.25-11.82-4.24-21.39-7.67-32.35-11.61.82-4.2,1.8-9.16,3.15-16.02-5.26,2.3-9.6,4.19-14.07,6.14-4.42-4.87-8.79-9.69-13.21-14.56.97-6.43,1.96-12.96,3.24-21.38-25.31-15.76-50.64-31.52-74.67-46.48-35.01-3.74-68.62-7.33-106.06-11.32,6.46-7.08,9.76-10.7,13.47-14.77-23.69-10.39-47.29-19.6-69.82-30.93-24.35-12.24-49.56-12.9-75.67-10.58-11.24,1-22.64.07-33.92.78-40.74,2.56-76.72,19.12-108.4,42.97-14.86,11.19-25.78,28.91-35.33,45.5-12.45,21.61-29.53,34.04-53.82,36.99-26.31,3.2-41.94-13.54-34.74-38.78,3.19-11.19,10.33-21.36,16.39-31.58,4.7-7.92,10.51-15.18,15.72-22.58-12.35-28.13-24.05-54.76-35.78-81.47,7.86-8.48,13.64-14.86,19.58-21.09,13.69-14.35,29.75-25.86,39.54-44.66,5.91-11.35,20.65-18.09,31.09-26.64,6.91-35.21,19.48-37.73,68.68-42.54,9.59-.94,18.93-4.43,28.39-6.74.26-2.48.51-4.96.77-7.44,8.54,4.03,17,8.23,25.63,12.05,6.53,2.89,13.48,7.95,19.88,7.46,27.24-2.1,51.28,7.62,75.49,17.51,2.4.98,5.16,1.11,7.75,1.63,6.12,4.32,12.05,8.94,18.44,12.8,14.04,8.5,28.49,16.33,42.41,25.01,3.35,2.09,5.26,6.47,6.64,11.63-47.45-21.75-92.43-49.13-145.47-53.22-1.56,2.47-3.12,4.95-4.69,7.42,3.61.62,7.21,1.27,10.82,1.86,80.88,13.23,148.05,53.18,207.13,107.89,16.58,15.36,29.27,34.85,45.33,50.86,34.98,34.89,69.2,70.79,111.13,97.85ZM1289.65,1155.49c3.23,5.13,4.88,7.74,7.31,11.6-5.8,5.66-11.27,11-18.45,18.01-8.8-17.95,3.81-20.86,11.14-29.6ZM1581.46,1096.59c-20.31-14.97-43.66-24.27-68.25-22.29-24.62,1.98-37.34-16.43-57.06-21.72.23-1.43.46-2.86.69-4.28,14.17-4.57,28.35-9.14,43.08-13.89,26.12,20.47,55.17,32.95,89.69,31.24,5.04,12.69,9.63,24.24,15.82,39.83-10.22-3.79-17.1-6.34-23.97-8.88ZM1641.76,1114.79c8,.06,13.8.1,19.61.15.61,1.41,1.23,2.82,1.84,4.24-3.76,3.44-7.52,6.88-13.59,12.42-3.34-7.13-4.93-10.54-7.87-16.81ZM1703.3,1113.77c20.66,17.3,41.31,34.59,63.77,53.39-4.13,7.67-7.54,14.02-10.43,19.38-35.53-3.13-57.14-30.41-57.37-69.08,1.34-1.23,2.68-2.46,4.02-3.69ZM1603.74,988.75c24.6,30.47,49.21,60.95,74.29,92.01-1.95,8.67-3.39,15.1-4.69,20.88-20.14,10.42-31.1,8.26-40.32-9.33-16.77-32.01-23.55-67.23-32.94-101.58,1.22-.66,2.44-1.33,3.66-1.99ZM1465.8,844.45c29.93,22.4,58.23,47.46,90.09,66.62,27.5,16.54,36.42,37.31,29.91,66.46-3.98,17.82-10.04,35.17-15.61,54.24-37.74-6.18-63.97-21.4-84.52-53.93-12.29-3.05-18.95-15.71-23.38-31.6-9.82-35.24-11.16-70.89-9.97-109.98,6.18,3.73,10.07,5.64,13.47,8.19ZM1365.84,686.62c14.27,14.08,28.16,28.64,41.13,43.91,11.64,13.71,21,29.4,32.96,42.8,14.13,15.85,11.26,39.17,1.9,54.26-10.76,17.35-23.69,33.39-36.1,49.67-2.28,2.99-6.6,4.43-11.95,7.86-7.99-2.79-15.36-5.37-24.32-8.5,3.21-5.36,5.44-9.1,8.41-14.05-6.03,2.37-11.09,4.35-19.06,7.47-15.94-21.28-31.82-42.49-47.83-63.87,20.68-41.21,33.13-82.58,34.44-130.71,8.82,4.68,15.87,6.66,20.43,11.16ZM1301.36,810.96c16.82,20.01,33.24,40.83,51.08,60.36,14.01,15.33,18.76,16.07,52.98,18.87-.6,6.28-1.19,12.56-1.81,18.84-2.1,21.3-4.96,42.56-6.08,63.92-.83,15.73,5.25,22.43,21,22.99,20.83.73,42.43,6.77,61.74-5.62,15.33,11.89,29.48,25.65,46.12,34.97,16.14,9.04,34.32,21.27,53.61,3.89,31.68,12.5,36.85,43.02,48.77,71.05-17.28,3.21-22.54-4.04-31.3-41.17-35.36,1.48-67.76-9.35-96.87-31.62-47.66,22.97-88.45,10.77-125.53-22.91-.08-29.44-.15-58.11-.22-87.09-6.97-3.61-13.4-6.94-20.05-10.39-37.4,26.08-70.21,59.02-115.57,70.6-8.86-23-4.65-34.44,12.98-41.74,14.82-6.13,30.57-10.05,45.29-16.38,12.75-5.48,25.91-11.57,30.45-28.02-15.93-15.65-32.04-31.46-48.89-48.02-18.47.25-40.92,14.2-54.75-11.45,4.91-20.79,5.69-21.03,45.9-12.09,30.94-58.97,53.3-121.65,63.14-191.62,10.89,40.07,6.69,120.46-31.96,182.64ZM1327.53,346.25c5.33-12.83,5.41-12.98,15.02-7.04-5.01,2.35-10.02,4.69-15.02,7.04ZM3569.6,224.29c6.67-4.96,12.65-11.53,20.08-14.59,48.22-19.85,99.25-27.93,150.73-31.72,16.55-1.22,33.66,5.23,50.38,8.15-2.44,31.98-4.61,60.47-6.91,90.53-2.8,2.01-6.94,4.97-12.12,8.69.34,7.96.68,15.86,1.08,25.12-3.73,1.21-8.1,4.07-12.19,3.72-53.12-4.67-97.98,17.55-141.46,43.5-56.39,33.65-111.68,68.95-160.22,113.75-7.75,7.16-16.59,13.14-26.07,20.57-40.35-37.02-81.1-71.54-140.16-81.97,64.23-78.98,142.25-130.46,228.5-172.54,2.86,3.72,5.01,6.51,7.99,10.38,13.63-7.97,27.02-15.8,40.36-23.6ZM3390.84,594.66c9.28-8.57,18.56-17.14,30.64-28.29,5.19,5.71,10.08,11.11,13.16,14.5,5.74,9.84,10.42,17.87,15.72,26.96-11.59,13.73-22.27,29.08-35.63,41.58-20.87,19.53-47.77,13.57-63.96-12.34-.48-14.51-.97-28.99-1.46-43.48-15.2-57.5-47.96-106.93-76.18-158.54,1.67-1.54,3.33-3.07,5-4.61,15.39,16.33,30.78,32.66,46.16,48.99,1.46-1.29,2.93-2.58,4.39-3.87-12.3-14.59-24.6-29.18-36.9-43.77,1.08-1.24,2.16-2.47,3.24-3.71,29.68,4.16,59.27,5.84,76.26,39.42,14.96,29.59,34.32,56.95,51.91,85.57-12.49,13.24-24.13,25.58-35.76,37.92,1.14,1.22,2.28,2.44,3.42,3.66ZM3457.44,592.22c1.47-5.25,3.15-11.26,4.84-17.26,1.47-.76,2.95-1.52,4.43-2.27,4.12,5.7,8.28,11.37,12.34,17.11,4.11,5.81,8.1,11.69,14.56,21.04-1.79,11.48-4.14,26.5-6.48,41.53-29.25,43.59-72.64,55.58-121.89,53.29-38.91-1.81-56.92-22.16-56.92-63.3,7.96-5.83,16.27-11.91,26.31-19.28-.14,4.64.01,7.73-.37,10.75-3.28,25.7,9.65,44.46,34.7,50.16,35.07,7.98,80.53-10.9,100.13-41.6,11.22-17.57,8.93-28.14-11.65-50.17ZM3113.64,732.18c48.24,10.44,99.47-14.73,111.54-54.44,14.15,10.4,19.67,27.87,11.25,44.76-5.19,10.41-13.09,20.55-22.21,27.69-20.28,15.86-45.04,20.64-70.16,20.72-27.17.08-53.17-23.24-58.66-52.03-2.63-13.81-9.66-29.1,7.85-42.82,5.01,4.78,10.32,9.86,15.05,14.37,4.25,12.59,7.61,22.56,11.48,34.02-5.21-.32-10.37-.63-15.54-.94-.37.76-.73,1.53-1.1,2.29,3.49,2.19,6.71,5.58,10.5,6.4ZM3146.13,712.15c10.64-3.82,20.92-7.51,32.62-11.71-10.83,18.02-17.48,20.21-32.62,11.71ZM3158.25,696.55c-23.06.54-28.78-20.27-44.45-30.54,5.66-4.83,9.97-8.5,15.05-12.83-4.55-4.21-8.35-7.72-12.55-11.6-6.37-.05-12.93-.1-20.55-.15-5.42-15.49-10.81-30.91-17.09-48.85,33.84,5.52,65.43,10.68,98.8,16.12,6.34,16.08,12.53,31.74,19.67,49.84-12.43,12.15-26,25.41-38.89,38ZM3083.39,580.69c8.3-8.17,12.42-12.22,18.13-17.84,8.49,7.94,15.95,14.91,23.42,21.88-.75,1.66-1.5,3.31-2.25,4.97-11.49-2.64-22.99-5.27-39.3-9.01ZM3125.24,563.24c-1.49-.96-2.35-2.91-3.43-4.31,21.38-12.98,40.15-27.84,61.46-36.21,16.59-6.52,36.68-8.09,54.62-6.18,20.08,2.14,39.49,10.68,59.19,16.44l-.9,4.61c-8.51-.59-17.01-1.18-25.52-1.77-.38,1.1-.75,2.19-1.13,3.29,17.45,5.56,34.89,11.12,55.84,17.8-19.87,16.08-40.03,22.11-59.88,28.57-6.32,2.06-13.29,2.13-19.61,4.18-45.44,14.79-83.72-2.64-120.63-26.42ZM3400.27,481.45c-3.54-2.77-7.08-5.55-10.63-8.32.29-.8.58-1.6.87-2.4,2.24.79,4.72,1.21,6.64,2.48,2.09,1.38,3.67,3.55,5.47,5.37-.79.96-1.57,1.92-2.36,2.87ZM3518.23,175.96c3.97,2.54,7.95,5.08,11.93,7.62-.72,1.22-1.44,2.44-2.17,3.65-4.05-2.31-8.1-4.62-12.15-6.94.8-1.45,1.59-2.9,2.39-4.34ZM3481.4,151.94l2.53,4.06c-6.75,4.09-13.51,8.18-20.26,12.27-.81-1.31-1.63-2.62-2.44-3.93,6.72-4.13,13.45-8.26,20.18-12.39ZM3348.58,255.82c1.54,1.43,3.08,2.85,4.61,4.27-21.49,23.5-42.99,47-64.48,70.5-1.72-1.59-3.45-3.19-5.17-4.78,21.68-23.33,43.36-46.66,65.03-69.99ZM3241.61,402.53c32.63-37.31,65.13-74.73,98.13-111.71,20.96-23.48,41.99-46.98,64.44-68.99,8-7.84,20.3-11.31,33.43-18.25,2.54.41,8.25,1.32,16.02,2.55,3.7-10.13,7.26-19.88,11.36-31.12,8.4-4.57,17.65-9.62,27.89-15.19,3.36,31,32.11,33.7,49.16,47.08,1.55,13.07-7.05,16.78-14.9,20.14-64.03,27.4-121.96,64.7-174.47,110.03-24.75,21.37-46.75,45.93-71.09,70.13-14,2.16-29.67,4.57-48.39,7.46,3.73-5.41,5.74-9.05,8.42-12.12ZM3138.11,451.55c20.34-9.1,34.37-15.37,48.92-21.87,1.67,2.74,3.9,6.42,6.17,10.15,30.28-21.29,44.92-21.97,63.97.11-9.09-2.23-14.49-3.55-20.27-4.96,1.33,8.64,2.65,17.17,3.93,25.5-16.62,4.74-15.01-9.73-19.8-16.81-1.51.62-3.02,1.24-4.52,1.86,2.03,7.7,4.06,15.4,6.77,25.67-17.43-4.4-34.18-8.64-50.94-12.87-.35,1.26-.7,2.52-1.05,3.78,11.47,4.64,22.95,9.27,36.18,14.62-38.59,5.95-74.91,11.54-112.45,17.33.34-32.89,36.05-29.2,43.09-42.49ZM3205.97,488.54c-30.41,32.31-60.68,54.96-103.11,62.07-6.95-6.17-14.34-12.72-24.43-21.68-3.73.58-11.58,1.78-19.42,2.99,42.57-32.82,90.07-45.94,146.96-43.38ZM3008.57,536.04c7.74,1.43,16.2.77,23.25,3.68,17.01,7,33.38,15.54,50.01,23.46-.45,1.62-.9,3.24-1.35,4.86-34.22-3.52-68.44-7.04-105.18-10.83,8.84-19.24,18.06-23.99,33.26-21.17ZM2910.39,539.83c5.8,8.23,10.77,15.27,16.46,23.34,6.29,1.72,13.32,3.65,23.4,6.42,5.77,8.89,11.88,18.3,19.35,29.8-17.36.29-32.45.54-47.55.79-.26,1.85-.52,3.69-.78,5.53,24.81-2.39,47.25,1.98,69.22,21.99-11.23-1.19-18.09-1.91-24.95-2.64l-1.23,3.61c5.25,3.23,10.49,6.46,18.04,11.11-23.42,9.28-44.32,8.46-67.2-2.01-13.47,10.04-27.1,20.19-40.72,30.34.51.68,1.02,1.36,1.52,2.04-5.84.9-11.69,1.8-18.43,2.84-5.65-5.67-11.21-11.27-17.14-17.23,1.33-6.81,2.55-13.06,4.25-21.74-5.81,1.69-9.67,2.82-14.52,4.24-1.78-3.8-3.66-7.79-5.75-12.24,16.28-22.57,43.2-25.65,67.42-38.38-29.16-.12-48.82,16.05-73.28,29.87-5.72-17.74-10.92-33.84-16.42-50.87,3.17-3.31,6.2-6.47,9.91-10.35-2.08-2.89-4.22-5.86-7.19-9.99,34.96-18.39,70.45-9.38,105.58-6.46ZM2996.21,669.56c-16.46,30.85-54.29,45.51-79.18,29.2,32.04.53,58.06-8.2,79.18-29.2ZM2706.26,570.86c.39,2.06.78,4.13,1.16,6.19-4.67.72-9.34,1.44-14.01,2.16-.37-1.34-.74-2.68-1.11-4.02,4.65-1.44,9.3-2.89,13.95-4.33ZM2599.61,611.36c.79.67,1.58,1.33,2.37,2,9.11,1.08,18.23,2.15,27.99,3.3,18.2,12.59,36.94,25.55,57.36,39.67-4.2,2.68-6.64,4.23-9.51,6.06,1.84,3.26,3.69,6.54,7.16,12.68-16.06,4.68-31.05,9.06-46.75,13.64-3.32,6.05-7.08,12.89-11.76,21.4-9.24-7.91-17.11-14.65-26.58-22.76,3.82-7.38,7.61-14.7,11.35-21.92-6.48-.39-12.9-.78-19.73-1.19-3.52,2.53-7.28,5.24-12.21,8.78-10.57-4.49-21.56-9.16-32.21-13.69-2.01-6.84-3.81-12.93-6.83-23.2,19.47-8.13,39.42-16.45,59.36-24.78ZM2663.3,710.72c-6.28,1.36-12.56,2.72-18.84,4.08-.58-2.29-1.16-4.58-1.75-6.87,6.12-1.88,12.24-3.76,18.37-5.64.74,2.81,1.48,5.62,2.23,8.43ZM2531.96,626.44l1.93,4.91c-18.26,21.14-33.25,30.71-51.52,32.33-1.43-5.03-2.91-10.26-5.34-18.8,18.33-6.15,36.64-12.29,54.94-18.43ZM2451.13,828.98c-.26-5.64-.51-11.28-.77-17.03-14.79,2.17-11.15,13.75-11.93,23.07-7.6,3.86-14.87,7.56-24.55,12.47-7.71-14.55-15.18-28.66-23.65-44.64-1.68-.78-9-1.85-10.2-5.15-7.17-19.63-26.01-25.81-40.14-37.43-4.55-3.75-7.21-9.8-10.71-14.82,23.31-13.44,46.12-27.86,70.15-39.84,12.06-6.01,26.38-7.49,41.77-11.57.47,7.22.69,10.71.86,13.28,6.6,4.33,13.47,8.85,22.43,14.73-6.51,4.22-9.61,6.22-12.34,7.99,50.83,32.36,27.4,65.56-.92,98.95ZM2496.43,756.99c11.27,1.72,18.91,2.9,26.5,4.06,13.38,20.03,11.01,39.47-1,59.59-22.9,38.37-52.28,67.56-98.78,74.28-15.58,2.25-29.98-.64-43.09-11.61,4.15-.43,8.36-1.54,12.44-1.18,38.85,3.51,68.72-15.44,92.51-42.12,19.44-21.8,31.67-48.66,11.41-83.02ZM2379.44,699.86c11.36-12.67,26.95-8.27,40-10.79-13.95,2.76-24.65,17.35-40,10.79ZM2455.06,689.3c-.56-1.71-1.12-3.41-1.68-5.12,12.15-11.64,28.46-10.63,42.75-15.75.74,2.27,1.48,4.54,2.22,6.8-14.43,4.69-28.87,9.38-43.3,14.07ZM2471.63,662.29c-16.09,14.66-80.85,25.98-99.32,16.37,32.69-3.48,63.09-20.57,99.32-16.37ZM2364.6,694.7c3.13,4.7,5.92,8.88,9.12,13.68-15.46,12.82-30.03,24.9-44.59,36.98,0,0-.02-.03-.03-.05-6.89,4.33-13.78,8.65-23.38,14.68-16.05-13.38-21.78-33.35-29.29-55.77,29.75-9.31,58.87-6.69,88.17-9.52ZM2267.69,685.81c26.86-22.76,55.61-31.29,86.5-31.15,1.88,12.22,3.31,21.47,4.76,30.87-52.65,23.89-268.7-1.23-319.11-36.68,75.55,20.32,152.6,27.65,227.85,36.95ZM2040.51,606.41c31.67,16.94,63.33,33.88,95,50.83-.3,1.31-.6,2.62-.89,3.93-12.52-1.95-25.05-3.91-37.54-5.86-2.51-5.46-4.68-10.17-6.85-14.88-.82,1.08-1.64,2.17-2.47,3.25-16.84-10.56-33.67-21.11-50.51-31.67,1.09-1.87,2.18-3.73,3.27-5.6ZM2241.46,700.53c14.15,36.15,27.93,70.91,59.13,97.35-14.91,10.39-28.38,20.1-42.17,29.32-27.69,18.5-57.73,34.21-82.82,55.72-32.14,27.55-67.45,47.78-107.11,60.55-29.5,9.5-60.26,12.97-91.13,7.59-11.47-2-22.38-7.23-33.8-11.07,18.25-26.3,34.04-50.84,51.6-74.03,44.73-59.04,50.93-123.14,27.41-191.71-1.51-4.42-2.91-8.89-4.01-13.43-.44-1.82.07-3.87.27-8.91,71.34,29.16,144.72,44.45,222.64,48.62ZM1977.36,577.59c3.53,9.07,7.06,18.14,10.6,27.21l-5.89,2.27c-3.29-9.16-6.57-18.33-9.86-27.49,1.72-.66,3.43-1.33,5.15-1.99ZM3442.49,1551.26c-18.43-6.02-36.87-12.04-55.3-18.06.44-1.72.88-3.45,1.32-5.17,14.75,2.07,29.51,4.15,44.51,6.26,3.9,4.74,7.63,9.27,11.35,13.79-.63,1.06-1.25,2.12-1.88,3.18ZM3687.65,1344.67c-24.96,4.31-19.82,30.36-32.92,45.14,7.87,23.89-4.78,42.31-19.43,59.28-21.51,24.92-43.68,49.46-80.05,51.87-3.19.21-6.38,2.03-9.36,3.54-60.78,30.79-123.13,23.46-185.78,7.6-4.34-1.1-8.21-4.07-14.34-7.23-1.35,1.03-4.13,3.14-9.04,6.88-34.22-16.54-69.7-33.63-105.14-50.81-71.15-34.49-141.97-69.94-219.86-87.3-28.61-6.38-57.6-11.07-87.01-16.64,13.03-5.94,34.25-4.41,64.9,3.74,22.62,6.01,45.56,10.86,68.01,17.43,21.74,6.36,43.03,14.26,65.65,21.87,1.84-2.73,3.94-5.84,6.34-9.4-3.58-3.84-6.65-7.13-9.72-10.42.39-1.28.78-2.57,1.17-3.85,41.32,8.79,82.65,17.58,122.86,26.13,4.21,8.09,7.23,13.9,10.15,19.5,15.72,4.75,17.23-5.75,18.77-17.93,79.2,17.17,156.28,6.26,232.09-16.15,75.57-22.34,139.71-64.66,196.53-118.82,1.01.84,2.02,1.68,3.02,2.52-5.54,24.03-11.08,48.06-16.84,73.06ZM3721.41,1262.3c-1-.28-2-.56-3.01-.84,1.55-5.4,3.11-10.81,4.66-16.21,1.28.35,2.57.71,3.85,1.06-1.83,5.33-3.67,10.66-5.5,15.99ZM3761.59,1060.46c1.84,11.97,3.42,22.19,4.99,32.41,1.57.1,3.14.2,4.71.29.79-10.95,1.59-21.9,2.38-32.8,20.41-3.88,30.94.33,44.11,20.05-15.19,15.14-30.96,30.87-46.7,46.57.74,4.8,1.39,9.02,2.25,14.62-6.14.95-11.03,1.7-14.52,2.24-21.03,29.24-38.74,59.87-62.13,85.24-67.47,73.15-146.77,126.88-249.01,138.43-74.76,8.45-142.41-5.36-198.73-59.65-13.74-13.25-31.71-22.11-48.97-33.83-4,3.65-7.4,6.76-11.01,10.06-1.61-.81-3.58-1.44-5.09-2.64-8.39-6.68-16.68-13.47-24.97-20.26-16.77-13.74-34.69-21.96-57.3-15.56-8.33,2.36-17.61,1.33-26.46,1.85-.85-1.78-1.7-3.56-2.56-5.35,3.68-4.54,7.37-9.09,11.66-14.38-15.4,2.37-30.62,5.43-45.99,6.89-14.8,1.4-30.46,9.83-44.5-.38-.34-1.88-.67-3.76-1.01-5.64,17.34-7.03,34.68-14.05,54.5-22.08-18.01-11.39-35.2-19.95-54-15.37-70.28,17.14-140.22,35.73-210.27,53.83-3.15.81-6.15,2.15-12.76,4.49,31.12.94,58.45,1.13,85.71,2.7,56.9,3.28,110.72,18.3,162.07,43.08,54.78,26.44,110,51.97,165.02,77.9-.84,2.36-1.68,4.72-2.51,7.08-49.56-10.98-99.3-21.22-148.62-33.18-37.63-9.12-74.34-22.53-114.76-21.08-2.84,4.26-5.73,8.59-9.26,13.86-8.66,0-17.9,0-27.96.01-.57-5.22-1.04-9.63-1.77-16.35-11.83.51-23.6,1.02-36.09,1.57-10.66,16.54-28.25,12.34-44.61,16.57-.12-6.12-.18-9.94-.26-13.7-1.43-.55-2.63-1.48-3.74-1.37-58.78,5.63-116.91,14.73-173.3,32.96-36.26,11.73-73.57,20.89-108.69,35.37-139.84,57.67-278.89,117.28-418.49,175.53-47.18,19.69-95.77,35.52-147.86,32.98-15.48-.75-30.73-6.11-47.26-12.13,81.22-39.96,90.27-113.16,94.93-191.43.68-.28,3.39-1.4,7.28-3-.09-3.41-.21-7.7-.46-16.92,15.46,18.34,28.09,33.32,40.71,48.3.79-.63,1.59-1.25,2.38-1.88-66.47-93.76-132.94-187.52-199.64-281.6,13.78-6.83,26.69-13.22,41.92-20.76,68.37,56.68,146.39,98.32,236.05,123.89-4.53,18.88-8.78,36.56-13.03,54.25,1.18.35,2.37.69,3.55,1.04,6.67-22.42,13.34-44.84,20.05-67.42,3.87-.6,7.54-1.16,12.56-1.93,2.78-16.49,5.55-32.9,8.32-49.31-1.17.03-2.34.06-3.51.09-1.62-10.53-3.25-21.06-4.78-30.99-5.4,13.72-11.03,28.06-17.17,43.68-81.08-14.54-150.6-46.72-215.87-92.36,17.33-28.17,33.99-55.27,51.01-82.94-133.13-87.8-232.94-202.93-314.61-335.03,76.38,134.79,172.62,251.74,308.07,338.42-21.2,30.31-40.89,58.46-60.4,86.34-8.99-2.38-14.66-3.88-21.59-5.71-1.48,6.07-2.85,11.69-4.33,17.78-9.56,11.95-25.62,13.04-38.81,2.08-40.73-33.83-77.67-71.04-110.96-112.55-102.2-127.41-184.03-266.67-246.64-417.25-31.37-75.45-60.93-151.68-74.52-232.91-1.1-6.59-2.05-13.21-3.28-21.23,3.69-.57,7-1.08,12.5-1.93-.2-5.43-.41-10.99-.61-16.31,9.93-7.17,20.11-14.52,29.99-21.66,7.94,4.84,15.7,9.56,25.04,15.25-1.36,7.6-2.93,16.35-4.75,26.5,7.82-1.2,14.01-2.16,20.19-3.11,5.48,11.22,10.82,22.16,15.69,32.14-1.16,8.2-2.28,16.09-3.38,23.87,7.71,2.74,12.51,4.44,19.17,6.8-2.11,6.2-3.91,11.49-6.68,19.62,3.65,3.45,8.37,7.91,13.09,12.37,2.02-1.4,4.05-2.79,6.07-4.19,10.43,25.67,20.49,51.51,31.38,76.98,12.49,29.2,25.71,58.09,38.61,87.11,1.98-.84,3.97-1.69,5.95-2.53-17.98-42.76-35.95-85.52-53.93-128.29,1.96-.92,3.93-1.84,5.89-2.76,13.78,28.67,27.55,57.35,40.43,84.16,12.92,10.48,32.63.88,42.68,20.6-11.15-.3-19.39-.52-31.12-.83,4.19,9.18,7.54,16.54,11.8,25.87,11.67-9.5,33.77,4.43,36.82-21.78,3.34-.51,8.16-1.26,16.72-2.57-13.28-25.83-16.07-54.87-44.42-70.4,2.1-4.71,4.14-9.31,6.27-14.11-13.78-32.21-27.92-64.02-40.94-96.28-5.89-14.59-9.16-30.2-14.39-45.09-2.2-6.27-6.36-11.85-9.63-17.75-1.69-.03-3.38-.06-5.07-.08,4.18-22.42,8.37-44.83,13.19-70.67,18.07,4.29,35.89,8.52,54.55,12.95,1.33-3.68,2.8-7.73,4.54-12.55,18.77,5.04,36.12,9.98,39.18,33.86,8.59,2.91,16.95,5.75,25.3,8.58,63.28,36.61,130.33,70.75,174.46,133.48,24.38,34.65,60.75,60.1,76.04,101.97-21.12-13.63-38.59-31.01-52.25-52.34-1.07,16.3,12.62,31.97,63.46,72.37,5.2,23.53,10.56,47.82,17.96,81.31,22.66,39.85,23.63,93.24,23.08,147.49,9.19-13.93,10.36-21.24,6.12-64.59-2.14-21.85-6.49-43.49-10.6-70.16,6.45,5.07,12.17,7.26,13.72,11.12,26.05,64.95,35.25,129.32-8.13,191.49-14.18,20.33-26.99,41.65-41.71,61.58-7.3,9.89-17.48,17.64-25.72,25.74-109.22-57.53-153.97-163.97-213.51-261.63-15.2,3.99-30.19,7.93-49.03,12.88,17.18,23.05,31.54,44.73,48.35,64.31,30.06,35.01,60.22,70.13,92.88,102.65,35.95,35.81,72.49,71.77,112.88,102.21,58.31,43.94,120.29,83.27,190.18,107.18,53.23,18.21,107.03,37.76,164.44,30.95,85.76-10.19,172.51-9.25,257.75-25.83,63.8-12.4,128.42-20.63,192.71-30.53,49.86-7.68,98.12-20.92,145.52-38.29,50.61-18.55,101.04-38.02,156.1-40.68,34.89-1.69,69.1-2.26,102.24,11.23,7.86,3.2,16.92,3.5,25.44,5.05,31.3,5.71,53.24,26.38,75.87,46.49,48.5,43.11,91.81,92.26,146.12,128.6,47.34,31.68,100.13,46.94,157.13,44.49,38.44-1.65,70.98-18.48,98.28-45.24,16.75-16.42,32.55-33.83,49.54-50,21.2-20.18,45.8-34.07,77.07-38.58ZM2056.33,1193.93c-8.83-3.44-17.66-6.87-26.5-10.3.61-1.6,1.23-3.2,1.84-4.8,8.87,3.08,17.74,6.16,26.61,9.24-.65,1.96-1.3,3.91-1.95,5.87ZM2068.65,1216.66c-.76,1.92-1.52,3.83-2.28,5.75-5.53-2-11.06-3.99-16.59-5.99.89-2.32,1.78-4.65,2.66-6.97,5.4,2.4,10.8,4.81,16.21,7.21ZM1561.52,364.36c1.8-.72,3.61-1.44,5.41-2.16,3.86,10.18,7.72,20.36,11.58,30.54-11.83-6.94-22.68-14.24-16.99-28.39ZM1591.43,429.94c5.48,14.44,10.37,27.29,16.46,43.34-18.07-8.83-22.45-22.37-16.46-43.34ZM1609.86,481.34c2.24,3.47,4.49,6.95,6.73,10.42-1.54,1.21-3.07,2.42-4.61,3.63-2.72-3.27-5.44-6.55-8.16-9.82,2.01-1.41,4.02-2.82,6.04-4.22ZM3776.56,835.58c-1.59,1.26-5.81-.82-12.88-2.07,18.93-25.45,42.37-36.65,68.89-43.6-18.61,15.3-37.11,30.73-56.01,45.66ZM3945.94,674.36c.37-5.06.74-10.12,1.11-15.18,1.71.31,3.42.62,5.13.93-.72,4.89-1.43,9.79-2.15,14.68-1.36-.14-2.73-.28-4.09-.43ZM3984.87,555.16c-2.99,3.31-6.03,6.69-9.65,10.71-4.14-2.11-7.9-4.01-13.43-6.83-.79,7.28-1.41,12.93-2.39,21.91-9.11,5.93-20.01,13.02-31.5,20.5-5.69,6.96-10.88,16.72-18.91,22.55-45.5,33.03-91.58,65.27-137.7,97.44-12.63,8.81-13,8.28-13.1,23.28,1.94-.53,4.42-.42,5.47-1.6,28.6-31.91,69.03-47.51,101.63-73.88,21.34-17.26,42.96-34.19,65.48-52.07,4.23,2.22,8.74,4.59,16.37,8.6-4.34,17.96-8.74,36.12-14.07,58.19-2.4,5.35-6.13,14.58-10.58,23.46-15.47,30.87-40.92,51.03-72.07,63.92-32.84,13.59-66.69,25.03-91.23,54.38-.47,5.04-1.02,10.91-1.5,16.05-47.5,44.38-59.03,99.14-48.64,161.51-57.65,57.33-106.58,125.16-186.81,154.6-43.98,16.13-87.01,18.1-125.08-18.31-19.21-18.38-43.42-31.45-63.23-49.3-21.24-19.14-39.62-41.44-59.91-61.68-16.99-16.95-35.88-32.06-52.27-49.53-39.63-42.25-93.17-45.65-145.06-52.47-15.33-2.01-32.15,2.03-47.49,6.21-85.21,23.24-171.04,44.68-254.98,71.92-94.55,30.68-191.67,44.58-289.63,55.55-52.58,5.88-105.19,12.13-157.96,15.37-30.34,1.86-61.03-1.96-94.77-3.35,6.02-10.6,9.77-17.2,13.52-23.8-.81-.76-1.61-1.53-2.42-2.29-8.09,7.29-16.18,14.59-23.69,21.35-61.83,1.09-208.81-63.03-255.16-112.53,81.58,14.32,148.12-15.25,210.15-61.49,9.2,9.7,17.55,18.5,25.9,27.3,1.24-.93,2.47-1.87,3.71-2.8-6.24-9.59-12.49-19.18-20.83-32,53.41-37.13,105.89-73.62,161.41-112.22,13.2,13.36,25.48,25.78,37.76,38.2-1.41.75-2.82,1.5-4.24,2.26,4.67,19.07,9.33,38.13,14.49,59.2-8.83-1.01-19.66-2.25-31.38-3.59-4.3-6.03-8.46-11.87-12.6-17.68,7.25-17.66,30.09-31.93,11.74-54.11-25.84,11.03-37.72,29.45-33.14,52.76,1.46,7.46,7.94,15.35,14.31,20.12,11.72,8.77,24.77,15.93,37.8,22.75,21.58,11.29,44.09,10.05,66.29,2.04,44.1-15.9,70.79-49.47,88.57-90.83,6.99-16.25,5.61-32.48-10.77-43.81-11.73-15.22-23.78-30.21-35.03-45.77-4.56-6.31-7.4-13.87-12.11-22.97,18.88-11.21,36.47-21.66,54.92-32.62,14.59,6.52,28.42,12.7,43.77,19.56-3.86,11.66-7.16,21.63-10.38,31.37,8.57,27.79,20.35,52.87,52.25,59.71,24.29,5.2,44.46-3.73,61.95-20.77-20.86,8.26-40.59,23.29-64.91,9.59,8.9-1.37,17.8-2.74,31.5-4.85-22.98-10.53-50.4,3.83-63.47-26.67,2.79-8.92,6.5-20.75,10.79-34.44,4.5,3.98,6.21,4.77,6.25,5.64,1.47,29.48,14.03,38.2,42.99,29.89,20.12-5.77,36.9-17.49,48.39-34.1,6.93-10.01,8.02-24.07,12.69-39.45,1.53-.11,7.47-.55,13.41-.98.59-1.37,1.17-2.75,1.76-4.12-6-4.08-12-8.17-18.52-12.61.78-1.42,2.2-4.01,4.26-7.74-5.65-6.54-11.56-13.38-18.39-21.28-8.67,4.01-16.39,7.58-25.43,11.75-6.27-2.46-13.44-5.28-20.62-8.09.12-1.79.25-3.58.37-5.36,9.17-1.41,18.35-2.83,27.53-4.24,24.42-14.92,50.31-27.6,81.18-28.15,2.82,3.01,5.86,6.26,8.75,9.35,8.67-2.73,16.56-5.22,24.09-7.59,6.04,18.6,11.45,35.25,17.84,54.94-8.94,13.58-15.48,31.07-12.59,51.69,2.52,17.98,10.18,32.1,25.21,41.37,39.83,24.56,81.88,40.57,129.66,27.61,12.68-3.44,24.8-8.97,36.62-15.48-31.49,12.06-63.53,18.05-96.71,10.51-45.54-10.36-64.49-34.96-75.2-73.88-1.57-5.73.5-12.46,1.08-21.95,8.54,6.27,13.93,10.23,21.28,15.62,1.94,24.04,19.23,39.67,42.92,46.8,39.92,12.02,79.79,8.73,117.24-9.99,23.81-11.9,29.57-37.33,16.74-64.18-1.02-2.15-2.37-4.14-3.57-6.2,1.37-1.17,2.74-2.35,4.12-3.52,11.05,12.02,22.11,24.05,32.52,35.37.5-6.47,1.19-15.52,2.07-26.93-24.7-18.88-35.61-56.17-73.78-65.54,1.13-1.73,2.26-3.46,3.4-5.19,6.32.97,12.71,1.6,18.95,2.97,18.25,4.01,36.46,8.27,54.66,12.51,15.33,3.57,27.1,11.47,31.76,27.36,3.74,12.73,7.17,25.54,10.21,36.44-9.97,12.54-18.18,22.88-25.43,31.99,2.78,9.48,7.1,16.61,6.45,23.25-3.65,37.32,18.68,55.75,48.2,69.9,39.09,18.73,100.55.32,122.35-37.15,10.17-17.47,10.54-35.55,1.75-54.02,2.33-3.95,4.58-7.76,6.6-11.2-7.77-10.13-14.96-19.49-23.51-30.63-2.98.25-7.99.67-15.54,1.3-5.4-7.26-11.51-15.48-17.72-23.84,9.63-5.28,16.94-9.29,24.25-13.3.28,1.08.56,2.15.83,3.22,37.61-11.1,75.21-22.19,114.64-33.83,1.1,3.29,2.86,8.53,4.16,12.43-15.79,20.88-42.29,28.96-52.62,54.39,6.25,3.69,10.62,6.27,15.97,9.44.4,2.6.97,5.87,1.4,9.15,3.38,26.08,19.05,42.55,42.71,50.9,42.21,14.9,111.1,1.08,138.5-39.01,3.68-5.38,5.93-11.74,8.84-17.65-.05.07-.1.14-.15.21,17.21-25.42,9.02-50.78-.72-75.97-3.74-9.68-8.48-18.98-14.75-32.83-10.83-.09-24.94-.2-43.02-.34-1.37-2.11-5.15-7.92-9.46-14.55,6.87-4.78,12.18-8.48,17.99-12.53.8-5.76,1.61-11.6,2.39-17.23,66.9-63.25,142.1-114.23,223.71-155.76,29.46-14.99,60.48-25.33,95.31-15.96.98,6.39,1.97,12.8,2.86,18.54,34.48,19.7,71.43,24.66,109.06,26.91,10.02.6,20.04,1.39,30.01,2.56,40.17,4.74,63.86,27.74,73.26,66.89-14.43,12.82-18.79,27.76-7.54,47.2,4.29-7.51,8.01-14.04,11.74-20.57l4.92-.35c4.54,19.46,9.08,38.92,13.24,56.76-7.93,8.62-13.31,14.47-19.39,21.07,2.67,3.16,5.01,5.92,7.87,9.3ZM2360.47,812.87c-2.87,7.64-5.75,15.28-9.9,26.33q-6.37-18.45,9.9-26.33ZM2796.88,694.86c1.94-1.28,3.87-2.56,5.81-3.84,3.03,5.08,6.06,10.16,9.09,15.24-1.1.85-2.21,1.71-3.31,2.57-3.86-4.66-7.72-9.32-11.59-13.97ZM4386.41,266.73c-36.33,21.95-72.98,43.36-109.56,64.89-7.39,6.97-14.78,13.93-22.17,20.9-1.34-1.59-2.68-3.18-4.02-4.77,8.41-5.66,16.81-11.33,25.22-16.99,36.08-25.96,72.17-51.93,108.25-77.89,1.57,1.11,3.13,2.21,4.69,3.32-.74,3.61-.27,9.24-2.41,10.54Z"/>
          <path d="M147.78,1321.24c-28.7-52.07-55.38-100.47-82.44-149.58-6.56,2.78-11.25,4.76-15.94,6.75-.07-1.38-.13-2.76-.2-4.14-20.43-.16-40.88.04-61.29-.6-12.78-.4-26.87,2.57-37.27-10.2,8.75-18.9,21.28-29.97,42.42-32.26,16.43-1.78,32.35-9.26,48.74-10.21,11.76-.68,24.23,4.31,35.82,8.37,23.16,8.12,45.94,17.34,68.88,26.08,4.85,1.85,9.74,3.58,14.74,5.41,4.31,41.31,24.62,74.01,51.41,107.41-20.82,17-41.17,33.61-64.87,52.97Z"/>
          <path d="M286.27,1363.03c7.71-11.59,15.26-23.3,23.3-34.65,1.25-1.76,4.77-1.91,8.3-3.19,4.12,3.82,8.27,7.66,12.82,11.88,22-22.01,43.85,2.42,67.17-.18-37.33,66.21-95.41,110.87-154.54,159.09-6.93-12.25-13.53-23.93-20.53-36.31,14.5-18.01,28.1-34.9,42.32-52.57-12.6-3.21-12.68-3.27-27.98,15.75-6.21,7.72-12.02,15.77-18.01,23.66-2.01-1.7-4.03-3.4-6.04-5.1,18.46-18.46,30.95-42.05,53.69-56.82,2.46,2.82,4.92,5.63,8.73,10,13.67-14.66,26.39-28.3,40.74-43.69-17.83-7.82-21.11,8.2-29.97,12.14Z"/>
          <path d="M105.37,941.51c29.68-16.04,58.83-33.23,89.35-47.46,10.04-4.68,23.9-3.5,35.57-1.86,33.62,4.74,66.73,2.71,99.83-3.62,2.47-.47,5.15.13,10.05.32,3.76,24.37,7.48,48.51,11.44,74.24-80.95-12.52-161.67-31.63-244.76-15.51-.49-2.04-.99-4.08-1.48-6.11Z"/>
          <path d="M433.85,162.45c9.33,5.25,18.48,7.55,23.02,13.42,25.65,33.16,50.19,67.18,77.26,103.8-30.26,8.18-60.49,16.34-95.24,25.73-4.39-43.32-8.72-83.21-12.15-123.17-.44-5.16,3.7-10.72,7.11-19.79Z"/>
          <path d="M187.39,1396.5c-9.3-17.94-16.27-31.37-24.17-46.61,23.3-21.79,46.45-43.44,70.36-65.8,7.17,5.94,13.19,10.92,19.21,15.88,13.36,2.2,26.71,4.42,40.06,6.63.38,1.82.75,3.63,1.13,5.45-34.52,27.35-69.05,54.7-106.59,84.44Z"/>
          <path d="M580.58,324.61c8.7,8.81,15.67,15.86,24.88,25.18-58.7,9.05-114.55,17.65-172.71,26.62,1.89-10.76,3.46-19.72,5.24-29.83,47.78-7.36,95.04-14.64,142.59-21.97Z"/>
          <path d="M910.55,453.51c5.13-.79,10.55-3.09,15.34-2.14,73.27,14.44,146.45,29.3,219.65,44.07-30.16,9.05-195.79-17.22-234.99-41.93Z"/>
          <path d="M1028.83,440.84c-33.65-2.43-67.29-4.87-101.32-7.33,10.52-33.66,48.28-44.97,73.12-23.73,6.48,5.54,13.79,10.12,20.71,15.14,2.49,5.31,4.99,10.62,7.48,15.92Z"/>
          <path d="M436.53,331.29c10.51-15.73,59.84-31.89,110.92-39.07,2.9,2.42,6.65,5.12,9.86,8.36,2.67,2.69,4.69,6.02,8.32,10.81-43.28,6.67-84.35,13-129.1,19.89Z"/>
          <path d="M32.49,1412.2c2.09,8.7,3.8,15.8,5.92,24.63-21.91-.45-17.62-10.58-13.24-21.69-5.26-2.57-10.66-5.21-16.07-7.85.92-.88,1.85-1.76,2.77-2.64-4.21-10.85-8.42-21.69-14-36.06,1.8-6.79,4.62-17.44,7.41-28.02q11.86,2.36,20.01,34.3c5.76,7.8,11.07,14.99,16.26,22.01-4.23,7.14-7.24,12.23-9.07,15.31Z"/>
          <path d="M205.86,1429.81c-5.12-9.45-8.54-15.74-12.23-22.54,33.15-26.34,65.42-51.98,97.7-77.63.91.88,1.82,1.77,2.73,2.65-28.61,31.64-57.23,63.27-88.2,97.52Z"/>
          <path d="M1153.26,483.86c-44.27-8.17-88.53-16.34-132.8-24.51.26-1.4.52-2.79.78-4.19,45.24,2.5,90.94,2.4,132.02,28.7Z"/>
          <path d="M489.78,1817.43c-10.5,19.55-11.99,19.86-46.45,8.78,9-9.43,10.46-25.36,26.18-26.56,11.48-.88,17.88,7.11,20.28,17.78Z"/>
          <path d="M415.05,1191.41c-6.28,5.01-12.17,8.44-16.33,13.33-6.7,7.88-13.99,10.97-22.42,4.3-8.61-6.81-7.07-14.94.24-23.29,5.14-1.16,10.93-2.48,16.73-3.8,3.54-3.85,7.07-7.69,12.29-13.37,3.65,8.77,6.55,15.77,9.49,22.83Z"/>
          <path d="M1408.74,174.67c-9.59-3.02-16.38-5.16-22.87-7.21-1.62-16.15,7.9-24.95,29.11-30.67,6.92-4.31,13.84-8.61,20.77-12.92,1.35,1.79,2.71,3.59,4.06,5.38-3.69,17.99-22.52,20.74-34.37,30.96.89,3.89,1.89,8.28,3.3,14.45Z"/>
          <path d="M157,1516.5c-10.46,2.19-20.47-4.14-21.39-13.75-1.03-10.76,4.2-18.58,14.86-20.3,9.61-1.56,17.2,3.17,19.2,13.25,2.13,10.78-2.69,18.01-12.67,20.8Z"/>
          <path d="M1028.83,440.84c-2.49-5.31-4.99-10.62-7.48-15.92-2.03-3.27-4.06-6.54-6.09-9.81.73-1.07,1.45-2.15,2.18-3.22,18.46,9.75,36.92,19.5,55.38,29.26-.35,1.66-.7,3.32-1.05,4.99-14.31-1.76-28.62-3.52-42.93-5.28Z"/>
          <path d="M306.39,1165.72c-9.12-9.09-17.75-13.82-18.16-19.17-.43-5.62,7.03-11.84,11.04-17.79,5.94,4.03,15.17,7.03,16.87,12.4,1.61,5.11-4.65,12.71-9.75,24.56Z"/>
          <path d="M44.95,1777.99c11.61.16,21.81.3,35.48.49-3.39,9.46-5.69,15.88-7.75,21.65-23.12,3.83-27.37.82-27.73-22.13Z"/>
          <path d="M398.87,1083.04c-5.58,4.21-10.64,10.65-16.87,12.11-8.98,2.1-14.9-4.37-15.6-13.54-.71-9.36,4.63-16.31,13.72-15.3,6.4.7,12.23,6.58,18.31,10.14.15,2.2.29,4.4.44,6.6Z"/>
          <path d="M58.55,1014.56c-7.39,2.85-14.46,7.63-21.31,7.34-3.43-.15-8.83-9.49-8.94-14.76-.08-4.09,6.01-10.79,10.51-11.97,10.03-2.64,15.89,3.68,19.74,19.38Z"/>
          <path d="M445.55,572.94c4.01,3.11,8.02,6.22,12.13,9.41-1.47,5.49-2.77,10.33-4.2,15.69,8.06,3.7,15.28,7.02,22.5,10.33-.35,2.03-.71,4.06-1.06,6.08-9.01-.03-18.03-.06-27.69-.09-2.19-14.23-4.14-26.86-6.09-39.49,1.47-.65,2.94-1.29,4.41-1.94Z"/>
          <path d="M148.11,1597.01c-.92-5.95-1.75-11.32-2.58-16.76,11.35-1.75,20.3-3.13,31.15-4.8.92,5.99,1.7,11.03,2.58,16.76-10.88,1.68-19.83,3.06-31.15,4.8Z"/>
          <path d="M336.78,1538.31c-.46,7.72,1.45,15.72-1.71,19.93-6.02,8.02-15.24,10.26-24.14,2.58-1.84-17.77.32-20.13,25.85-22.51Z"/>
          <path d="M3917.77,103.51c21.84,17,35.84,38.46,40.13,69.74-14.61-25.4-27.37-47.57-40.13-69.74Z"/>
          <path d="M7.99,1038.27c3.26,6.09,8.31,11.91,8.88,18.12.28,3.11-7.26,8.94-11.96,9.83-3.53.67-10.15-3.66-11.94-7.4-4.2-8.81.63-14.93,15.02-20.55Z"/>
          <path d="M155.58,1402.85c5.64,8.85,10.71,14.3,12.38,20.65.66,2.51-6.45,10.15-9.65,9.93-5.98-.41-11.68-4.85-20.36-8.97,6.58-8.06,10.44-12.79,17.62-21.6Z"/>
          <path d="M4132.02,44.59c12.03,6.71,23.15,12.92,36.71,20.48-17.81,3.53-29.75-3.56-38.32-13.85-10.11-12.15-2.67-24.92,5.86-36.7-1.24,8.75-2.48,17.51-4.25,30.07Z"/>
          <path d="M1477.83-21.17c5.44-3.8,9.35-6.53,12.78-8.92,8.92,7.82,16.49,14.46,26.71,23.43-6.22,3.43-10.96,6.04-13.22,7.29-9.59-7.96-16.54-13.73-26.28-21.8Z"/>
          <path d="M3944.47,281.31c-24.41-2.9-29.41-22.14-43.52-33.61,8.35-5.53,15.15-10.04,21.95-14.54.8.95,1.59,1.9,2.39,2.85-4.12,4.6-8.23,9.2-13.6,15.21,10.36,9.51,19.98,18.34,32.78,30.1Z"/>
          <path d="M4351.2-17.24c-15.13,18.06-30.26,36.11-45.39,54.17-1.36-1.1-2.72-2.21-4.08-3.32,14.79-18.6,29.58-37.19,44.38-55.79,1.7,1.64,3.4,3.29,5.1,4.93Z"/>
          <path d="M359.48,1314.03c1.63-7.26,3.23-14.38,4.66-20.76,13.41-.33,20.45,3.4,18.7,13.57-1.64,9.53-9.03,12.34-23.35,7.19Z"/>
          <path d="M435.76,1785.38c5.33,5.52,10.66,11.05,16.72,17.33-13.31,12.94-20.89,10.83-28.8-2.16,4.4-5.42,8.42-10.38,12.44-15.34l-.36.17Z"/>
          <path d="M37.71,1329.03c6.03-3.61,12.05-7.21,18.08-10.82,2.06,1.38,4.13,2.75,6.19,4.13-1.23,6.06-.54,14.79-4.23,17.45-3.8,2.73-11.86-.45-18.05-1.05-.66-3.24-1.33-6.47-1.99-9.71Z"/>
          <path d="M1368.4,143.23c-11.56,7.09-19.86,7.45-25.33-4.88,11.95-13.98,14.54-13.57,25.33,4.88Z"/>
          <path d="M4025.78,222.65c-5.77,13.72-11.53,27.44-17.3,41.16-1.8-.74-3.59-1.47-5.39-2.21,5.6-13.97,11.19-27.95,16.79-41.92,1.97.99,3.93,1.98,5.9,2.97Z"/>
          <path d="M413.3,1480.69c-1.68,9.95-6.61,15.1-14.95,10.16-2.93-1.74-4.8-11.59-2.71-14.27,6.14-7.88,12.43-4.09,17.66,4.11Z"/>
          <path d="M72.68,1537.09c1.7-5.83,3.39-11.65,6.54-22.46,7.52,8.19,11.61,12.63,18.65,20.3-9.57,3.01-14.97,4.71-20.38,6.41-1.6-1.42-3.21-2.83-4.81-4.25Z"/>
          <path d="M259.88,1160.26c-6.18,13.97-12.22,13.51-20.05,2.78,4.5-11.5,10.25-12.89,20.05-2.78Z"/>
          <path d="M366.34,1847.82c-.07,5.84-.14,11.69-.23,19.47-18.11-9.12-18.16-9.55-5.79-19.67,2.01.06,4.01.13,6.02.19Z"/>
          <path d="M3916.09,75.72c-10.12,11.94-17.53,20.69-24.34,28.73-3.18-12.5-.54-16.18,24.34-28.73Z"/>
          <path d="M1479.04,92.05c-4.17,4.51-8.33,9.02-12.5,13.54-1.82-.81-3.64-1.61-5.47-2.42.81-5.37.37-11.48,2.92-15.82,1.36-2.32,7.9-1.59,12.1-2.24.98,2.31,1.96,4.63,2.94,6.94Z"/>
          <path d="M1335.59,136c-5.35,2.81-10.7,5.62-18.47,9.7-.46-18.25,6.66-18.51,15.46-16.06,1.01,2.12,2.01,4.25,3.02,6.37Z"/>
          <path d="M45.6,1535.47c-7.41,18.27-8.04,18.37-21.05,3.24,7.83-1.21,13.47-2.08,21.05-3.24Z"/>
          <path d="M188.33,1309.3c-9.51,8.37-19.02,16.74-28.53,25.11-1.17-1.37-2.34-2.75-3.51-4.12,9.76-7.99,19.52-15.99,29.28-23.98.92.99,1.83,1.99,2.75,2.98Z"/>
          <path d="M3.62,1302.38c2.6-3.77,5.21-7.54,7.81-11.31,3.48,3.08,6.96,6.16,13.33,11.79-8.77,2.04-12.73,2.96-16.69,3.88-1.49-1.45-2.97-2.91-4.46-4.36Z"/>
          <path d="M1472.02,25.68c-4.24,1.07-8.48,2.14-14.47,3.65.11-5.49-.28-10.97.3-11.07,4.61-.82,9.39-.62,14.12-.74.02,2.72.04,5.44.06,8.15Z"/>
          <path d="M418.36,635.37c10.88.92,17.53,1.48,27.33,2.31-10.57,9.56-17.54,11.75-27.33-2.31Z"/>
          <path d="M1572.23,70.07q-12.38,1.72-14.64-10.13c9.38-4.6,14.81-3.32,14.64,10.13Z"/>
          <path d="M1361.9,177.38c-1.31-6.25-2.62-12.5-3.93-18.76,2.2-.56,4.39-1.12,6.59-1.68,1.93,6.2,3.87,12.4,5.8,18.61-2.82.61-5.64,1.22-8.46,1.83Z"/>
          <path d="M1517.4,58.19q-14.49,11.29-18.75-6.61c7,2.47,11.83,4.17,18.75,6.61Z"/>
          <path d="M-18.45,1484.99c5.96-4.74,9.05-7.2,14.99-11.92,1.8,7.32,2.93,11.9,4.06,16.48-1.26,1.01-2.51,2.03-3.77,3.04-4.25-2.11-8.49-4.23-15.27-7.6Z"/>
          <path d="M1378.96,55.93c-8.69,1.34-12.72,1.96-20.02,3.08,2.46-6.64,3.97-10.71,6.39-17.23,4.85,5.04,7.59,7.88,13.63,14.15Z"/>
          <path d="M4272.02,64.09c-2.85-6.98-5.7-13.97-8.55-20.95,1.21-.53,2.42-1.06,3.63-1.58,3.21,6.82,6.42,13.63,9.64,20.45-1.57.69-3.15,1.39-4.72,2.08Z"/>
          <path d="M45.53,1771.93c-7.46-1.79-11.02-2.64-16.05-3.85,2.52-3.91,4.14-6.42,7.16-11.1,3.13,5.26,5.21,8.76,8.9,14.95Z"/>
          <path d="M1543.24,113.62c3.01-3.28,6.02-6.56,9.03-9.84,1.82,1.67,3.63,3.34,5.45,5.01-3.01,3.28-6.02,6.56-9.03,9.84-1.82-1.67-3.63-3.34-5.45-5.02Z"/>
          <path d="M117.39,1372.61c.85-3.37,1.71-6.75,2.56-10.12,1.71.37,3.43.74,5.14,1.1-.33,3.25-.66,6.5-1,9.76-2.24-.25-4.47-.49-6.71-.74Z"/>
          <path d="M1540.85,50.18c-5.08,2.42-10.17,4.84-15.25,7.27-.57-1.08-1.14-2.16-1.71-3.24,4.89-2.7,9.78-5.4,14.67-8.09.77,1.36,1.53,2.71,2.3,4.07Z"/>
          <path d="M4297.41,241.95c3.83-2.02,7.66-4.04,11.49-6.07.54.99,1.09,1.98,1.63,2.97-3.76,2.14-7.52,4.28-11.28,6.42-.61-1.11-1.22-2.21-1.84-3.32Z"/>
          <path d="M296.19,1878.39c9.45-5.16,11.92-1.31,12.64,4.81-1.75,1.69-3.5,3.38-5.25,5.08-2.32-3.49-4.64-6.98-6.95-10.47l-.43.58Z"/>
          <path d="M219.32,1608.14c-1.8,3.03-3.6,6.06-5.4,9.09-1.73-.79-3.45-1.58-5.18-2.37,1.32-3.38,2.64-6.77,3.96-10.15,2.21,1.14,4.41,2.29,6.62,3.43Z"/>
          <path d="M4041.18,354.37c2.19-3.18,4.37-6.35,6.56-9.53.87.46,1.74.93,2.61,1.39-1.6,3.51-3.2,7.01-4.79,10.52-1.46-.79-2.92-1.59-4.38-2.38Z"/>
          <path d="M1041.18,19.51c-.15-3.53-.31-7.05-.46-10.58,1.66-.25,3.32-.49,4.97-.74.89,3.42,1.77,6.83,2.66,10.25-2.39.36-4.78.72-7.18,1.08Z"/>
          <path d="M108.71,876.4c-3.49-.23-6.99-.45-10.48-.68.02-1.77.05-3.54.07-5.31,3.38-.33,6.76-.66,10.14-.99.09,2.33.18,4.65.27,6.98Z"/>
          <path d="M478.74,1467.66c-2.53,2.53-5.07,5.06-7.6,7.6-1.05-.93-2.11-1.86-3.16-2.79,1.98-2.85,3.95-5.7,5.93-8.55,1.61,1.25,3.22,2.49,4.83,3.74Z"/>
          <path d="M1379.46,122.92c1.62-2.81,3.25-5.62,4.87-8.43,1.48.79,2.96,1.59,4.44,2.38-1.51,2.87-3.01,5.75-4.52,8.62-1.59-.86-3.19-1.72-4.78-2.57Z"/>
          <path d="M1705.44,1633.38c17.58,1.55,33.36,2.95,49.14,4.34.15,1.29.3,2.59.46,3.88-14.09,1.36-28.19,2.71-43.79,4.22-1.72-3.69-3.74-8.01-5.8-12.44Z"/>
          <path d="M2848.07,1164.88c-4.46,2.46-8.73,5.37-13.4,7.33-72.82,30.47-145.59,61.08-218.66,90.94-11.58,4.73-24.49,6.46-36.95,8.73-67.28,12.23-135.01,22.45-203.43,21.42-24.79-.37-47.2,2.71-69.43,13.01-4.19-2.3-8.18-4.49-11.86-6.51-11.6,3.07-14.95,12.62-9.92,26.55-7.63,5.89-15.17,11.72-26.29,20.3,1.97-12.23,3.44-21.33,4.91-30.44-1.36-.27-2.71-.54-4.07-.82-5.41,21.52-10.82,43.04-16.22,64.56,3.11-76.74,19.26-151.08,40.48-223.85q7.55,6.2-4.93,48.44c1.52,11.42,10.09,13.04,19.16,12.98,33.44-.22,66.9-.1,100.31-1.27,116.18-4.04,229.68-29.28,344.52-44.01,29.89-3.83,59.88-6.97,89.84-10.19,5.06-.54,10.26.09,15.39.18.18.88.37,1.76.55,2.65Z"/>
          <path d="M2177.32,1398.73c11.04-32.87,22.08-65.74,31.85-94.85-5.03-15.47-8.67-26.66-13.58-41.75-13.84.32-28.56.66-44.18,1.02,5.16-27.15,4.56-56.56,21.28-82.24-1.06,7.66-2.13,15.32-3.45,24.85,15.59,2,31.3,4.01,47.29,6.06,16.93-13.81,17.89-32.56,20.56-56.12-10.9,9.8-18.11,16.29-25.33,22.78-.65-.64-1.31-1.29-1.96-1.93,8.72-9.5,17.44-19,26.15-28.49,1.47.5,2.94.99,4.41,1.49.31,10.18.62,20.36.96,31.48,6.06.96,12.3,1.96,20.99,3.34-4.66,22.93-9.11,44.81-13.83,68.02-7.07-.14-13.42-.27-21.81-.43-12.18,50.75-23.54,101.7-49.37,146.78Z"/>
          <path d="M2950.13,1160.99c-89.6,29.83-175.69,58.48-261.78,87.14-.36-.81-.72-1.62-1.08-2.43,3.98-2.15,7.82-4.64,11.97-6.39,50.59-21.21,101.38-41.97,151.81-63.57,30.62-13.12,61.61-21.93,99.08-14.75Z"/>
          <path d="M3016.76,1174.8c-13.72-.76-27.45-1.51-42.57-2.35-.82,2.97-1.81,6.53-2.76,9.95-56.01,14.35-112.32,28.78-168.62,43.21-.29-.93-.58-1.85-.87-2.78,30.89-10.08,61.73-20.32,92.68-30.19,25.9-8.25,51.91-16.15,77.92-24.02,15-4.54,30.01-6.14,44.59,1.06-.12,1.7-.24,3.4-.37,5.11Z"/>
          <path d="M1650.42,657.45c-6.11-11.12-11.06-20.12-17.02-30.95,19.57-3.02,36.42-5.61,54.82-8.45,1.86,2.77,4.23,6.33,7.87,11.76-15,9.08-28.99,17.54-45.67,27.64Z"/>
          <path d="M1623.18,601.47c17.19-4.72,34.38-9.44,52.48-14.41,2.33,3.93,4.59,7.73,6.46,10.88-2.16,9.79-45.68,15.47-57.98,8.54-.32-1.67-.64-3.34-.96-5.01Z"/>
          <path d="M1663.78,664.7c11.7-6.72,23.4-13.44,37.08-21.3,2.93,4.98,5.61,9.52,9.77,16.59-16.43,4.54-30.25,8.35-44.07,12.16-.93-2.48-1.85-4.97-2.78-7.45Z"/>
          <path d="M3034.9,1185.4c22.56-6.63,28.01-5.54,51.29,8.95-20.58,12.02-35.28-2.52-51.29-8.95Z"/>
          <path d="M2092.51,1299.08c-2.45,20.5-4.9,40.99-7.35,61.49-2.04-.27-4.09-.55-6.13-.82,2.62-20.34,5.25-40.69,7.87-61.03,1.87.12,3.74.24,5.61.36Z"/>
          <path d="M1634.49,671.96c-7.55-13.89-15.1-27.79-22.65-41.68,1.91-1.06,3.82-2.11,5.74-3.17,7.72,13.69,15.44,27.39,23.17,41.08-2.09,1.26-4.17,2.51-6.26,3.77Z"/>
          <path d="M2157.73,1402.84c-1.92,10.09-3.83,20.19-5.75,30.28-1.41-.24-2.82-.48-4.22-.72,1.77-10.12,3.53-20.23,5.3-30.35,1.56.26,3.11.52,4.67.79Z"/>
          <path d="M3168.9,1237.5c-2.76,6.08-4.24,9.35-6.3,13.87-4.5-3.48-7.96-6.17-13.9-10.76,7.63-1.18,12.46-1.92,20.19-3.11Z"/>
          <path d="M1522.64,520.71c3.54-4.26,7.08-8.52,10.62-12.78,1.47,1.02,2.94,2.03,4.41,3.05-3.13,4.55-6.27,9.11-9.4,13.66-1.88-1.31-3.76-2.62-5.63-3.94Z"/>
          <path d="M1633.3,700.53c-2.98,5.48-5.96,10.96-8.94,16.44-1.52-.7-3.04-1.4-4.55-2.1,2.65-5.68,5.29-11.37,7.94-17.05,1.85.91,3.7,1.81,5.55,2.72Z"/>
          <path d="M1918.83,1031.34c-4.07,2.73-8.14,5.45-12.2,8.18-1.12-1.56-2.24-3.11-3.36-4.67,3.87-2.89,7.75-5.77,11.62-8.66,1.31,1.71,2.63,3.43,3.94,5.14Z"/>
          <path d="M1766.22,883.8c-.78,4.23-1.57,8.47-2.35,12.7-1.63-.3-3.26-.6-4.9-.9.83-4.23,1.66-8.46,2.49-12.68,1.59.29,3.17.59,4.76.88Z"/>
          <path d="M1698.37,813.9c2.03-3.65,4.06-7.3,6.09-10.95,1.36.72,2.72,1.44,4.08,2.17-1.92,3.74-3.83,7.48-5.75,11.23-1.47-.81-2.94-1.63-4.42-2.44Z"/>
          <path d="M1724.63,853.37c3.16-2.15,6.31-4.3,9.47-6.45.88,1.06,1.76,2.11,2.63,3.17-2.81,2.65-5.61,5.29-8.42,7.94-1.23-1.55-2.45-3.11-3.68-4.66Z"/>
          <path d="M3676.59,434.77c-10.76-8.53-21.52-17.06-30.62-24.28-63.02,29.39-86.72,64.32-72.21,102.7,17.73,13.08,37.17-.69,55.66,2.18.37,1.57.74,3.15,1.11,4.72-17.61,4.4-35.23,8.8-53.98,13.48,16.34,12.95,17.71,12.67,77.48-12.48-2.61,2.86-4.7,6.7-7.92,8.39-11.84,6.21-23.63,12.99-36.22,17.21-35.35,11.84-65.35-12.58-58.91-49.06,7.26-41.1,32.41-70.2,69.51-87.98,15.61-7.48,33.1-7.87,46.93,5.65,5.05,4.93,7.72,12.29,11.48,18.54-.77.31-1.53.62-2.3.92Z"/>
          <path d="M3647.57,451.53c2.26-5.34,4.02-9.49,6.42-15.13,1.43,2.83,3.03,4.46,2.79,5.74-5.84,30.43-26.66,48.58-52.56,61.63-5.29,2.66-13.17.17-20.14.05,3.76-34.46,34.27-59,63.5-52.29ZM3604.33,483.03c-2.4-.75-4.81-1.5-7.21-2.24-1.6,5.12-3.19,10.23-4.79,15.35,2.1.73,4.19,1.46,6.29,2.19,1.9-5.1,3.81-10.19,5.71-15.29Z"/>
          <path d="M3745.52,699.56c10.04-10.4,20.08-20.81,30.12-31.21.98.8,1.96,1.6,2.93,2.4-8.83,10.68-17.65,21.37-26.42,31.97-7.44.07-13.93.13-19.78.18,15.38-38.33,30.75-76.67,46.01-114.71,4.82,41.14-22.73,72.93-37.15,108.73,1.43.88,2.85,1.75,4.28,2.63Z"/>
          <path d="M3323.62,779.99c-8.58,2.78-17.15,5.55-25.73,8.33-.6-1.7-1.2-3.4-1.8-5.1,8.52-3.08,17.05-6.16,25.58-9.24.65,2.01,1.31,4.01,1.96,6.02Z"/>
          <path d="M2759.81,824.43c9.2-.68,18.41-1.35,27.61-2.03.2,2.12.4,4.24.6,6.35-8.95.62-17.9,1.25-26.84,1.87-.46-2.07-.91-4.13-1.37-6.2Z"/>
          <path d="M2987.96,842.03c-6.22,2.33-12.44,4.65-18.66,6.98-.75-1.98-1.5-3.95-2.26-5.93,6.31-2.11,12.63-4.23,18.94-6.34.66,1.77,1.32,3.53,1.98,5.3Z"/>
          <path d="M2284.66,1022.7c-5.49.85-10.99,1.69-16.48,2.54-.28-1.87-.57-3.73-.85-5.6,5.45-.56,10.91-1.11,16.36-1.67.32,1.58.64,3.15.97,4.73Z"/>
          <path d="M3712.36,534.19c2.74-4.37,5.49-8.74,8.23-13.11,1.48.78,2.97,1.56,4.45,2.34-2.14,4.54-4.27,9.08-6.41,13.62-2.09-.95-4.18-1.9-6.28-2.85Z"/>
          <path d="M3508.51,1133.46c3.92-.34,7.84-.69,11.76-1.03.26,1.51.52,3.01.78,4.52-3.64,1.06-7.27,2.11-10.91,3.17-.54-2.22-1.09-4.44-1.63-6.66Z"/>
          <path d="M3418.97,737.48c3.74-1.71,7.49-3.43,11.23-5.14.63.81,1.25,1.62,1.88,2.44-1.75,1.85-3.24,4.14-5.34,5.43-1.84,1.13-4.38,1.15-6.6,1.65-.39-1.46-.78-2.92-1.17-4.37Z"/>
          <path d="M3648.74,583.64c-2.19,3.29-4.38,6.58-6.57,9.87-1.15-.64-2.31-1.29-3.46-1.93,1.89-3.65,3.77-7.3,5.66-10.95,1.46,1,2.92,2,4.38,3Z"/>
          <path d="M3538.97,679.52c-2.91,2.6-5.82,5.21-8.74,7.81-.91-1.03-1.82-2.06-2.73-3.09,2.94-2.57,5.88-5.14,8.83-7.71.88.99,1.76,1.99,2.64,2.98Z"/>
          <path d="M2424.62,956.74c-2.69,2.73-5.38,5.46-8.07,8.19-.89-.89-1.78-1.77-2.68-2.66,2.71-2.71,5.42-5.42,8.13-8.13.87.87,1.75,1.74,2.62,2.61Z"/>
          <path d="M3077.91,830.96c3.57.6,7.15,1.2,10.72,1.79-.23,1.36-.46,2.72-.68,4.08-3.58-.57-7.16-1.15-10.74-1.72.23-1.38.47-2.77.7-4.15Z"/>
          <path d="M3757.01,490.72c2.33-2.44,4.65-4.89,6.98-7.33.95.68,1.89,1.36,2.84,2.04-1.84,2.86-3.67,5.71-5.51,8.57-1.44-1.09-2.87-2.19-4.31-3.28Z"/>
          <path d="M2375.16,991.26c2.46-2.65,4.91-5.3,7.37-7.95.87.69,1.74,1.37,2.61,2.06-2.04,2.95-4.07,5.9-6.11,8.86-1.29-.99-2.58-1.98-3.87-2.97Z"/>
          <path d="M3682.23,462.61c-.16,3.39-.31,6.79-.47,10.18-1.42-.1-2.84-.19-4.26-.29.27-3.38.53-6.77.8-10.15,1.31.09,2.62.17,3.93.26Z"/>
          <path d="M1345.01,1308.55c-3.32,13.26-6.65,26.52-9.37,37.38-24.61,10.31-27.35,9.8-44.16-8.34,9.3-10.86,18.91-22.1,28.62-33.44,2.05-22.23-10.27-39.96-18.67-58.51-9.63-21.26-11.88-39.79,4.94-59.17,10.26-11.83,16.49-27.1,25.11-40.45,2.78-4.31,7.45-7.38,11.15-11.13,10.09-10.24,19.73-20.97,30.37-30.6,4.62-4.18,10.99-7.99,17-8.81,25.62-3.5,51.38-6.06,77.13-8.38,6.51-.59,13.22.95,19.25,3.8-33.04,5.09-66.09,10.18-105.53,16.26-29.33,22.9-51.83,60.32-75.8,100.33-3.08,23.84,7.66,44.5,28.21,61.88-1.28,1.27-2.32,2.74-3.74,3.6-1.62.98-3.57,1.42-5.46,2.13.58,15.4,1.15,30.56,1.68,44.87-10.97,4.98-19.85,9.01-29.67,13.47,16.6,20.67,28.5,19.98,38.18.78,4.16-8.25,7.46-16.92,11.16-25.4l-.4-.27Z"/>
          <path d="M1345.41,1308.81c3.29-8.6,6.58-17.21,11.04-28.86-.58-2.3-2.01-7.97-4.33-17.21,11.99,1.77,21.93,3.24,29.85,4.4,43.5-13.91,85.6-27.37,127.7-40.84.27-1.08.53-2.17.8-3.25-23.69-4.48-47.38-8.96-71.07-13.45,60.09,4.45,119.22,13.72,176.76,31.18-.54,2.51-1.08,5.03-1.62,7.54-6.28-1.98-12.81-3.4-18.8-6.04-16.3-7.19-32.9-8.25-50.5-6-9.5,1.22-19.69-3.34-29.26-2.34-33.57,3.51-65.51,13.05-95.67,28.58-11.23,5.78-22.98,10.86-35,14.72-17.47,5.61-30.01,16.8-40.29,31.28l.4.27Z"/>
          <path d="M1481.96,1150.9c-3.57-.92-7.14-1.83-10.7-2.75.29-1.54.58-3.09.87-4.63,3.74.62,7.49,1.24,11.23,1.86-.47,1.84-.94,3.68-1.4,5.52Z"/>
          <path d="M1420.3,1148.74c-4.13,1.79-8.26,3.58-12.38,5.37-.48-1.12-.97-2.24-1.45-3.36,4.11-1.83,8.22-3.65,12.33-5.48.5,1.16,1,2.31,1.51,3.47Z"/>
          <path d="M1714.11,1301.15c-2.62,1.98-5.24,3.96-7.86,5.94-.97-1.1-1.94-2.19-2.91-3.29,2.52-2.26,5.05-4.52,7.57-6.77,1.07,1.38,2.13,2.75,3.2,4.13Z"/>
          <path d="M524.7,1030.24c5.52,35.8,11.03,71.61,17.15,111.27-8.86-4.3-13.24-6.43-18.66-9.06-6.91,1.06-14.69,2.26-21.99,3.39-11.26-19.06-52.11-249.34-46.24-267.14,4.34,11.68,7.81,21.02,11.28,30.36,1.04-.08,2.07-.16,3.11-.24,2.37-10.58,4.73-21.15,7.49-33.48,20.94-8.73,42.39-17.68,63.59-26.52,15.66,30.14,16.87,89.74,4.77,136.74,12.63,37.8,24.51,73.39,36.4,108.98-1.72.99-3.44,1.97-5.17,2.96-22.79-13.11-29.07-40.58-46.29-58.53-1.82.42-3.64.84-5.45,1.26ZM509.44,886.43c3.39,32.04,6.67,63.06,9.95,94.08,2.3-.1,4.6-.21,6.9-.31,10.65-31.81,1.74-64.66,6.42-99.15-10.06,2.33-15.64,3.62-23.26,5.39Z"/>
          <path d="M642.04,853.35c6.09-4.13,12.63-8.56,20.09-13.61,3.66,2.32,7.43,4.71,11.98,7.59,4.26-1.59,9.1-3.41,15.2-5.69,4.52,15.89-13.3,32.86,4.27,47.14-2.55,4.86-5.18,9.88-8.13,15.51,4.36,3.95,8.15,7.4,14.45,13.12-6.33.69-9.93,1.09-13.49,1.48-14.11,46.95-19.81,96.06-36.87,147.24-15.63-10.74-27.77-19.08-41.98-28.85-13.22-52.37-26.77-106.01-40.32-159.66,1.35-.34,2.71-.69,4.06-1.03,4.46-7.04,8.92-14.09,13.57-21.43,6.42,4.03,12.87,8.08,18.33,11.51,2.37,57.09,14.15,111.69,28.12,166.53,16.59-2.41,17.68-14.83,17.96-25.66.66-25.41.51-50.89-.72-76.28-1.22-25.23-4.14-50.39-6.51-77.89Z"/>
          <path d="M712.07,840.91c9.16-.98,15-1.61,23.51-2.53,9.48,23.83,19.01,47.77,28.53,71.71,1.78-.57,3.56-1.14,5.34-1.71,5.4-23.58-11.39-47.07-4.44-70.12,17.59-.95,32.56-1.76,51.22-2.77-4.41,7.33-7.79,12.95-12.42,20.65.05,28-.35,58.06.37,88.1.36,14.97-10.14,20.31-21.45,28.95-17.72-17.39-24.93-40.64-39.23-64.33-6.31,41.78,3.84,81.98-15.25,119.37-8.36-1.91-16.44-3.75-24.85-5.67,16.17-41.21,2.97-81.93,5.91-121.96,1.41-19.21,1.8-38.5,2.74-59.68Z"/>
          <path d="M858.02,921.56c-7.46,6.15-14.91,12.29-22.92,18.9-11.56-11.36-4.38-23.65-6.92-36.02,12.48,1.18,25.46-3.17,29.84,17.12Z"/>
          <path d="M1232.51,823.9c12.61,2.63,20.82,4.35,31.99,6.68q-17.89,8.23-31.99-6.68Z"/>
          <path d="M1270.76,953.69c-3.84,2.79-7.68,5.58-11.52,8.37-.91-1.27-1.83-2.53-2.74-3.8,3.88-2.74,7.75-5.48,11.63-8.22.88,1.22,1.75,2.43,2.63,3.65Z"/>
        </g>
      </g>
    </g>
  </g>
</svg>