<?xml version="1.0" encoding="UTF-8"?>
<svg id="Layer_2" data-name="Layer 2" xmlns="http://www.w3.org/2000/svg" viewBox="0 0 1520.4 1254.41">
  <defs>
    <style>
      .cls-1 {
        fill: red;
      }

      .cls-2 {
        opacity: .5;
      }
    </style>
  </defs>
  <g id="Layer_1-2" data-name="Layer 1">
    <g class="cls-2">
      <path class="cls-1" d="M1359.48,1163.63c.47-1.49.92-2.98,1.38-4.47-2.12-.44-4.32-.89-6.78-1.4.14-3.24.3-7.05.46-11.01,2.34-.54,4.03-.94,6.2-1.44,1.18-2.82,2.4-5.76,3.93-9.44-4.38.5-7.54.87-11.27,1.29-.83,7.53-3.75,14.22-11.81,18.57-11.04-2.28-22.93-4.73-35.51-7.32-.37-9.03,1.88-17.68,6.79-25.84,5.58-9.28,10.06-19.28,16.29-28.07,11-15.52,17.67-33.05,25.25-50.18,4.81-10.88,9.71-21.77,13.56-33,4.51-13.2,7.96-26.76,11.79-40.19,2.26-7.9,4.27-15.88,6.62-23.76.56-1.87,1.62-3.98,3.11-5.14,17.1-13.24,23.93-32.19,24.93-52.23.94-18.83,7.24-35.66,12.61-53.06,2.06-6.67,3.96-13.39,6.02-20.39-.54-2.45-1.14-5.18-1.78-8.09,1.78-1.68,3.43-3.23,4.18-3.94,7.33-35.56,14.45-70.08,21.77-105.6,1.01-.59,2.97-1.72,5.62-3.26.75-3.64,1.75-7.63,2.36-11.69.57-3.82.73-7.71,1.1-12-3.12-3.07-6.35-6.25-9.52-9.38,6.97-8.09,4.61-18.01,7.04-26.98,2.49-.31,4.94-.61,8.54-1.05-.02,8.04,3.79,14.07,10.1,18.57.48,2.81.95,5.52,1.41,8.19,3.15,1.17,5.93,2.2,8.01,2.98-1.73,3.25-3.22,6.05-5.17,9.71-.39.19-1.97.98-3.18,1.58.95,4.53,1.67,7.94,2.4,11.42,1.5,3.1,3.07,6.33,5.02,10.33,7.45-22.43,15.29-44.65,23.5-66.68-1.85-2.95-3.52-5.61-5.67-9.04,4.05-.35,6.73-.78,9.32-.79.76-2.02,1.54-4.03,2.31-6.05-2.64-.36-5.29-.66-7.95-.84-20.52-1.36-41.09-2.04-61.64-2.99l-.5.96c2.94,1.25,5.87,2.51,9.07,3.88-7.37,5.35-15.95-8.2-22.05,2.35-2.52-.52-5.21-.36-6.98-1.56-8.24-5.55-17.57-8.31-27.05-10.02-21.4-3.85-43.05-6.41-64.38-10.59-26.16-5.13-52.19-11.06-78.14-17.21-29.22-6.92-58.62-13.41-87.36-22.01-35.51-10.63-69.7-24.94-101.69-43.47-1.69.65-3.02,1.15-4.52,1.72-22.85-14.59-45.52-29.05-68.27-43.57,2.43-10-4.3-15.36-9.58-21.62,6.99-11.05,7.13-23.18,5.65-35.4-1.06-8.7-3.99-17.3-4.01-25.95-.02-8.76-3.91-14.51-10.37-18.63-5.56-3.55-12.06-5.61-18.28-8.4,2.49-13.83,5.03-28.44,7.78-43.01,2.79-14.76,5.76-29.5,8.74-44.22,2.98-14.73,5.91-29.47,9.18-44.13,3.18-14.29,6.76-28.5,10.16-42.74.61.14,1.22.27,1.83.41-.03,8.77-.56,17.59.06,26.31.62,8.77.04,18.16,6.9,25.68,2.54-1.02,4.48-1.8,6.34-2.55,5.23,11.74,10.26,14.83,19.07,10.95,1-22.85-4-44.92-12.5-66.59,14.14,15.3,31.83,25.09,50.12,35.21.68-3.31,1.33-6.43,1.93-9.39,1.95-1.42,3.69-2.54,5.27-3.85,9-7.39,8.46-12.48-1.93-17.91-8.49-4.43-17.19-8.47-25.5-13.2-10.7-6.09-21.09-12.69-32.05-19.33,7.68-14.12,16.69-26.08,28.45-37.56,1.07,15.42,1.07,29.97,15.84,37.91,9.14-8.64,9.69-52.89,2.03-66.3-5.47-2.88-10.4-5.48-16.44-8.66-17.13,9.51-20.23,29.53-28.48,46.07l-2.55-.92c1.77-8.57,3.53-17.15,5.3-25.72,1.77-8.61,3.55-17.21,5.2-25.22,12.12-10.89,33.33-60.58,30.84-71.7-4.68-2.46-8.4.03-11.97,2.65-9.92,7.27-16.15,17.43-21.25,28.27-3.18,6.77-4.27,14.82-8.48,20.74-8.69,12.2-11.4,25.88-12.86,40.07-1.21,11.81-1.77,23.69-2.61,35.54-2.25-2.75-3.58-5.58-4.16-8.55-2.08-10.66-3.53-21.47-5.94-32.05-2.16-9.47-.39-17.73,4.34-26.04,3.23-5.67,5.18-12.07,7.71-18.15-4.35-3.01-7.48-5.18-10.24-7.1-14.59,3.1-23.15,13.42-23.32,27.52-.12,10.5,2.21,20.48,5.71,30.35,2.63,7.41,4.39,15.14,6.54,22.72-.51.17-1.02.33-1.53.5-3.78-6.69-7.61-13.34-11.31-20.07-3.53-6.4-8.82-8.52-15.68-6.44-3.37,1.02-6.58,2.58-9.59,3.78-5.02,15.54-6.81,30.59-4.63,45.97.39,2.75,2.15,5.31,3.26,7.9q5.59-2.17,15.81-21.43c10.07,8.71,20.13,17.4,31.43,27.17-4.53,1.16-7.47,1.78-10.34,2.66-12.86,3.95-25.75,7.81-38.5,12.09-3.07,1.03-5.65,3.52-7.95,5.01,2.39,5.19,4.1,8.89,5.8,12.6-.46.3-.92.6-1.38.89-2.53-1.53-5.07-3.06-7.32-4.42-16.06,6.22-24.11,23.76-14.26,32.99,3.38-1.97,7.27-3.85,10.74-6.32,17.47-12.46,34.8-25.11,52.25-37.58,1.58-1.13,3.71-1.5,5.58-2.22.17.35.34.7.51,1.05,2.25-1.63,4.5-3.26,7.61-5.51,1.78,4.37,3.28,8.06,4.71,11.58-2.09,6.68-4.49,12.74-5.86,19.02-5.31,24.29-10.25,48.65-15.45,72.96-.54,2.53-1.91,4.88-3.29,8.29,1.25,3.59-2.3,26.08-6.97,40.11-1.11-2.09-2.2-4.12-3.52-6.6q-3.57,9.01-1.69,14.54c1.5-1.19,2.85-2.26,4.39-3.48-1.7,8.24-3.29,15.95-4.88,23.67-.67-.08-1.35-.16-2.02-.23.31-3.63.62-7.26.93-10.89l-1.77-.35c-1.54,5.08-3.08,10.16-4.74,15.62-1.89-.88-3.22-1.51-4.71-2.21-1.77,1.75-3.58,3.53-5.21,5.14-18.41-2.12-36.74,13.53-39.64,31.03-17.87,15.66-29.48,34.8-35.56,57.32-13.19-5.25-14.24-5.06-21.3,3.73-8.82-5.47-16.64-3.58-23.29,3.84-3.39-.15-6.49-.3-9.59-.42-17.2-.69-34.4-2.04-51.59-1.9-31.04.26-62.08,2.07-93.11,2.04-50.22-.04-100.44-.99-150.67-1.64-29.77-.39-59.54-.73-89.31-1.46-55.9-1.37-111.8-3.27-167.37,5.44-1.96.31-3.98.17-5.48.22-1.86-4.8-3.49-9.01-4.88-12.58-2.53-.25-4.98.19-6.65-.76-13.59-7.7-28.13-6.19-42.46-4.09-4.02.59-8.03,1.24-12.03,1.9-1.25,1.77-2.46,3.56-3.7,5.33,3.84-1.61,7.84-2.53,12.13-3.24,6.37-1.04,12.85-1.77,19.29-1.94,7.15-.19,14.53-.67,20.32,3.42-5.09,7.65-10.24,14.92-14.88,22.5-5.77,9.41-8.38,20.83-17.91,27.83-.3.22-.23.95-.37,1.64.86,1.87,1.8,3.91,2.82,6.11-5.28,14.27-10.51,28.4-16.2,43.78-.3,1.45-.71,4.4-1.52,7.23-8.16,28.31-16.38,56.6-24.6,84.89-.5,1.73-.63,3.99-1.8,5.04-6.78,6.05-6.65,13.88-6.65,21.97,0,6.17-.97,12.33-1.5,18.5-.63-.04-1.26-.07-1.89-.11-.25-4.34-.49-8.68-.74-13.03-5.44,5.74-4.4,11.97-2.44,17.67,3.39,9.87-1.01,18.32-2.84,28.71-2.21-3.83-2.29-8.73-7.81-4.71,1.83,3.99,3.6,7.84,5.69,12.38-.84,4.1-1.89,9.15-2.79,13.55-2.87,2.68-5.22,4.86-7.63,7.11,1.81,2.32,3.04,3.9,4.69,6.03-8.07,29.26-16.17,58.65-24.26,87.97-7.08-1.51-7.69-1.04-12.2,8.6,1.85,2.35,3.87,4.91,6.38,8.11-3.41,8.65-6.87,17.43-10.23,25.93-3.52-.42-5.81-.69-7.32-.87-24.27-19.75-47.63-39.5-75.74-52.39-4.7-2.16-9.43-4.27-14.14-6.39-.36,1.2-.71,2.4-1.07,3.6,27.71,12.56,53.33,28.54,76.6,48.37,1.37,1.17,3.58,2.13,3.96,3.56,1.81,6.94,7.57,7.56,12.92,8.52.67,2.13,1.24,3.95,1.81,5.77.58.16,1.16.32,1.73.48,2.27-4,4.55-7.99,6.95-12.23,2.51,1.33,4.72,2.62,7.02,3.71,11.04,5.2,22,.88,26.57-10.55,1.63-4.09,2.74-8.38,4.39-12.46,1.41-3.49,3.24-6.81,5.19-10.86,16.26,4.82,32.55,6.35,48.5,13.14,24.52,3.05,48.53,12.66,74.7,18.27-4.68.18-8.07.31-11.46.44-.05.87-.1,1.74-.15,2.61,3.34.86,6.69,1.7,10.03,2.58,21.53,5.61,43.12,11.03,64.57,16.91,16.47,4.51,32.94,9.16,49.14,14.56,20.49,6.84,43.2,8.47,59.67,24.96,2.57-1.18,4.83-2.23,7.43-3.43,10.18,6.81,24.25,4.67,32.98,15.26,1.22-.71,2.47-1.44,4.13-2.42,3.51,1.77,7.15,3.6,10.79,5.43.12-.4.24-.8.36-1.2,23.8,8.44,47.61,16.89,70.79,25.11.86,2.4,1.37,3.82,2.18,6.07,9.35,2.57,18.99,5.22,31.92,8.77,16.6,10.23,21.9,32.16,33.89,50.27-3.88,6.44-7.47,12.37-11.03,18.33-1.48,2.48-3.32,5.09,1.16,6.38-4.12,7.18-2.53,13.94,2.21,19.99,4.92,6.26,11.76,8.33,19.48,6.66,8.99-1.95,14.78-8.08,19.4-15.61,3.5-5.72,6.78-11.62,10.73-17.02,3.6-4.92,5.12-10.13,4.32-16.02-.62-4.61-1.06-9.34-2.51-13.72-5.43-16.4-11.24-32.68-17.13-49.65,5.12-5.66,11.92,1.2,17.72-2.94,2.84,9.48-1.17,24.09,16.24,19.35,8.13,9.78,16.2,19.5,24.15,29.07-1.19,2.29-2.14,4.11-3.69,7.08,3.47-1.07,5.56-1.72,7.49-2.32,6.68,7.62,13.06,14.9,20.34,23.2-.66,1.44-1.93,4.19-3.75,8.13,4.06-1.42,6.9-2.41,10.19-3.57,10.63,9.52,22.97,13.8,37.34,8.44.16,4.39.03,7.77.45,11.08,1.78,14.08,11.55,20.9,24.83,15.9,7.02-2.64,12.92-8.26,19.3-12.56,2.31-1.55,4.38-4.15,6.87-4.61,17.82-3.33,35.71-6.35,53.97-3.74,3.48.5,6.18,1.77,7.49,5.53-2.71,1.1-4.96,2.02-8.71,3.55,10.56,6.29,20.71,5.77,30.35,4.99,2.55,3.55,4.65,6.46,7.17,9.97,4.4-.91,8.72-1.81,14.14-2.93-.78,6.44-1.54,12.68-2.25,18.54-39.32,9.27-70.89,30.48-100.31,53.06-.7,3.41-1.1,5.17-1.43,6.94-2.5,13.82,2.75,21.58,16.51,24.77,2.67.62,5.17,1.99,8.26,3.22,6.64-3.01,13.71-6.21,24.15-10.94,11.74-10.42,25.36-24.94,45.79-29.01.73-.15,1.41-.64,2.09-1.03,8.07-4.6,16.14-9.21,24.2-13.82.15.51.29,1.02.44,1.54,4.47-1.22,9.6-1.42,13.3-3.83,14.88-9.72,29.31-20.13,43.24-29.82,25.05,1.89,48.56,3.67,70.2,5.3,7.77,7.01,32.97,9.07,40.06,5.77,14.19,1.87,26.61,3.7,39.07,5.09,7.11.79,14.36.42,21.45,1.34,14.13,1.82,28.21,4,42.26,6.37,9.07,1.53,18.04,3.65,27.26,5.55-1.1,8.37-2.72,16.64,2.91,24.83,5.72,1.18,11.91,2.45,18.14,3.74,4.43-6.83,8.49-13.1,12.61-19.47,1.13.92,2,1.63,2.08,1.69,14.3-4.62,26.47,2.19,40.22,3.64-1.77,8.61-3.34,16.21-4.62,22.4-16.08,23.69-29.44,47.31-39.07,73.3,5.67-.33,8.48-4.04,8.38-8.66,7.01-12.3,13.36-23.44,20.43-35.83,0-.12-.09-1.88-.16-3.48,2.83-1.62,5.38-3.09,8.48-4.86-.32,3.22-.8,5.75-.78,8.28.06,7.32-.34,14.73.17,22,1.36-2.93,2.73-5.86,4.09-8.79-.07-5.22.15-10.44.77-15.56,1.34-11.15,4.33-22.1,6.81-34.14,2.13-2.11,5.4-5.32,8.66-8.53-.23-.8-.46-1.59-.68-2.39,3.77.56,7.55,1.12,11.37,1.69.07-.16.14-.33.21-.49ZM1081.59,194.38c-6.15,5.17-11.11,9.34-16.34,13.74-11.8-3.25-35.7-21.47-44.01-34.59,2.68.93,3.79,1.32,6.18,2.14-2.33-5.23-4.29-9.65-6.9-15.52,20.77,11.64,40.05,22.45,61.06,34.23ZM1011.06,171.49c9.81,23.58,18.4,47.56,17.25,73.95-8.55-.64-10.8-4.57-12.79-21.82-.62-.27-1.25-.54-1.87-.81-1.55,3.39-3.1,6.78-5.46,11.96-5.83-19.24-4.11-37.07-2.98-54.24,2.11-3.26,3.88-5.99,5.85-9.04ZM1047.6,82.27c2.44,2.73,4.14,4.62,6.07,6.77,2.3.11,4.84.24,7.79.39,9.06,19.44,2.82,38.92.75,58.57-11.74-7.28-15.95-31.88-6.75-40.73-1.08-.66-2.02-1.24-3.19-1.95.19-2.83.39-5.78.6-8.73-.53-.22-1.05-.44-1.57-.66-7.12,6.49-8.76,16.56-14.29,24.04-5.79,7.82-12.24,15.16-19.07,22.34,8.1-20.5,11.8-43.11,29.67-60.04ZM915.72,212.14c-1.84-11.78,2.98-20.11,13.46-24.56,1.47.96,3.22,1.99,4.85,3.18,1.42,1.04,2.72,2.24,5.34,4.43-8.11,5.81-15.6,11.18-23.65,16.95ZM943.6,189.05c-1.66-4.51-3.37-9.19-5.6-15.24,11.61-3.8,22.71-7.42,34.61-11.31-1.58,4.46-2.56,7.22-3.56,10.06-8.12,5.26-16.51,10.7-25.44,16.5ZM994.48,153.56c-10.45-8.83-20.84-17.72-31.51-26.83-.81-4.48-1.63-9-2.59-14.29-2.15-.64-4.64-1.39-7.42-2.22.28,12.53-.3,23.73-8.93,32.7-3.55-15.02-1.69-29.66,1.43-44.41,1.98-1.06,3.71-2.19,5.59-2.96,7.35-3.01,10.89-2.01,14.89,4.84,3.65,6.25,6.96,12.71,10.16,19.2,5.39,10.92,10.62,21.9,19.59,30.53.78.75.98,2.1,1.61,3.55-1.37-.02-2.38.27-2.82-.1ZM986.7,123.95c-3.45-13.22-7.26-26.36-10.48-39.63-1.45-5.98-2.38-12.2-2.63-18.35-.54-13.33,4.3-19.98,17.69-25.28,1.8,1.42,3.77,2.97,6.37,5.02-2.38,5.24-4.34,10.56-7.1,15.43-4.66,8.24-6.41,16.66-4.34,26.05,2.71,12.34,4.65,24.86,7.43,37.18,1.01,4.45,3.59,8.53,5.29,12.85.95,2.41,1.55,4.95,2.31,7.44-8.21-5.01-12.33-12.21-14.55-20.71ZM1006.33,138.29c-.71-24.6-1.64-49.44,7.7-72.77,6.2-15.49,14.07-30.36,21.95-45.1,2.71-5.08,7.54-9.09,11.74-13.26,1.62-1.61,4.17-2.29,6.29-3.39l1.36,1.23c-2.97,8.43-5.66,16.97-8.99,25.25-3.95,9.83-8.4,19.46-12.77,29.11-.95,2.1-2.04,4.62-3.82,5.76-6.46,4.12-7.75,10.71-8.94,17.31-3.59,19.83-6.99,39.69-10.75,61.24-1.42-1.95-3.71-3.63-3.76-5.38ZM1406.54,908.84c-1.94,5.84-4.14,11.82-7.49,16.9-3.85,5.85-9.11,10.77-13.09,15.32-10.38,1.31-15.21-4.35-20.25-10.71-.84-25.16,9.15-46.04,26.05-64.9,1.98,2.66,3.3,4.44,4.87,6.55,3.35-1.38,6.56-2.69,9.91-4.07-.65-1.6-1.54-3.81-2.63-6.51,5.59-.55,5.99,3.03,6.58,6.24,2.58,14.09.51,27.8-3.95,41.18ZM1405.69,855.8c1.42-2.51,2.49-4.42,4.08-7.22,2.2,2.15,4.08,3.99,6.29,6.15-.54,2.11-1.07,4.21-1.76,6.92-3.19-2.17-5.78-3.93-8.61-5.85ZM1461.27,672.24c.36,6.57-.65,12.99-2.8,19.28-.49-.11-.98-.22-1.48-.33l2.2-19.2c.7.09,1.39.17,2.08.26ZM1455.09,669.78c-2.46,19.01-4.79,36.98-7.11,54.95-.39-.06-.79-.13-1.18-.19-.11,2.98.18,6.03-.39,8.91-4.05,20.56-7.57,41.25-12.75,61.53-2.32,9.09-6.31,17.45-6.46,27.37-.11,7.43-3.96,14.81-6.21,22.46-2.42.1-4.3.18-6.36.26,2.38-6.93,4.55-13.27,7.07-20.61-9.19-.08-5.77,9.05-10.37,11.2-2.66-5.05.25-17.46,5.85-23.82,2,.72,4.19,1.51,6.37,2.3.44-.41.89-.81,1.33-1.22-1.88-2.94-3.77-5.88-6.37-9.94,2.01-9.75,4.25-20.64,6.42-31.15,2.77-1.19,4.63-1.99,6.76-2.91-1.44-3.34-2.43-5.63-3.16-7.33,3.82-18.53,7.53-36.54,11.22-54.42-1.53-2.04-2.73-3.65-4.62-6.18,1.91-9.29,3.99-19.36,6.32-30.67,3.47-.14,7.91-.31,13.64-.54ZM1461.12,622.99c-1.51,11.29-2.97,22.18-4.21,31.46-2.84,4.47-4.79,7.53-7.15,11.25-1.95.08-4.76.2-8.43.35.57-15.63,3.3-30.42,6.8-45.74,5.42,1.12,8.86,1.83,12.99,2.68ZM1431.55,687.85c-.91-.14-1.83-.28-2.74-.42.57-5.23,1.15-10.46,1.72-15.69.98.12,1.95.23,2.93.35-.64,5.25-1.27,10.5-1.91,15.75ZM989.03,398.35c.7,16.42,4.94,32.94-2.33,49.12-.81-.03-1.62-.06-2.42-.1.65-16.37,1.31-32.75,1.96-49.12l2.8.09ZM900.22,390.64c.28-.31.95-.26,2.8-.71-7.81,20.84-15.31,40.74-27.74,58.24-.81-.13-1.61-.25-2.42-.38.08-3.84-.68-7.93.39-11.47,5.25-17.37,14.8-32.33,26.97-45.68ZM241.07,446.23c.48,2.58.96,5.17,1.57,8.4-2.46-.16-3.85-.25-6.49-.42,1.03-3.14,1.84-5.62,2.66-8.1l2.27.12ZM132.61,869.76c-5.32,10.44-16.79,10.45-26.99.28,1.73-4.62,3.35-8.92,5.02-13.39,2.28.6,4.14,1.09,8.12,2.14-1.99-4.19-3.23-6.82-4.95-10.46.74-2.31,1.82-5.7,3.03-9.47,8.32,1.72,16.25,3.35,25.32,5.22-3.28,9.04-5.53,17.8-9.54,25.67ZM626.92,1067.04c4.41-7.5,8.81-15,13.62-23.2,3.81,1.3,7.82,2.67,13.22,4.51-4.53,10.17-8.66,19.44-13.11,29.44-3.74-1.09-7.07-2.06-9.7-2.83-1.62-3.2-2.83-5.57-4.03-7.93ZM747.14,1051.43c-6.45-7.44-12.72-14.66-19.64-22.65,2.58-3.19,4.45-5.51,6.59-8.17,9.55,2.52,15.46,9.32,22.03,15.37.71,6.98-3.11,11.05-8.98,15.46ZM897.83,563.65c-.16,1.42-.3,2.62-.49,4.3,1.86.91,3.86,1.89,6.17,3.02,1.33-1.74,2.48-3.24,3.62-4.74.26.14.52.29.78.43-1.01,3.95-2.02,7.9-3.29,12.91-4.33.89-9.01,1.85-14.25,2.92,1.12,2.75,2.15,5.27,3.3,8.08-1.52,1.99-3.03,3.98-4.45,5.82.6,4.24,1.16,8.23,1.62,11.46-3.71,6.92-7.09,13.22-10.75,20.05.69.65,1.86,1.75,3.55,3.34-2.76,1-5.12,1.85-7.74,2.81,3.78,4.24,6.33,7.11,8.89,9.98-.27.32-.54.63-.81.95-1.22-.65-2.43-1.3-4.03-2.15-1.49,1.61-3.02,3.27-4.32,4.67-.77,5.19.9,8,6.64,8.01.64-1.18,1.43-2.64,2.31-4.25,1.86-.25,3.82-.5,6.31-.83.2-3.05.39-5.81.59-8.71,2.47-4.1,5.02-8.33,7.92-13.14-.89-1.19-2.05-2.75-3.65-4.9,5.57-17.01,11.29-34.49,17.01-51.97.15.07.3.15.45.23,2.04-5.15,4.08-10.29,5.42-13.65,5.36-7.84,11.09-13.77,13.76-20.85,2.64-6.99,2.18-15.15,3.18-23.61,5.69,7.5,10.75,14.17,16.04,21.14-.31,1.15-.75,2.78-1.53,5.68,18.72,7.2,36.92,14.89,56.79,15.59,2.5,1.18,4.7,3.09,6.95,3.15,15.56.44,23.41,10.18,28.91,23.66,3.26,1.31,6.82,2.74,9.96,4,.95,3.94,1.83,7.58,2.71,11.23,2.19.97,4.4,1.95,7.52,3.34-1.61,12.62-3.3,24.87-4.69,37.15-.77,6.84-.34,13.89-1.68,20.59-4.95,24.85-.65,50.07-3.57,74.99-3.17,26.99-5.03,54.23-14,80.15-3,8.68-7.55,16.81-11.34,25.07-61.28-6.47-112.22,14.19-157.73,53.32-1.43-6.84-2.62-13-4.07-19.09-.34-1.41-1.43-2.74-2.43-3.88-3.09-3.52-6.31-6.93-9.48-10.39.32-.48.64-.95.95-1.43-1.67.02-3.34.03-5.01.05-.27.36-.53.73-.8,1.09-11.33-11.21-22.66-22.41-34.19-33.81-4.16-2.78-8.76-5.85-14.93-9.97-3-.07-7.87-.19-13.15-.33-1.21-1.3-3.11-2.56-3.92-4.32-4.8-10.43-14.03-15.49-23.76-19.91-13.42-6.09-26.7-12.61-40.49-17.76-11.57-4.33-23.65-7.59-35.75-10.08-6.3-1.29-13.15.12-19.76.31l-1.89,2.47c-.89-2.94-1.78-5.88-2.39-7.88,3.49-16.92,6.93-33.6,10.36-50.29,4.64-22.58,8.86-45.25,14.03-67.7,4.82-20.93,10.46-41.67,16.12-62.39,1.88-6.88,4.55-13.62,7.51-20.13,4.6-10.11,14.38-11.27,21.61-12.85,11.38-7.39,21.25-13.81,30.7-19.95,2.81,1.37,4.39,2.14,5.79,2.82.75-.19,1.27-.25,1.73-.46,4.39-1.92,8.62-4.99,13.18-5.59,12.72-1.66,25.2-1.55,38.15,1.69,14.88,3.72,30.65,5.27,46.02,5.19,11.37-.06,22.72-4.25,34.5-6.68,2.86,1.94,2.34,8.43,8.22,7.17,1.13,4.43,2.23,8.74,3.61,14.11-6.86,4.44-4.17,16.13-12.55,20.76ZM894.39,991.13c-1.35,3.32-4.1,6.78-7.15,8.51-3.99,2.27-9.3,3.23-12.97-.85-4.15-4.62-5.63-10.45-4.01-16.64.72-2.73,2.21-5.24,3.06-7.95,2.97-9.54,3.95-19.25,1.75-29.1-1.92-8.58-3.98-17.13-6.02-25.68-1.46-6.16-.31-11.58,4.19-16.91,1.96,2.08,3.47,3.68,5.11,5.41,2.8-2.51,5.39-4.83,8.65-7.75,4.38,2.22,8.57,4.34,12.37,6.26-1.79,6.8-3.26,12.37-4.72,17.94.81-.07,1.61-.14,2.41-.21,3.4,8.49,6.8,16.97,9.8,24.48-1.94,7.47-3.46,13.96-5.32,20.35-2.17,7.45-4.22,14.97-7.14,22.13ZM920.59,932.78c.19,4.58.31,7.29.45,10.78-2.92.7-5.67,1.36-8.9,2.14-.65-6.64,3.75-8.66,8.45-12.92ZM860.85,958.3c-2.07-11.08-4.05-21.65-6.23-33.35,1.37-1.59,3.63-4.2,7.01-8.11,5.58,18.73,12.27,35.64,6.64,54.04-4.18,13.65-14.42,16.84-25.77,8.7-3.39-2.43-5.04-5.09-3.34-9.17-2.71,1.08-5.42,2.17-7.27,2.91-13.36-6.73-12.73-33.37-6.43-47.71,5.84.66,11.91,1.34,16.97,1.91,10.81,7.35,10,18.25,11.93,27.94-4.46,4.19-8.73,8.2-12.99,12.21,6.26-3.01,12.51-6.01,19.48-9.36ZM881.16,891.42c4.97-2.44,9.94-4.88,14.91-7.32.33.69.65,1.38.98,2.06-5.05,2.26-10.11,4.51-15.16,6.77-.24-.5-.49-1-.73-1.51ZM910.9,931.57c-2.17-3.5-4.35-6.99-7.09-11.4,2.51-1.26,4.56-2.29,7.06-3.54,2.13,2.22,3.5,3.65,5.37,5.6-1.02,3.02-2.06,6.09-3.1,9.16l-2.24.19ZM835.99,897.17c1.26-.41,2.62-.84,4.64-1.49.04,2.36.07,4.24.09,5.88,2.83,2.47,5.51,4.81,8.28,7.21-.12,4.72-.23,9.11-.34,13.49-9.31-.29-17.44-.54-26.68-.82-1.7,6.22-3.03,11.09-4.79,17.5-2.08-5.82-3.77-10.56-5.7-15.93,2.12-.24,3.47-.39,5.08-.58,2-5.35-3.59-7.36-5.49-12.33,1.75-4.05,3.86-8.94,6-13.89,4.7-1.4,9.09-2.7,13.7-4.08,1.8,1.74,3.45,3.33,5.22,5.04ZM819.01,963.39c.58,5.11,4.85,9.8,8.06,15.86-1.29,1.13-3.37,2.96-6.34,5.57-5.8-26.02-17.91-48.4-29.99-70.48.73-3.56,1.4-6.77,2.51-12.16,3.65,4.82,7.51,8.09,9.01,12.22,5.91,16.19,14.74,31.33,16.75,48.99ZM811.28,1021.07c1.18.96,2.26,1.83,3.69,3-4.92,3.65-9.4,6.98-14.21,10.55-.67-1.83-1.18-3.22-1.71-4.66,3.94-2.86,7.64-5.55,12.23-8.89ZM816.25,1084.79c-2.03-9.49,1.52-22.6,8.42-31.4,2.56.93,5.34,1.94,8.55,3.1-1.62,7.85-3.11,15.09-4.75,23.05-3.73,1.6-7.9,3.4-12.22,5.25ZM868.37,1196.56c-.65-6.78-1.25-13.06-1.97-20.64,7.45-3.28,15.77-6.95,24.26-10.69,4.25,14.61-1.81,22.67-22.29,31.33ZM1243.3,1132.62c-1.18.42-2.34.85-3.51,1.25-1.16.4-2.34.77-3.93,1.3-1.57-1.76-3.04-3.4-4.75-5.33-5.77.22-11.77.45-18.37.7-2.48-.51-5.68-1.17-8.87-1.83l-.41,1.15-5.6-3.93c-.12.55-.24,1.11-.36,1.66-21.98-2.49-44.54-1.68-64.69-13.91-6.3,5.96-13.22,4.69-20.23,4-21.88-2.14-43.81-3.86-65.69-6.04-5.6-.56-11.09-2.2-16.63-3.34-.23-.64-.45-1.27-.68-1.91-14.79,8.38-29.57,16.77-44.38,25.12-3.05,1.72-6.2,3.28-9.09,4.8-2.34,2.52-4.69,5.05-7.93,8.55-1.51-4.24-2.31-6.53-3.76-10.59-7.17,13.59-19.96,17.2-31.34,23.93-.47-3.08-.81-5.25-1.15-7.42-.47-.19-.94-.39-1.4-.58-1.28,2.16-2.57,4.33-3.98,6.7-2.17-2-4.53-4.18-6.89-6.36-.5.37-1,.74-1.5,1.12.75,2.54,1.5,5.08,2.63,8.91-7.52,6.13-15.4,12.55-24.27,19.78-.12-6.92-.21-12.5-.32-18.68-14.77.44-25.15,7.69-35.27,13.9,1.03,6.56,1.95,12.43,2.96,18.84-8.3-.04-14.25-1.19-17.65-8.15-2.43-4.98-2.39-9.76,1.27-13.74,5.75-6.27,11.45-12.81,18.14-17.95,17.13-13.17,36.15-23.18,56.23-31.14.88-.35,1.86-.47,4.26-1.05-2.38,2.14-3.61,3.24-4.85,4.35,8.57-4.38,18.64-3.27,27.26-8.14,3.52-1.99,9.44.26,14.61.61,1.34-4.72.68-5.22-10.18-6.2-3.71-13.21-1.03-25.89,3.82-38.14-8.02-8.24-18.18-4.85-27.73-6.17.1-7.5,5.13-14.76,1.43-22.23-.68-.14-1.36-.27-2.04-.41-.77,3.72-1.42,7.46-2.33,11.14-.99,4-2.23,7.93-3.45,12.2-2.33,0-4.3.01-6.3.02,0-2.01,0-3.86,0-5.7-.48-.18-.96-.36-1.44-.55-1.63,2.42-3.25,4.85-5.52,8.24-21.95-1.87-44.56-5.68-66.66.42-2.49-6.97-3.63-13.78-7.19-18.91-2.39-3.45-8.22-4.51-12.16-6.46-10.68,10.79-15.08,34.17-9.02,44.42-13.76,4.75-24.14-4.52-21.05-19.39,2.09-10.05,5.08-19.94,8.26-29.72,3.17-9.76,14.15-14.42,23.67-10.98,3.06,1.11,6.44,1.58,9.71,1.77,3.05.18,6.14-.41,8.9-1.75,5.07-1.5,10.09-3.26,15.23-4.43,5.49-1.25,11.45-3.57,16.56-2.47,6.66,1.44,12.68-.12,18.98-.44,9.03-.45,18.06-.91,27.1-1.18,10.06-.3,20.15-.83,30.17-.3,3.32.17,6.57,3.17,9.71,5.11,1.83,1.12,3.38,2.7,4.9,3.96,3.44-2.4,6.12-4.27,8.95-6.25.18-1.35.38-2.82.62-4.55,3.09-.5,6.09-.98,7.69-1.24,3.78-4.56,6.74-8.12,10.41-12.55-.73-.53-2.03-2.16-3.62-2.52-13.95-3.18-28.03-4.96-42.77-2.77-1.26,1.54-2.66,3.24-3.84,4.69-1.02.02-1.69.25-2.01,0-8.75-6.38-18.52-4.09-27.74-2.44-13.73,2.46-27.23,6.25-40.86,9.33-2.81.63-5.77.63-9-.11-4.89,3.63-9.79,7.27-15.65,11.62-1.53-10.02,5.37-18.18-.03-27.25-4.18.17-8.71.35-12.66.51-5.64,4.94-5.08,15.47-15.3,14.03-1.09-17.48,2.66-25.62,14.43-30.45,8.03,5.81,16.82,10.75,28.06,6.63.58,1.89,1.07,3.28,1.42,4.7,2.37,9.43,9.33,14.27,19.01,12.65,5.82-.97,11.52-2.67,17.82-4.16-.18-1.71-.35-3.35-.58-5.53,9.98-9.49,16.07-21.09,15.06-35.72-.82-2.68-1.64-5.36-2.86-9.34,27.54-7.12,54.25-15.84,83.11-16.41.74.71,1.73,1.5,2.51,2.45.73.9,1.25,1.97,2.05,3.26-9.58.47-18.45.91-27.32,1.34,10.5,4.01,29.35,1.23,36.92-4.32q4.39-12.87,15.87-18.4c-22.55-11-45.12-13.15-68.89-9.45-1.24,1.7-2.54,3.48-3.84,5.26l-1.55-.36c0-10.44,7.19-20.49,2.82-32.63-3.25,11.05-6.11,20.79-9.11,31-5.16,2.27-10.2,4.48-15.24,6.7-.59-.39-1.19-.77-1.79-1.16,8.72-16.73,16.47-33.55,4.51-52.86,9.4-3.62,18.23-7.03,27.36-10.55-.11-.73-.27-1.83-.65-4.44,6.5-.88,12.96-2.06,19.48-2.56,6.66-.51,13.36-.37,20.13-1.6-4.4-.54-8.79-1.08-14.86-1.82,20.04-4.68,37.98,2.91,57.68,2.67-5.33-9.06-2.63-16.51-.1-24.12,13.43-40.31,16.58-82.03,17.22-124.14.15-9.92,1.69-19.82,3.79-29.64,3.13,36.36-.36,72.56-1.62,109.55,5.13-3.12,5.09-7.85,5.4-11.89,1.2-16,2.2-32.03,2.81-48.07.46-12.15.35-24.33.24-36.5-.06-6.2.44-12.73-1.25-18.54-5.36-18.46-2.69-36.87-1.42-55.41.77-11.34.47-22.77.4-34.15-.02-3.54-.87-7.07-1.49-11.71-8.25,5.88-3.42,15.74-9.99,21.92-14.5-4.04-17.31-18.19-23.96-29.09.88-2.3,1.58-4.13,2.3-6.01-12.66,1.23-25.06,2.43-36.8,3.57-11-11.56-20.87-21.93-31.29-32.88-.94,5.06,2.48,7.73,4.74,10.72,2.31,3.06,4.97,5.86,8.01,9.4-20.27-.98-31.06-12.95-39.37-30.17,2.7-2.72,5.57-5.6,8.63-8.69-1.01-.26-2.5-.64-4.82-1.24-.31-.81-.49-2.95-1.64-3.98-9.05-8.06-7.71-17.19-4.48-27.56,3.17-10.18,5.27-20.87,4.23-31.76-.12-1.2-1.33-2.3-2.81-4.72-4.1,19.91-7.9,38.35-11.63,56.45-5.42,2.76-10.19,5.2-14.88,7.59-5.15,7.15-10.23,14.2-16.66,23.12-4.46.89-11.2,2.24-19.76,3.94,3.17-2.49,4.82-3.78,6.46-5.07-12.55,2.45-26.29-4.13-38.61,5.79-18.45.14-35.82-7.55-55.08-16.34-3.53,1.06-8.85,2.65-15.48,4.64-6.03-7.36-4.28-18.24-8.38-26.34-2.12,7.26-1.71,11.12,3.39,28.02-.62,1.8-1.38,3.98-1.68,4.85-10.71,4.66-20.49,8.91-30.26,13.17l.28.43c-3.63,2.22-7.25,4.44-10.45,6.39-1.63-1.78-3.06-3.34-4.76-5.2,5.5-9.53,11.13-19.26,16.75-29-13.32,9.76-16.16,27.54-32.14,39.32-5.35,13.81-12.21,30.5-18.27,47.47-8.01,22.43-15.44,45.06-22.95,67.67-.81,2.43-.44,5.25-.62,7.89.99.17,1.97.33,2.95.5,4.33-13.62,8.65-27.24,12.98-40.86l1.56.39c-10.52,47.84-21.05,95.68-31.32,142.36-7.95,5.71-15.81,9.06-19.08,17.36.9.46,1.65.95,1.72.87,9.74-11.44,24.84-12.8,37.77-20.21,38.42,4.17,73.47,18.7,106.03,40.24-.04,4.74-.07,8.55-.12,13.67,3.79-.22,7.53-.07,11.12-.75,6.35-1.2,11.66.47,16.59,4.42,6.27,5.01,12.7,9.82,19.37,14.95.03,1.52.07,3.21.11,4.9.5-.27,1.01-.53,1.51-.8,3.06,5.19,6.13,10.38,9.19,15.57-.44.41-.89.83-1.33,1.25,1.65.25,3.3.5,5.14.79.28,2.17.56,4.39.94,7.26-6.82-2.05-13.22-2.15-16.89,5.32-3.44-1.81-6.42-3.38-9.4-4.95-.34.48-.69.96-1.03,1.44.94,2.27,1.87,4.54,2.81,6.81-.46.35-.93.71-1.39,1.06-2.05-1.58-4.09-3.16-6.77-5.23-1.69.36-3.86.82-5.53,1.18-2.95,4.79-1.36,7.97,1.69,10.99,2.83,2.79,5.48,5.77,7.91,8.35-1.56,4.82-2.82,8.72-4.51,13.94-2.05-2.54-3.5-4.33-4.84-5.99,1.35-3.39,2.45-6.17,3.71-9.37-6.75-2.34-7.12,3.77-9.51,6.25-18.17-13.81-35.69-27.89-54.02-40.86-25.33-17.92-51.24-35.01-79.03-48.99-3.81-1.92-7.59-6.08-12.73-1.94-.7.56-3.25-1.17-5.13-1.92q-.29,6,5.14,10.7c9.1,1.03,21.5-4.17,24.56,11.8-5.46-.01-10.49-.02-15.52-.04-.15.93-.31,1.85-.46,2.78,1.87.82,3.66,2.04,5.62,2.4,23.62,4.41,45.45,13.58,66.54,24.77,17.05,9.05,19.74,11.24,29.7,24.45,1.18,5.16,2.25,9.85,3.3,14.47,9.42,6.11,17.57,12.82,18.72,23.13,3.87,4.4,7.82,7.51,9.97,11.57,9.18,17.35,18.65,34.68,21.66,54.47,1.51,9.92.21,19.42-5.97,27.89-2.48.31-4.73.6-7.53.95.43,2.99.81,5.68,1.28,8.98-8.08,5.3-15.52,1.34-24.64-1.38,6.47-6.09,12.07-11.16,17.41-16.49,3.22-3.21,6.38-6.61,8.88-10.37,1.1-1.66.51-4.45.69-6.72-.55-.2-1.1-.4-1.64-.6-1.84,1.48-3.69,2.96-6.41,5.15-1.33-2.75-2.67-5.1-3.62-7.6-1.57-4.11-2.87-8.32-4.31-12.48-1.94-5.61-5.36-9.16-11.76-9.56-3.58-.22-7.06-1.77-10.64-2.12-2.65-.26-5.39.46-8.48.79-.95,4.6-1.75,8.47-2.86,13.88-10.06-11.87-19.15-22.6-28.76-33.95,2.93-4.51,6.04-9.29,9.15-14.06-.63-.54-1.26-1.07-1.88-1.61-1.7,1.81-3.36,3.67-5.12,5.43-1.96,1.97-4.01,3.86-6.78,6.52-2.98-2.79-5.82-4.91-7.98-7.59-4.34-5.39-7.91-11.44-12.5-16.6-14.29-16.05-29.11-31.63-43.26-47.79-3.8-4.33-5.95-10.11-8.51-14.61.76-6.33,1.41-11.75,2.05-17.17-.79-.13-1.59-.25-2.38-.38-5.47,14.75-6.08,30.74-9.84,45.88-4.06.52-7.63.98-11.19,1.44-.04.69-.08,1.37-.12,2.06,2.32.62,4.71,1.06,6.94,1.92,1.82.69,3.45,1.87,5.72,3.15.19-.18.94-.91,2.29-2.21,11.93,5.86,24.3,11.94,36.67,18.02-.18.45-.37.91-.55,1.36-6.85-.89-13.71-1.78-20.56-2.66,9.44,2.72,15.6,9.79,22.4,16.01,16.59,15.18,33.29,30.23,49.89,45.29,2.58-1.58,4.05-2.48,6.19-3.78,4.85,6.3,9.72,12.63,14.86,19.31-.55,3.98-1.11,8.03-1.59,11.57,6.52,22.89,20.57,36.96,45.02,39.53,2.99,10.38,2.33,20.09-3.36,29.09-2.59,4.09-6.69,6.12-11.83,6.33-9.59.39-17.57-2.91-24.94-9,4.23-7.42,9.83-13.66,8.9-21.3-5.21-4.04-9.68-7.3-13.92-10.84-11.8-9.84-13.6-9.95-25.26-.41-8.84-10.31-17.7-20.65-26.64-31.1-2.63,1.15-4.68,2.05-8.18,3.57-1.46-4.17-2.79-7.96-3.76-10.72,4.67-8.56,12.25-14.15,10.57-24.04-4.84,4.18-9.27,8.01-14.86,12.85-2.23-9.1-16.08-10.21-9.11-22.58-6.02-5.09-11.93-10.08-18.57-15.69-2.53,2.57-4.79,4.85-7.1,7.2-5.52.64-8.15-8.61-15.39-4.54.3,2.54.6,5.02.87,7.34-1.7,3.83-3.34,7.54-5.29,11.93,4.13-.63,7.19-1.1,10.25-1.57.13.46.27.93.4,1.39-1.46,1.11-2.92,2.23-4.92,3.75,1.12,2.4,2.17,4.65,3.13,6.71,2.67.9,4.86,1.63,7.52,2.53,3.01,5.33,6.18,10.92,9.33,16.54,2.29,4.09,5.39,6.69,10.57,5.52,7.37,16.25,12.85,32.9,15.84,50.36,1.02,5.96-.2,10.88-4.18,15.8-4.67,5.8-8,12.66-12.24,18.83-4.21,6.12-9.29,11.27-17.48,11.41-6.04.1-10.86-1.91-14.16-8.4,4.25.65,7.48,1.15,11.38,1.75,1.6-2.37,3.42-4.5,4.62-6.93,2.87-5.79,5.38-11.76,8.16-17.6,4.83-10.18,3.34-13.76-7.35-17.28-1.19-.39-2.39-.76-4.14-1.32,2.94-3.01,5.55-5.67,8.15-8.33-.34-.52-.68-1.04-1.01-1.56-3.77,2.14-7.54,4.28-12.22,6.94-9.29-16.72-18.43-33.15-28.1-50.56-48.48-13.24-96.09-34.59-145.85-49.56-1.52-2.01-2.87-3.81-4.23-5.6-.24.56-.47,1.11-.71,1.67-32.56-10.7-65-21.8-97.72-31.98-37.59-11.69-75.28-23.08-113.2-33.63-32.92-9.16-66.2-17.07-99.37-25.32-9.75-2.43-19.69-4.12-30.15-6.28.64-3.13,1.13-5.48,1.59-7.7,2.58-.96,4.88-1.83,9.03-3.38-3.39-1.53-5.17-2.33-7.68-3.45,8.75-26.74,14.03-54.67,23.49-81.26.47-4.01.68-8.07,1.45-12.03,2.32-11.94,4.86-23.84,7.15-34.96,1.47-.66,1.84-.86,1.86-.84.43.7.82,1.43,1.64,2.93,3.95-15.66,7.68-30.41,11.4-45.15-.6-1.63-1.22-3.03-1.62-4.49-.39-1.44-.54-2.95-.8-4.44,2.24-1.58,4.25-3,7.11-5.02-2.32-1.17-3.53-1.79-5.77-2.93,2.04-3.76,4.04-7.45,5.19-9.57,2.31-11.2,4.31-20.92,6.31-30.64.4-.03.8-.07,1.2-.1.38,1.01.76,2.01,1.63,4.29,6.98-19.4,13.62-37.83,20.25-56.26l-.93-.45c-2.03,2.2-4.06,4.41-6.09,6.61.35.14.7.29,1.05.43-2.84,7.54-5.68,15.08-8.52,22.62-.61-.21-1.22-.42-1.83-.63,5.93-17.98,11.86-35.97,17.79-53.95q.23,12.37,2.27,15.05c7.23-5.85,7.99-15.26,12.71-22.1.58,1.43,1.3,3.24,2.26,5.62,1.77-1.47,3.6-2.22,3.95-3.4,2.99-9.93,11.25-14.51,19.13-19.63,1.08-.7,1.26-2.79,1.81-4.31-4.59,1.94-9.17,3.89-14.64,6.21-2.35,2.83-5.39,6.48-9.25,11.13.17-11.85,10.27-33.17,22.32-37.12-.87-1.78-1.69-3.46-2.6-5.32,2.06-.93,4.46-2.61,7.07-3.1,14.96-2.79,29.93-7.17,44.99-7.57,44.23-1.17,88.5-1.02,132.75-.8,39.35.19,78.7,1.39,118.05,1.74,62.91.57,125.82.94,188.73,1.12,30.07.09,60.14-.46,89.71-.71,1.32,2.53,2.19,4.19,3.06,5.85.63.01,1.26.03,1.9.04.75-2.96,1.5-5.91,2.65-10.42,3.77-2.35,8.49-1.68,12.83,3.6,1.31,8.23,2.66,16.69,4.01,25.16.61-.07,1.22-.14,1.83-.21,2.72-7.92-.61-15.84-.8-24.24,1.24-2.6,2.66-5.59,4.12-8.64,12.38-2.44,15.18,10.89,23.4,14.54,5.73-10.73,11.39-20.62,16.36-30.84,5.19-10.69,9.82-21.66,14.42-32.63.84-2,.44-4.54.5-6.83.4-15.29,16.52-30.22,31.59-29.16,1.22.08,2.4.68,3.92,1.14.19,2.4.36,4.62.55,7.13,2.18.45,4.09.84,5.15,1.06,6.16,7.53-2.37,16.05,3.52,24.88,4.05-8.81,7.46-16.24,10.56-22.98,12.36.08,20.47,6.01,23.35,14.89-7.85,23-5.76,45.42-4.84,67.79l2.37-.61c4.03,4.43,8.07,8.86,12.92,14.18-5.34,6.2-9.83,11.41-14.32,16.62l.61,1.08c4.72-2.65,9.44-5.29,14.76-8.27,4.57,3.19,9.25,6.34,13.81,9.67,18.45,13.48,37.95,25.12,58.86,34.44,18.88,8.41,37.25,18.12,56.51,25.52,21.46,8.24,43.42,15.47,65.62,21.43,37.24,10.01,74.71,19.31,112.36,27.66,24.74,5.49,49.98,8.74,74.98,13.1,9.95,1.73,20.05,3.07,29.69,5.91,4.91,1.45,8.97,5.83,12.72,8.41,6.29.61,12.42,1.21,20.08,1.96-3.13,15.17-6,29.12-9.1,44.15-.84.18-3.25.7-5.94,1.29-.65,7.14-1.29,14.05-1.92,20.97,1.84,1.62,3.35,2.95,5.72,5.03-1.02,9.22-2.11,19.1-3.2,28.97.38-.03.76-.05,1.14-.08-1.73,5.68-4.03,11.25-5.05,17.05-1.9,10.79-2.79,21.76-4.71,32.54-.53,2.97-3.22,5.55-5.36,9.03.13.12,1.37,1.24,2.62,2.35-1.07,7.79-2.15,15.58-3.22,23.38.37.02.74.04,1.1.05l-8.08,10.87,1.43.42c-1.79,5.58-3.59,11.15-5.39,16.73-.52-.17-1.04-.34-1.56-.5.78,8.99-3.52,16.29-7.73,23.6-.48.83-1.32,1.61-2.19,2.03-11.53,5.58-18.62,15.3-24.31,26.66-5.36-.79-10.72-6.3-15.66-.1-4.91,6.15-2.06,12.24.68,18.59,1.95.91,4.25,1.98,6.6,3.07.24,12.48.48,24.74.72,36.99.31.01.63.02.94.04-1.32,6.38-2.63,12.77-4.33,21.01,3.02,8.97-5.75,16.14-9.21,25.32.96,1.77,2.02,3.73,3.41,6.31-2.6.75-4.65,1.34-7.23,2.09-.15,3.54-.31,7.21-.5,11.81-.86.65-2.61,1.97-3.99,3.01-.15,3.38.46,6.53-.52,9.06-5.62,14.54-11.64,28.92-17.48,43.38-1.7,4.2-3.23,8.46-5.22,13.72-.64.2-2.56.79-4.01,1.23-7.87,20.79-22.71,36.73-33.22,55.05-12.38,2.19-23.68,1.78-34.06-5.6ZM819.16,1020.85c2.35-1.33,4.7-2.66,7.93-4.49.42,2.95.69,4.8,1.11,7.77-3.68-.76-6.09-1.25-8.49-1.75-.18-.51-.37-1.02-.55-1.53ZM844.56,1001.56c2.21,6.48,1.69,12.23-2.3,23.67-2.68.85-5.74,1.82-8.89,2.82-2.16-11.37,3.51-24.22,11.18-26.49ZM864.43,1018.89c12.45-3.14,24.82-6.73,37.39-9.27,9.07-1.83,18.4-2.48,27.65-3.19,2.65-.2,5.42,1.24,8.14,1.92-.09.66-.18,1.33-.27,1.99-24.17,3.43-48.34,6.86-72.52,10.28-.13-.58-.26-1.16-.39-1.74ZM949.6,1010.4c5.81-7.21,8.9-7.2,20.67-.69-7.24.24-13.18.44-20.67.69ZM908.59,961.79c.11-.38.67-.63,1.44-1.31,2.51,11.11-1.27,19.76-9.25,28.73,2.87-10.13,5.31-18.78,7.8-27.42ZM943.15,917.86c1.49-.12,2.98-.23,4.48-.35l-.1,1.99c-1.46-.14-2.93-.29-4.39-.43,0-.41,0-.81.01-1.21ZM947.89,935.85c3.18-2.52,3.27-2.55,6.6-.54-2.13.17-4.27.35-6.6.54ZM954.88,935.22c3.5-3.27,7-6.53,10.66-9.95,2.91,1.93,4.7,3.11,7.79,5.15-7.06,1.84-12.76,3.32-18.45,4.8ZM774.78,989.55c6.45,4.41,11.37,7.77,16.55,11.32-3.48,8.6-12.66,10.27-18.09,16.04-17.81-10.53-20.93-30.73-8.02-50.37,5,1.03,9.49,1.96,15.16,3.13.98,2.75,2.21,6.19,3.62,10.15-3.45.87-5.86,1.47-9.26,2.33.01,3.07.03,6.15.03,7.42ZM704,933.88c-6.96-6.72-12.94-12.5-19.32-18.66,9.14.56,20.1,10.45,19.32,18.66ZM682.11,898.61c-.32.4-.64.81-.95,1.21-6.81-3.5-13.93-6.5-20.34-10.61-7.84-5.04-9.15-13.5-10.12-21.8l1.79-1.3,29.63,32.5ZM651,956.85c-.46.24-.92.49-1.38.73-.97-1.84-1.93-3.68-2.9-5.52.43-.23.86-.45,1.28-.68.99,1.82,1.99,3.65,2.99,5.47ZM641.19,954.19l-4.87.81c-.17-.63-.35-1.26-.52-1.89,1.58-.64,3.16-1.28,4.74-1.91.22,1,.44,1.99.66,2.99ZM1360.43,903.15l-1.5-.11c.23-1.92.54-3.84.66-5.76.14-2.28.12-4.57.2-8.48,7,6.04.62,9.99.64,14.34ZM1355.22,898.63c-.87-.02-1.73-.03-2.6-.05.19-2.52.39-5.03.58-7.55l1.95.07c.02,2.51.05,5.02.07,7.53ZM1310.36,1116.61c-6.9,11.21-13.79,22.42-20.69,33.63-3.76,6.11-7.54,12.21-11.26,18.24-5.26-1.08-9.45-1.95-15.05-3.1,2.18-4.87,3.07-9.86,6-12.87,18.81-19.35,31.06-43.14,44.84-64.13,4.33-2.59,7.64-4.57,12.09-7.23-2.81-1.65-4.36-2.56-6.14-3.61,1.05-2.27,2.12-4.57,3.35-7.23,1.5-.37,3.19-.79,6.04-1.49,3.93-25.04,16.04-47.68,24.57-72.14,1.43-13.52,8.81-25.82,11.83-38.9,3.96-.78,6.67-1.31,11.07-2.17-3.39-1.26-5.17-1.92-6.33-2.35,2.07-2.8,4.12-5.58,6.74-9.14,1.2-.09,3.45-.26,6.49-.49-14.93,51.24-29.98,101.67-56.95,147.41-.55-.21-1.09-.42-1.64-.63-.41,2.02-.64,4.1-1.3,6.04-.57,1.68-1.64,3.19-2.74,5.24-1.22-.8-2.21-1.45-3.26-2.14.73-1.3,1.47-2.61,2.21-3.92l-.89-1.34c-2.58.9-5.16,1.81-7.4,2.59-.35,3.2-.67,6.09-1.03,9.44,1.9.79,3.81,1.58,6.9,2.86-3.43.97-5.68,1.6-8.22,2.32.84,2.07,1.56,3.86,2.29,5.64-.49-.17-.98-.35-1.47-.52Z"/>
    </g>
  </g>
</svg>