<?xml version="1.0" encoding="UTF-8"?>
<svg id="Layer_2" data-name="Layer 2" xmlns="http://www.w3.org/2000/svg" viewBox="0 0 101.87 93.38">
  <defs>
    <style>
      .cls-1 {
        fill: #4c4c4c;
      }
    </style>
  </defs>
  <g id="Layer_1-2" data-name="Layer 1">
    <path class="cls-1" d="M101.87,76.4V12.73c0-7.02-5.71-12.73-12.73-12.73H12.73C5.71,0,0,5.71,0,12.73v63.67h46.69v8.49h-21.22v8.49h50.93v-8.49h-21.22v-8.49h46.69ZM12.73,8.49h76.4c2.34,0,4.24,1.91,4.24,4.24v38.2H8.49V12.73c0-2.34,1.9-4.24,4.24-4.24ZM8.49,59.42h84.89v8.49H8.49v-8.49ZM34.99,40.43h8.51l1.11,6.26h6.32l-5.93-28.89c-.51-2.84-2.5-5.06-5.71-5.06s-5.44,2.49-5.88,4.95l-5.82,29h6.24l1.17-6.26h0ZM39.2,19.97l2.71,13.99h-5.35l2.65-13.99h0ZM74.7,36.93v-14.43c0-5.39-4.38-9.76-9.76-9.76h-9.76v33.95h9.76c5.39,0,9.76-4.38,9.76-9.76h0ZM61.97,19.52h2.97c1.64,0,2.97,1.33,2.97,2.97v14.43c0,1.64-1.33,2.97-2.97,2.97h-2.97v-20.38h0Z"/>
  </g>
</svg>