<?xml version="1.0" encoding="UTF-8"?>
<svg id="Layer_2" data-name="Layer 2" xmlns="http://www.w3.org/2000/svg" viewBox="0 0 85.6 85.6">
  <defs>
    <style>
      .cls-1 {
        fill: #4c4c4c;
      }
    </style>
  </defs>
  <g id="Layer_1-2" data-name="Layer 1">
    <path class="cls-1" d="M67.77,42.8v21.4c0,1.97-1.6,3.57-3.57,3.57s-3.57-1.6-3.57-3.57v-21.4c0-1.97,1.6-3.57,3.57-3.57s3.57,1.6,3.57,3.57ZM41.3,23.96l10.95,39.34c.62,2.25-1.06,4.47-3.4,4.47-1.58,0-2.96-1.05-3.4-2.57l-2.29-8.13h-18.57l-2.29,8.13c-.43,1.52-1.82,2.57-3.4,2.57h0c-2.33,0-4.02-2.23-3.4-4.47l11.02-39.62c.5-2.17,1.93-3.99,3.92-5.01,2.03-1.04,4.35-1.11,6.56-.18,2.09.88,3.7,2.91,4.29,5.47h0ZM41.16,49.93l-6.88-24.38c-.1-.41-.68-.41-.78,0l-6.88,24.38h14.54ZM82.04,35.67c-1.97,0-3.57,1.6-3.57,3.57v28.53c0,5.9-4.8,10.7-10.7,10.7H17.83c-5.9,0-10.7-4.8-10.7-10.7V17.83c0-5.9,4.8-10.7,10.7-10.7h28.53c1.97,0,3.57-1.6,3.57-3.57s-1.6-3.57-3.57-3.57h-28.53C8,0,0,8,0,17.83v49.93c0,9.83,8,17.83,17.83,17.83h49.93c9.83,0,17.83-8,17.83-17.83v-28.53c0-1.97-1.6-3.57-3.57-3.57h0ZM57.61,18.48l6.66,2.81,2.66,6.65c.57,1.44,1.97,2.38,3.52,2.38s2.94-.95,3.52-2.38l2.64-6.61,6.61-2.64c1.44-.57,2.38-1.97,2.38-3.52s-.95-2.94-2.38-3.52l-6.61-2.64-2.64-6.61c-.58-1.44-1.98-2.38-3.52-2.38s-2.94.95-3.52,2.38l-2.63,6.57-6.56,2.49c-1.45.55-2.42,1.93-2.45,3.47-.03,1.55.89,2.96,2.32,3.56h0Z"/>
  </g>
</svg>