<?xml version="1.0" encoding="UTF-8"?>
<svg id="Layer_2" data-name="Layer 2" xmlns="http://www.w3.org/2000/svg" viewBox="0 0 92.87 92.89">
  <defs>
    <style>
      .cls-1 {
        fill: #4c4c4c;
      }
    </style>
  </defs>
  <g id="Layer_1-2" data-name="Layer 1">
    <g>
      <path class="cls-1" d="M72.92,44.61c2.55-4.13,4.05-8.82,4.37-13.66,0-2.14-1.73-3.87-3.87-3.87s-3.87,1.73-3.87,3.87c-.31,3.39-1.41,6.66-3.19,9.56-1.13,1.82-.58,4.21,1.24,5.34,1.82,1.13,4.21.58,5.34-1.24h-.02Z"/>
      <path class="cls-1" d="M34.73,27.08c-2.14,0-3.87,1.73-3.87,3.87-.31,3.39-1.41,6.66-3.19,9.56-1.13,1.82-.58,4.21,1.24,5.34s4.21.58,5.34-1.24h0c2.54-4.13,4.04-8.82,4.35-13.66,0-2.14-1.73-3.87-3.87-3.87Z"/>
      <path class="cls-1" d="M75.44,71.92c-2.64-1.4-5.36-2.85-5.74-4.5-.18-.75-.1-2.43,1.99-5.7,12.26-1.76,21.16-19.07,21.16-34.64.43-12.39-9.25-22.78-21.64-23.21-.52-.02-1.05-.02-1.58,0-7.6-.21-14.8,3.4-19.17,9.62C42.97.56,26.42-3.84,13.49,3.65,5.13,8.5,0,17.43,0,27.08,0,42.45,8.73,59.91,20.85,64.55c-.84,1.4-1.35,2.96-1.51,4.58,0,6.08,5.76,8.77,9.97,10.74,2.32,1.08,5.51,2.57,5.51,3.73-.32,1.2-.88,2.32-1.66,3.29-1.15,1.8-.63,4.19,1.17,5.35s4.19.63,5.35-1.17h0c1.64-2.17,2.64-4.76,2.88-7.47,0-6.08-5.76-8.77-9.97-10.74-2.32-1.09-5.51-2.58-5.54-3.35.59-1.39,1.32-2.7,2.2-3.93,9.1-1.18,16.76-9.67,21.09-20.12,2.44,6.45,7.13,11.8,13.2,15.06-1.44,2.64-1.93,5.7-1.38,8.66,1.18,5.07,5.88,7.56,9.65,9.57,2.38,1.27,5.08,2.71,5.49,4.13.1,1.49-.33,2.97-1.22,4.17-1.08,1.84-.46,4.21,1.38,5.29,1.84,1.08,4.21.46,5.29-1.38,0-.01.02-.03.03-.04,2.04-2.96,2.75-6.65,1.96-10.16-1.74-4.11-5.11-7.31-9.3-8.85ZM27.08,58.04c-10.24,0-19.34-17.31-19.34-30.95,0-10.68,8.66-19.34,19.34-19.34s19.34,8.66,19.34,19.34c0,13.64-9.11,30.95-19.34,30.95ZM54.16,27.08c-.46-8.09,5.73-15.02,13.82-15.48.55-.03,1.1-.03,1.66,0,8.09-.46,15.02,5.73,15.48,13.82.03.55.03,1.1,0,1.66,0,13.15-7.95,27.08-15.48,27.08s-15.48-13.93-15.48-27.08Z"/>
    </g>
  </g>
</svg>