<?xml version="1.0" encoding="UTF-8"?>
<svg id="Layer_2" data-name="Layer 2" xmlns="http://www.w3.org/2000/svg" viewBox="0 0 89.22 89.13">
  <defs>
    <style>
      .cls-1 {
        fill: #4c4c4c;
      }
    </style>
  </defs>
  <g id="Layer_1-2" data-name="Layer 1">
    <path class="cls-1" d="M22.31,66.83h44.61c2.05,0,3.72,1.67,3.72,3.72s-1.67,3.72-3.72,3.72H22.31c-2.05,0-3.72-1.67-3.72-3.72s1.67-3.72,3.72-3.72ZM27.86,52.69c-1.17,3.27,1.25,6.71,4.72,6.71h12.03c6.49,0,11.7-5.55,11.11-12.17s-7.23-11.14-13.75-9.89c-7.76,1.49-11.99,9.42-14.11,15.35h0ZM11.15,24.08c0,3.08,2.5,5.58,5.58,5.58s5.58-2.5,5.58-5.58-2.5-5.58-5.58-5.58-5.58,2.5-5.58,5.58ZM31.6,18.5c-3.08,0-5.58,2.5-5.58,5.58s2.5,5.58,5.58,5.58,5.58-2.5,5.58-5.58-2.5-5.58-5.58-5.58ZM85.5,29.65c-2.05,0-3.72,1.67-3.72,3.72v37.18c0,6.15-5,11.15-11.15,11.15H18.59c-6.15,0-11.15-5-11.15-11.15v-29.74h14.87c2.05,0,3.72-1.67,3.72-3.72s-1.67-3.72-3.72-3.72H7.44v-7.44c0-6.15,5-11.15,11.15-11.15h29.74c2.05,0,3.72-1.67,3.72-3.72s-1.67-3.72-3.72-3.72h-29.74C8.34,7.35,0,15.69,0,25.94v44.61c0,10.25,8.34,18.59,18.59,18.59h52.05c10.25,0,18.59-8.34,18.59-18.59v-37.18c0-2.05-1.67-3.72-3.72-3.72ZM49.6,32.21c1.54,1.37,3.88,1.23,5.25-.31l5.22-5.87c5.66-6.37,15.14-17.03,15.73-17.67,1.35-1.35,3.62-1.34,4.95,0,1.37,1.37,1.37,3.6,0,4.97l-21.47,21.47c-1.45,1.45-1.45,3.8,0,5.26,1.45,1.45,3.8,1.45,5.26,0l21.47-21.47c4.26-4.26,4.26-11.21,0-15.47-4.12-4.13-11.27-4.21-15.54.06-.64.67-7.61,8.51-16.09,18.05l-5.1,5.73c-1.36,1.54-1.23,3.88.31,5.25h0Z"/>
  </g>
</svg>