<?xml version="1.0" encoding="UTF-8"?>
<svg id="Layer_2" data-name="Layer 2" xmlns="http://www.w3.org/2000/svg" viewBox="0 0 93.38 93.38">
  <defs>
    <style>
      .cls-1 {
        fill: #4c4c4c;
      }
    </style>
  </defs>
  <g id="Layer_1-2" data-name="Layer 1">
    <path class="cls-1" d="M87.38,35.4l-5.68-5.44v-14.4c0-8.58-6.98-15.56-15.56-15.56H27.24c-8.58,0-15.56,6.98-15.56,15.56v14.4l-5.68,5.44c-3.81,3.65-6,8.77-6,14.05v24.48c0,10.73,8.73,19.45,19.45,19.45h54.47c10.73,0,19.45-8.73,19.45-19.45v-24.48c0-5.28-2.19-10.4-6-14.04ZM27.24,7.78h38.91c4.29,0,7.78,3.49,7.78,7.78v32.07l-18.98,18.98c-4.41,4.41-12.1,4.41-16.5,0l-18.98-18.98V15.56c0-4.29,3.49-7.78,7.78-7.78ZM85.6,73.93c0,6.44-5.24,11.67-11.67,11.67H19.45c-6.44,0-11.67-5.24-11.67-11.67v-24.48c0-.76.09-1.51.23-2.25l24.92,24.92c3.67,3.67,8.56,5.7,13.75,5.7s10.09-2.03,13.75-5.7l24.92-24.92c.14.74.23,1.49.23,2.25v24.48ZM28.48,37.1c-1.57-1.46-1.67-3.93-.2-5.5,1.47-1.58,3.93-1.66,5.5-.2l7.2,6.7c1.05,1.04,2.59,1.05,3.54.09l15.03-14.49c1.55-1.49,4.01-1.44,5.5.1,1.49,1.54,1.45,4.01-.1,5.5l-14.98,14.44c-1.96,1.96-4.56,2.94-7.16,2.94s-5.24-1-7.24-2.99l-7.1-6.6h0Z"/>
  </g>
</svg>