<?xml version="1.0" encoding="UTF-8"?>
<svg id="Layer_2" data-name="Layer 2" xmlns="http://www.w3.org/2000/svg" viewBox="0 0 93.29 93.29">
  <defs>
    <style>
      .cls-1 {
        fill: #4c4c4c;
      }
    </style>
  </defs>
  <g id="Layer_1-2" data-name="Layer 1">
    <path class="cls-1" d="M73.86,0H19.44C8.72,0,0,8.72,0,19.44v31.1c0,10.72,8.72,19.44,19.44,19.44h54.42c10.72,0,19.44-8.72,19.44-19.44v-31.1c0-10.72-8.72-19.44-19.44-19.44ZM85.52,50.53c0,6.43-5.23,11.66-11.66,11.66H19.44c-6.43,0-11.66-5.23-11.66-11.66v-31.1c0-6.43,5.23-11.66,11.66-11.66h54.42c6.43,0,11.66,5.23,11.66,11.66v31.1ZM38.87,85.52c0,4.3-3.48,7.77-7.77,7.77s-7.77-3.48-7.77-7.77,3.48-7.77,7.77-7.77,7.77,3.48,7.77,7.77ZM59.59,27.25l-15.54-8.63c-5.61-3.37-13.37,1.19-13.15,7.74v17.26c-.22,6.55,7.54,11.11,13.15,7.74l15.54-8.63c5.98-3.09,5.98-12.39,0-15.48h0ZM55.81,35.93l-15.54,8.63c-.45.25-.83.13-1.07-.01-.24-.14-.53-.42-.53-.93v-17.27c0-.51.29-.79.53-.93.14-.08.33-.16.55-.16.16,0,.33.04.52.14l15.54,8.63c.46.26.56.65.56.94s-.1.69-.56.94h0ZM93.29,85.52c0,2.15-1.74,3.89-3.89,3.89h-38.87c-2.15,0-3.89-1.74-3.89-3.89s1.74-3.89,3.89-3.89h38.87c2.15,0,3.89,1.74,3.89,3.89ZM15.55,85.52c0,2.15-1.74,3.89-3.89,3.89H3.89c-2.15,0-3.89-1.74-3.89-3.89s1.74-3.89,3.89-3.89h7.77c2.15,0,3.89,1.74,3.89,3.89Z"/>
  </g>
</svg>