<?xml version="1.0" encoding="UTF-8"?>
<svg id="Layer_2" data-name="Layer 2" xmlns="http://www.w3.org/2000/svg" viewBox="0 0 82.81 47.7">
  <defs>
    <style>
      .cls-1 {
        fill: #fff;
      }
    </style>
  </defs>
  <g id="Layer_1-2" data-name="Layer 1">
    <g>
      <path class="cls-1" d="M14.73,10.38c-.06.33-.51.96-.79,1.16-1.29.88-2.8-.04-2.94-1.51-.46-4.92,1.28-9.07,6.47-10.03h59.03c3.38.57,5.9,3.26,6.31,6.65v34.57c-.5,3.38-3.08,6-6.47,6.48H17.31c-5.08-1.09-6.76-5.17-6.31-10.03.14-1.46,1.65-2.39,2.94-1.51.25.17.79.91.79,1.16v3.9s.26.36.35.18l20.39-17.55L15.09,6.3c-.09-.18-.35.16-.35.18,0,1.09.17,2.93,0,3.9ZM76.07,3.55H18.01l-.27.35c.24-.03.37.12.54.26,8.73,7.29,17.22,15.06,25.97,22.25,1.47,1.21,2.27,2.64,4.25,1.07,2.76-2.18,5.47-4.81,8.15-7.1,6.18-5.28,12.57-10.45,18.61-15.95.28-.26.86-.36.8-.88ZM79.08,41.22V6.48s-.26-.36-.35-.18c-5.93,5.22-12.03,10.29-17.99,15.51-.58.51-1.4,1.07-1.96,1.59-.72.68.13.88.54,1.24,6.08,5.45,12.5,10.92,18.79,16.13.22.18.4.43.62.62.09.17.34-.13.35-.18ZM76.07,44.15c.06-.27-.09-.37-.26-.53-.95-.87-2.05-1.63-3.02-2.48-5.42-4.71-10.86-9.4-16.31-14-.31-.27-.57-.63-.9-.88l-5.75,4.86c-1.91,1.11-4.05,1.09-5.91-.11l-5.52-4.75-20.47,17.45c-.31.14,0,.44.09.44h58.06Z"/>
      <path class="cls-1" d="M1.56,26.63l16.98-.03c2.27.47,2.28,3.24,0,3.71H1.71c-2.19-.45-2.31-3.1-.15-3.68Z"/>
      <path class="cls-1" d="M7.05,17.41l11.49-.03c2.27.47,2.28,3.24,0,3.71H7.2c-2.13-.56-2.24-2.98-.15-3.69Z"/>
    </g>
  </g>
</svg>