<?xml version="1.0" encoding="UTF-8"?>
<svg id="Layer_2" data-name="Layer 2" xmlns="http://www.w3.org/2000/svg" viewBox="0 0 90.44 108.53">
  <defs>
    <style>
      .cls-1 {
        fill: #4c4c4c;
      }
    </style>
  </defs>
  <g id="Layer_1-2" data-name="Layer 1">
    <path class="cls-1" d="M76.88,81.4h-1.78c-5.79-11.34-9.65-23.57-11.42-36.18h8.68v-9.04h-7.3l6.78-15.06c1.67-4.71-.79-9.88-5.5-11.55-.97-.34-2-.52-3.03-.52h-13.57V0h-9.04v9.04h-13.57c-2.94,0-5.69,1.43-7.39,3.83-1.74,2.52-2.12,5.74-.99,8.59l6.64,14.71h-7.3v9.04h8.68c-1.77,12.61-5.63,24.84-11.42,36.18h-1.78c-7.49,0-13.57,6.07-13.57,13.57v13.57h90.44v-13.57c0-7.49-6.07-13.57-13.57-13.57ZM27.13,18.09h36.31l-8.31,18.09h-19.83l-8.18-18.09ZM35.86,45.22h18.73c1.5,12.55,5.03,24.76,10.46,36.18H25.4c5.42-11.41,8.95-23.63,10.46-36.18ZM81.4,99.49H9.04v-4.52c0-2.5,2.02-4.52,4.52-4.52h63.31c2.5,0,4.52,2.02,4.52,4.52v4.52Z"/>
  </g>
</svg>