<?xml version="1.0" encoding="UTF-8"?>
<svg id="Layer_2" data-name="Layer 2" xmlns="http://www.w3.org/2000/svg" viewBox="0 0 64.11 64.19">
  <defs>
    <style>
      .cls-1 {
        fill: #fff;
      }
    </style>
  </defs>
  <g id="Layer_1-2" data-name="Layer 1">
    <g>
      <path class="cls-1" d="M11.53,3.75c1.5-.18,2.92.29,4.16,1.1,2.86,2.89,6.35,5.77,8.99,8.83,2.57,2.97,2.12,6.11-.37,8.91-1.02,1.14-2.45,2.55-3.59,3.59-.19.17-.78.46-.73.72.91,1.89,2.04,3.68,3.33,5.34,2.66,3.44,6.34,7.04,9.91,9.52,1.26.88,2.6,1.67,4,2.29,1.64-1.43,3.08-3.28,4.71-4.7,2.54-2.2,5.76-2.19,8.3,0,3,2.59,5.8,6.01,8.65,8.8,3.63,5.19-.77,8.37-4.08,11.75-.55.56-1.04,1.25-1.66,1.8-6.76,5.93-18.79-.09-25.29-4.05-10.33-6.29-19.86-16.81-24.86-27.86C.73,24.78-1.57,17.4,1.43,12.34c1.08-1.82,4.61-5.21,6.29-6.71,1.03-.92,2.41-1.72,3.81-1.89ZM11.65,7.46c-.42.07-.8.36-1.14.59-2.36,2.86-6.56,5.08-6.87,9.09-.49,6.34,4.48,15.4,8.12,20.48,6.36,8.87,15.18,16.44,25.3,20.74,3.08,1.31,8.32,3.02,11.55,1.89,1.4-.49,2.02-1.22,2.99-2.2,1.26-1.27,2.82-2.62,3.97-3.95,1.08-1.25,1.46-2.42.36-3.83l-8.41-8.42c-1.07-.77-2.16-.58-3.15.19-1.78,1.38-3.37,3.71-5.14,5.13-.55.44-1.28.76-1.98.75-.96-.02-3.62-1.56-4.56-2.13-5.55-3.37-12.91-10.85-15.7-16.72-.61-1.28-1.24-2.77-.28-4.04,1.38-1.82,3.82-3.52,5.32-5.33.7-.85.98-1.72.53-2.76-.12-.27-.56-.84-.77-1.08-2.29-2.66-5.32-5.03-7.67-7.67-.79-.59-1.44-.89-2.45-.72Z"/>
      <path class="cls-1" d="M35.16.03c.2-.04.39-.04.59-.02.62.07,1.79.36,2.45.52,12.16,2.95,22.27,12.91,25.31,25.06.18.73.6,2.4.59,3.07-.01,1.36-1.51,2.21-2.72,1.53-1.09-.61-1.06-2.39-1.34-3.48-2.91-11.34-11.63-19.87-22.96-22.71-1.04-.26-2.64-.2-3.18-1.28s.02-2.47,1.25-2.69Z"/>
      <path class="cls-1" d="M34.67,11.67c.52-.09,1.81.26,2.39.4,7.25,1.87,13.21,7.87,15.07,15.13.11.42.43,1.74.4,2.07-.13,1.44-1.79,2.21-2.97,1.36-.85-.6-.87-2.09-1.15-3.06-1.87-6.56-7.5-11.33-14.21-12.4-1.54-.76-1.25-3.21.46-3.51Z"/>
    </g>
  </g>
</svg>