<?xml version="1.0" encoding="UTF-8"?>
<svg id="Layer_2" data-name="Layer 2" xmlns="http://www.w3.org/2000/svg" viewBox="0 0 119.16 86.37">
  <defs>
    <style>
      .cls-1 {
        fill: #4c4c4c;
      }
    </style>
  </defs>
  <g id="Layer_1-2" data-name="Layer 1">
    <path class="cls-1" d="M91.48,23.33s.74-.38.9-.51c4.33-3.5,8.94-7.71,13.46-10.88,5.51-3.87,12.36-.59,13.32,5.87v50.75c-.94,6.46-7.85,9.68-13.32,5.87-4.51-3.14-9.14-7.39-13.46-10.88-.26-.21-.6-.38-.9-.51v6.79c0,.06-.19.15-.21.3-1.26,9.64-9.06,15.52-18.38,16.23-.43.03-.8-.26-1.25-.27-17.87-.53-36.06.41-53.82.02-8.99-.04-16.62-7.49-17.81-16.27L.02,16.3C1.47,7.15,9.1.42,18.33,0c17.66.1,35.61.81,53.3.29.86-.03,1.13-.06,2.05-.02,9.03.45,16.4,6.89,17.59,15.97.02.15.21.24.21.3v6.79ZM19.41,8.53c-4.67.3-8.89,1.97-10.38,6.79-.61,1.97-.44,3.86-.84,5.83.58,14.86-.85,30.38.26,45.11.13,1.72.04,3.07.58,4.8,1.2,3.9,4.36,5.95,8.28,6.58,18.78.44,37.82.44,56.6,0,5.35-.82,8.37-3.67,9.09-9.1.09-.65-.04-1.36.02-2.03,1.21-14.84-.4-30.65.26-45.62-.4-2.43-.32-4.94-1.49-7.22-2.03-3.94-6.1-4.83-10.16-5.21l-52.22.07ZM110.95,67.27V19.11s-.38-.52-.51-.26l-18.93,15.02-.04,18.53,18.97,15.14c.13.25.49-.19.51-.26Z"/>
  </g>
</svg>