<?xml version="1.0" encoding="UTF-8"?>
<svg id="Layer_2" data-name="Layer 2" xmlns="http://www.w3.org/2000/svg" viewBox="0 0 99.37 91.09">
  <defs>
    <style>
      .cls-1 {
        fill: #4c4c4c;
      }
    </style>
  </defs>
  <g id="Layer_1-2" data-name="Layer 1">
    <path class="cls-1" d="M98.64,50.44c-1.71-3.73-5.8-11.42-12.83-18.53l11.11-13.88-6.46-5.18-10.89,13.61c-2.6-1.95-5.49-3.73-8.68-5.24l5.5-16.09-7.84-2.67-5.44,15.93c-2.89-.79-5.97-1.35-9.27-1.6V0h-8.28v16.78c-3.3.26-6.37.81-9.27,1.6l-5.45-15.93-7.84,2.68,5.5,16.09c-3.19,1.5-6.07,3.29-8.68,5.24l-10.89-13.61-6.47,5.18,11.11,13.88c-7.03,7.12-11.12,14.8-12.83,18.54-.99,2.16-.99,4.63,0,6.79,3.64,7.94,17.92,33.87,48.95,33.87s45.31-25.92,48.95-33.88c.98-2.15.98-4.63,0-6.78h0ZM49.69,82.81c-26.09,0-38.3-22.22-41.42-28.93,3.12-6.81,15.32-29.04,41.42-29.04s38.3,22.23,41.42,28.93c-3.12,6.81-15.32,29.04-41.42,29.04ZM49.69,33.13c-11.42,0-20.7,9.29-20.7,20.7s9.29,20.7,20.7,20.7,20.7-9.29,20.7-20.7-9.29-20.7-20.7-20.7ZM49.69,66.25c-6.85,0-12.42-5.57-12.42-12.42s5.57-12.42,12.42-12.42,12.42,5.57,12.42,12.42-5.57,12.42-12.42,12.42Z"/>
  </g>
</svg>