<?xml version="1.0" encoding="UTF-8"?>
<svg id="Layer_2" data-name="Layer 2" xmlns="http://www.w3.org/2000/svg" viewBox="0 0 74.19 68.01">
  <defs>
    <style>
      .cls-1 {
        fill: red;
      }
    </style>
  </defs>
  <g id="Layer_1-2" data-name="Layer 1">
    <path class="cls-1" d="M74.19,55.65V9.27c0-5.11-4.16-9.27-9.27-9.27H9.27C4.16,0,0,4.16,0,9.27v46.37h34.01v6.18h-15.46v6.18h37.1v-6.18h-15.46v-6.18h34.01ZM9.27,6.18h55.65c1.71,0,3.09,1.39,3.09,3.09v27.82H6.18V9.27c0-1.7,1.38-3.09,3.09-3.09ZM6.18,43.28h61.83v6.18H6.18v-6.18ZM25.49,29.45h6.2l.81,4.56h4.6l-4.32-21.04c-.37-2.07-1.82-3.68-4.16-3.68s-3.96,1.81-4.28,3.61l-4.24,21.12h4.54l.85-4.56h0ZM28.55,14.55l1.97,10.19h-3.9l1.93-10.19h0ZM54.41,26.9v-10.51c0-3.92-3.19-7.11-7.11-7.11h-7.11v24.73h7.11c3.92,0,7.11-3.19,7.11-7.11h0ZM45.13,14.22h2.16c1.19,0,2.16.97,2.16,2.16v10.51c0,1.19-.97,2.16-2.16,2.16h-2.16v-14.84h0Z"/>
  </g>
</svg>