<?xml version="1.0" encoding="UTF-8"?>
<svg id="Layer_2" data-name="Layer 2" xmlns="http://www.w3.org/2000/svg" viewBox="0 0 62.35 62.35">
  <defs>
    <style>
      .cls-1 {
        fill: red;
      }
    </style>
  </defs>
  <g id="Layer_1-2" data-name="Layer 1">
    <path class="cls-1" d="M49.36,31.17v15.59c0,1.43-1.16,2.6-2.6,2.6s-2.6-1.16-2.6-2.6v-15.59c0-1.43,1.16-2.6,2.6-2.6s2.6,1.16,2.6,2.6ZM30.08,17.45l7.98,28.65c.45,1.64-.77,3.26-2.48,3.26-1.15,0-2.16-.76-2.47-1.87l-1.67-5.92h-13.52l-1.67,5.92c-.31,1.11-1.32,1.87-2.47,1.87h0c-1.7,0-2.93-1.62-2.48-3.26l8.03-28.86c.37-1.58,1.41-2.91,2.85-3.65,1.48-.76,3.17-.81,4.78-.13,1.52.64,2.69,2.12,3.13,3.99h0ZM29.98,36.37l-5.01-17.76c-.08-.3-.5-.3-.57,0l-5.01,17.76h10.59ZM59.75,25.98c-1.43,0-2.6,1.16-2.6,2.6v20.78c0,4.3-3.5,7.79-7.79,7.79H12.99c-4.3,0-7.79-3.5-7.79-7.79V12.99c0-4.3,3.5-7.79,7.79-7.79h20.78c1.43,0,2.6-1.16,2.6-2.6s-1.16-2.6-2.6-2.6H12.99C5.83,0,0,5.83,0,12.99v36.37c0,7.16,5.83,12.99,12.99,12.99h36.37c7.16,0,12.99-5.83,12.99-12.99v-20.78c0-1.43-1.16-2.6-2.6-2.6h0ZM41.96,13.46l4.85,2.04,1.94,4.84c.42,1.05,1.43,1.74,2.56,1.74s2.14-.69,2.56-1.74l1.92-4.82,4.82-1.92c1.05-.42,1.74-1.43,1.74-2.56s-.69-2.14-1.74-2.56l-4.82-1.92-1.92-4.82c-.42-1.05-1.44-1.74-2.57-1.74s-2.14.69-2.56,1.74l-1.91,4.79-4.78,1.81c-1.05.4-1.76,1.4-1.78,2.53-.02,1.13.65,2.16,1.69,2.6h0Z"/>
  </g>
</svg>