<?xml version="1.0" encoding="UTF-8"?>
<svg id="Layer_2" data-name="Layer 2" xmlns="http://www.w3.org/2000/svg" viewBox="0 0 67.64 67.66">
  <defs>
    <style>
      .cls-1 {
        fill: red;
      }
    </style>
  </defs>
  <g id="Layer_1-2" data-name="Layer 1">
    <path class="cls-1" d="M54.95,52.38c-1.92-1.02-3.91-2.08-4.18-3.27-.13-.54-.07-1.77,1.45-4.15,8.93-1.28,15.41-13.89,15.41-25.23.32-9.02-6.74-16.59-15.76-16.91-.38-.01-.76-.01-1.15,0-5.53-.15-10.78,2.48-13.96,7.01C31.3.41,19.24-2.8,9.82,2.66,3.74,6.19,0,12.69,0,19.73,0,30.92,6.36,43.64,15.19,47.02c-.61,1.02-.99,2.16-1.1,3.34,0,4.43,4.2,6.39,7.26,7.82,1.69.79,4.01,1.87,4.01,2.71-.23.87-.64,1.69-1.21,2.4-.84,1.31-.46,3.05.85,3.89s3.05.46,3.89-.85h0c1.2-1.58,1.92-3.47,2.1-5.44,0-4.43-4.2-6.39-7.26-7.82-1.69-.79-4.01-1.88-4.04-2.44.43-1.01.97-1.97,1.6-2.86,6.63-.86,12.2-7.04,15.36-14.65,1.77,4.7,5.19,8.59,9.62,10.97-1.05,1.92-1.4,4.15-1,6.31.86,3.69,4.28,5.51,7.03,6.97,1.74.92,3.7,1.97,4,3.01.07,1.09-.24,2.16-.89,3.04-.79,1.34-.34,3.07,1.01,3.86,1.34.79,3.07.34,3.86-1.01,0-.01.01-.02.02-.03,1.49-2.16,2.01-4.84,1.43-7.4-1.27-2.99-3.72-5.33-6.77-6.44ZM19.72,42.27c-7.46,0-14.09-12.61-14.09-22.54,0-7.78,6.31-14.09,14.09-14.09s14.09,6.31,14.09,14.09c0,9.94-6.63,22.54-14.09,22.54ZM39.45,19.73c-.33-5.89,4.17-10.94,10.07-11.27.4-.02.8-.02,1.21,0,5.89-.33,10.94,4.17,11.27,10.07.02.4.02.8,0,1.21,0,9.58-5.79,19.72-11.27,19.72s-11.27-10.14-11.27-19.72Z"/>
  </g>
</svg>