<?xml version="1.0" encoding="UTF-8"?>
<svg id="Layer_2" data-name="Layer 2" xmlns="http://www.w3.org/2000/svg" viewBox="0 0 64.98 64.92">
  <defs>
    <style>
      .cls-1 {
        fill: red;
      }
    </style>
  </defs>
  <g id="Layer_1-2" data-name="Layer 1">
    <path class="cls-1" d="M16.25,48.67h32.49c1.49,0,2.71,1.21,2.71,2.71s-1.21,2.71-2.71,2.71H16.25c-1.49,0-2.71-1.21-2.71-2.71s1.21-2.71,2.71-2.71ZM20.29,38.37c-.85,2.38.91,4.88,3.44,4.88h8.76c4.73,0,8.52-4.04,8.09-8.86s-5.26-8.11-10.02-7.2c-5.65,1.09-8.73,6.86-10.28,11.18h0ZM8.12,17.54c0,2.24,1.82,4.06,4.06,4.06s4.06-1.82,4.06-4.06-1.82-4.06-4.06-4.06-4.06,1.82-4.06,4.06ZM23.01,13.48c-2.24,0-4.06,1.82-4.06,4.06s1.82,4.06,4.06,4.06,4.06-1.82,4.06-4.06-1.82-4.06-4.06-4.06ZM62.28,21.6c-1.49,0-2.71,1.21-2.71,2.71v27.08c0,4.48-3.64,8.12-8.12,8.12H13.54c-4.48,0-8.12-3.64-8.12-8.12v-21.66h10.83c1.49,0,2.71-1.21,2.71-2.71s-1.21-2.71-2.71-2.71H5.42v-5.42c0-4.48,3.64-8.12,8.12-8.12h21.66c1.49,0,2.71-1.21,2.71-2.71s-1.21-2.71-2.71-2.71H13.54C6.07,5.35,0,11.43,0,18.89v32.49c0,7.46,6.07,13.54,13.54,13.54h37.91c7.46,0,13.54-6.07,13.54-13.54v-27.08c0-1.49-1.21-2.71-2.71-2.71ZM36.13,23.46c1.12,1,2.83.9,3.82-.22l3.8-4.27c4.12-4.64,11.03-12.41,11.46-12.87.98-.98,2.63-.97,3.61,0,1,1,1,2.62,0,3.62l-15.64,15.64c-1.06,1.06-1.06,2.77,0,3.83,1.06,1.06,2.77,1.06,3.83,0l15.64-15.64c3.1-3.11,3.1-8.16,0-11.27-3-3.01-8.21-3.07-11.32.04-.46.48-5.54,6.2-11.72,13.15l-3.71,4.18c-.99,1.12-.89,2.83.22,3.82h0Z"/>
  </g>
</svg>