<?xml version="1.0" encoding="UTF-8"?>
<svg id="Layer_2" data-name="Layer 2" xmlns="http://www.w3.org/2000/svg" viewBox="0 0 68.01 68.01">
  <defs>
    <style>
      .cls-1 {
        fill: red;
      }
    </style>
  </defs>
  <g id="Layer_1-2" data-name="Layer 1">
    <path class="cls-1" d="M63.65,25.78l-4.13-3.96v-10.49c0-6.25-5.08-11.34-11.34-11.34h-28.34c-6.25,0-11.34,5.08-11.34,11.34v10.49l-4.13,3.96c-2.77,2.66-4.37,6.39-4.37,10.23v17.83c0,7.81,6.36,14.17,14.17,14.17h39.67c7.81,0,14.17-6.36,14.17-14.17v-17.83c0-3.84-1.59-7.57-4.37-10.23ZM19.84,5.67h28.34c3.13,0,5.67,2.54,5.67,5.67v23.36l-13.83,13.83c-3.21,3.21-8.81,3.21-12.02,0l-13.83-13.83V11.34c0-3.13,2.54-5.67,5.67-5.67ZM62.35,53.84c0,4.69-3.81,8.5-8.5,8.5H14.17c-4.69,0-8.5-3.81-8.5-8.5v-17.83c0-.55.06-1.1.17-1.64l18.15,18.15c2.67,2.68,6.23,4.15,10.02,4.15s7.35-1.48,10.02-4.15l18.15-18.15c.1.54.17,1.09.17,1.64v17.83ZM20.74,27.02c-1.14-1.07-1.21-2.86-.15-4,1.07-1.15,2.87-1.21,4-.15l5.25,4.88c.76.76,1.89.76,2.58.07l10.95-10.55c1.13-1.09,2.92-1.05,4.01.07,1.09,1.13,1.05,2.92-.07,4.01l-10.91,10.52c-1.43,1.43-3.32,2.14-5.21,2.14s-3.82-.73-5.27-2.18l-5.17-4.81h0Z"/>
  </g>
</svg>