<?xml version="1.0" encoding="UTF-8"?>
<svg id="Layer_2" data-name="Layer 2" xmlns="http://www.w3.org/2000/svg" viewBox="0 0 123.88 124.05">
  <defs>
    <style>
      .cls-1 {
        fill: red;
      }
    </style>
  </defs>
  <g id="Layer_1-2" data-name="Layer 1">
    <path class="cls-1" d="M123.88.69v72.95c-.69.75-1.66,1.13-2.55,1.54-13.25,6.04-30.91,9.28-45.29,6.38-21.86-4.41-36.12-14.7-58.98-4.7-2.27.99-5,2.31-6.81,3.94v43.26H0V12.72c4.18-3.01,9.05-5.72,13.82-7.68C18.53,3.09,25.98.64,30.99.19c22.53-2.03,42.3,12.75,64.98,9.69,5.11-.69,11.78-2.57,16.67-4.32,3.84-1.37,7.45-3.41,11.24-4.88ZM56.82,34.47V14.76c0-1.19-2.61-1.18-3.24-1.37-3.38-1.04-8.37-2.56-11.88-2.96-1-.12-5.87-.32-5.87.75v19.71c1.83.61,3.67.29,5.4.49,3.09.35,6.56,1,9.6,1.66.95.21,5.59,1.83,5.99,1.43ZM10.24,18.35v19.2c4.7-1.4,9.14-3.98,14-4.68.36-.11,1.87-1.59,1.87-1.71V13.23c0-.09-.73-.71-.51-1.28-2.13-.11-15.06,5.3-15.36,6.4ZM98.28,40.1c2.31.15,4.56-.59,6.78-1.15,2.8-.71,6.25-1.56,8.58-3.2v-18.94c0-.07-.71-.97-1.02-.53l-14.34,3.34v20.48ZM88.05,20.65c-2.48-.79-4.94-.28-7.4-.53-4.39-.44-9.08-2.7-13.58-2.54v19.96l12.05,3.05c.66.09,1.36-.07,2.01.03,1,.16,6.93,1.89,6.93.24v-20.22ZM56.82,45.22c-6.92-1.71-13.75-4.12-20.99-3.58v20.48c1.25.08,2.58-.13,3.82.02,4.77.58,9.8,2.37,14.36,3.04.9.13,1.89-.05,2.8.01v-19.96ZM25.59,43.17c-2.55.35-5.28,1.33-7.68,2.3-1.77.72-5.1,2.14-6.64,3.09-.41.25-.68.7-1.04,1.01v18.43c0,.14.46.73,1.02.52,2.32-.86,4.77-2.25,7.15-3.1,1.08-.39,2.36-.83,3.44-1.17,1.19-.37,2.79.04,3.75-1.37v-19.71ZM113.64,47.27c-1.45-.4-2.31.61-3.42.93-2.53.73-5.58,1.46-8.2,2.04-.96.21-2.97.01-3.66.7-.05.05-.59,1.13-.59,1.2v17.92c0,.09.7.72.52,1.27,4.42-.67,10.45-1.75,14.5-3.65.35-.17.62-.37.85-.69v-19.71ZM88.05,51.88c-2.11-.87-4.22-.31-6.38-.53-1.57-.16-4.56-.7-6.15-1.02-2.72-.55-5.66-1.93-8.46-2.03v20.48c4.18.72,8.4,2.31,12.56,3.05.64.11,1.36-.07,2.01.03,2.12.32,4.35,1.2,6.41.5v-20.48Z"/>
  </g>
</svg>