<?xml version="1.0" encoding="UTF-8"?>
<svg id="Layer_2" data-name="Layer 2" xmlns="http://www.w3.org/2000/svg" viewBox="0 0 67.95 67.95">
  <defs>
    <style>
      .cls-1 {
        fill: red;
      }
    </style>
  </defs>
  <g id="Layer_1-2" data-name="Layer 1">
    <path class="cls-1" d="M53.79,0H14.16C6.35,0,0,6.35,0,14.16v22.65c0,7.81,6.35,14.16,14.16,14.16h39.64c7.81,0,14.16-6.35,14.16-14.16V14.16c0-7.81-6.35-14.16-14.16-14.16ZM62.29,36.81c0,4.68-3.81,8.49-8.49,8.49H14.16c-4.68,0-8.49-3.81-8.49-8.49V14.16c0-4.68,3.81-8.49,8.49-8.49h39.64c4.68,0,8.49,3.81,8.49,8.49v22.65ZM28.31,62.29c0,3.13-2.53,5.66-5.66,5.66s-5.66-2.53-5.66-5.66,2.53-5.66,5.66-5.66,5.66,2.53,5.66,5.66ZM43.4,19.84l-11.32-6.29c-4.09-2.45-9.74.87-9.58,5.64v12.57c-.16,4.77,5.49,8.09,9.58,5.64l11.32-6.29c4.36-2.25,4.36-9.02,0-11.27h0ZM40.65,26.17l-11.32,6.29c-.33.18-.6.09-.78,0-.18-.1-.39-.31-.39-.68v-12.58c0-.37.21-.57.39-.68.1-.06.24-.12.4-.12.12,0,.24.03.38.1l11.32,6.29c.34.19.41.48.41.69s-.07.5-.4.69h0ZM67.95,62.29c0,1.57-1.27,2.83-2.83,2.83h-28.31c-1.56,0-2.83-1.27-2.83-2.83s1.27-2.83,2.83-2.83h28.31c1.56,0,2.83,1.27,2.83,2.83ZM11.33,62.29c0,1.57-1.27,2.83-2.83,2.83H2.83c-1.56,0-2.83-1.27-2.83-2.83s1.27-2.83,2.83-2.83h5.66c1.56,0,2.83,1.27,2.83,2.83Z"/>
  </g>
</svg>