<?xml version="1.0" encoding="UTF-8"?>
<svg id="Layer_2" data-name="Layer 2" xmlns="http://www.w3.org/2000/svg" viewBox="0 0 65.87 79.05">
  <defs>
    <style>
      .cls-1 {
        fill: red;
      }
    </style>
  </defs>
  <g id="Layer_1-2" data-name="Layer 1">
    <path class="cls-1" d="M55.99,59.29h-1.3c-4.22-8.26-7.03-17.17-8.32-26.35h6.32v-6.59h-5.32l4.94-10.97c1.22-3.43-.58-7.19-4-8.41-.71-.25-1.45-.38-2.2-.38h-9.88V0h-6.59v6.59h-9.88c-2.14,0-4.15,1.04-5.38,2.79-1.27,1.83-1.54,4.18-.72,6.26l4.84,10.71h-5.32v6.59h6.32c-1.29,9.18-4.1,18.09-8.32,26.35h-1.3c-5.46,0-9.88,4.42-9.88,9.88v9.88h65.87v-9.88c0-5.46-4.42-9.88-9.88-9.88ZM19.76,13.17h26.45l-6.05,13.17h-14.44l-5.95-13.17ZM26.12,32.94h13.64c1.09,9.14,3.67,18.04,7.62,26.35h-28.87c3.95-8.31,6.52-17.21,7.62-26.35ZM59.29,72.46H6.59v-3.29c0-1.82,1.47-3.29,3.29-3.29h46.11c1.82,0,3.29,1.47,3.29,3.29v3.29Z"/>
  </g>
</svg>