<?xml version="1.0" encoding="UTF-8"?>
<svg id="Layer_2" data-name="Layer 2" xmlns="http://www.w3.org/2000/svg" viewBox="0 0 78.79 57.11">
  <defs>
    <style>
      .cls-1 {
        fill: red;
      }
    </style>
  </defs>
  <g id="Layer_1-2" data-name="Layer 1">
    <path class="cls-1" d="M60.48,15.43s.49-.25.6-.33c2.86-2.31,5.91-5.1,8.9-7.2,3.64-2.56,8.17-.39,8.81,3.88v33.55c-.62,4.27-5.19,6.4-8.81,3.88-2.98-2.08-6.04-4.89-8.9-7.2-.17-.14-.4-.25-.6-.33v4.49s-.12.1-.14.2c-.84,6.38-5.99,10.26-12.15,10.73-.28.02-.53-.17-.83-.18-11.82-.35-23.84.27-35.59.01-5.94-.03-10.99-4.95-11.77-10.76V10.78C.97,4.73,6.02.28,12.12,0c11.68.07,23.55.53,35.24.19.57-.02.74-.04,1.35-.01,5.97.3,10.84,4.56,11.63,10.56.01.1.14.16.14.2v4.49ZM12.83,5.64c-3.09.2-5.88,1.3-6.86,4.49-.4,1.31-.29,2.55-.55,3.85.38,9.82-.56,20.08.17,29.83.09,1.14.03,2.03.38,3.18.79,2.58,2.88,3.93,5.47,4.35,12.42.29,25.01.29,37.43,0,3.53-.54,5.53-2.43,6.01-6.01.06-.43-.02-.9.01-1.34.8-9.81-.26-20.26.17-30.17-.27-1.61-.21-3.27-.99-4.77-1.34-2.6-4.03-3.19-6.72-3.44l-34.53.04ZM73.36,44.48V12.63s-.25-.34-.34-.17l-12.52,9.93-.03,12.25,12.54,10.01c.09.16.33-.13.34-.17Z"/>
  </g>
</svg>