<?xml version="1.0" encoding="UTF-8"?>
<svg id="Layer_2" data-name="Layer 2" xmlns="http://www.w3.org/2000/svg" viewBox="0 0 188.91 80.45">
  <defs>
    <style>
      .cls-1 {
        fill: #fff;
      }
    </style>
  </defs>
  <g id="Layer_1-2" data-name="Layer 1">
    <g>
      <path class="cls-1" d="M133.59,8.32c1.64-.75,3.73-.1,5.43.27,2.12.47,4.25.93,6.37,1.4.81.18,1.68.39,2.2,1.04.59.73.53,1.76.45,2.69-1.31,14.95-4.72,29.94-7.64,44.67-.76,3.88-.86,7.97-2.5,11.63-1.22,2.72-4.59,7.31-8.15,6.25-1.38-.41-2.48-1.46-3.51-2.46-3.53-3.45-7.23-7.17-8.31-11.99-.7-3.1-.23-6.33.42-9.44,1-4.77,2.39-9.47,3.72-14.15,1.5-5.29,3.06-10.57,4.8-15.79.77-2.32,1.58-4.63,2.46-6.91.87-2.23,1.62-5.14,3.51-6.71.24-.2.49-.35.75-.47ZM131.2,53.39c.32.14.65.25,1,.25,2.04-.02,2.61-6,2.96-7.52.8-3.48,1.5-6.98,2.21-10.48.35-1.7.7-3.4,1.08-5.09.33-1.49.94-3.16,1.04-4.67.04-.59-.16-1.23-.65-1.57-.36-.25-.82-.3-1.26-.34-.55-.05-1.11-.1-1.66-.15-.37-.03-.75-.07-1.09.06-.71.26-.96,1.57-1.18,2.2-2.04,5.86-4.08,11.71-6.12,17.57-.75,2.16-1.48,4.64-.36,6.63.74,1.32,2.14,2.1,3.48,2.82.18.1.37.2.56.29Z"/>
      <path class="cls-1" d="M6.48,25.05c1.09-1.59,3.92-2.15,5.55-2.58,2.67-.7,2.34,1.52,1.88,3.25-.68,2.51-1.27,5.07-1.9,7.6,7.06-4.5,13.34-10.37,20.25-15.14,1.38-.95,3.22-1.89,4.58-.88,1.01.74,1.19,2.29.76,3.48-.79,2.16-3.02,3.98-4.63,5.45-2,1.82-4.05,3.58-6.09,5.36-1.94,1.7-3.87,3.42-5.71,5.24-1.36,1.35-3.25,2.75-3.14,5.01.06,1.27.56,2.53,1.05,3.76,1.94,4.87,3.9,9.76,6.55,14.33.64,1.09,1.33,2.21,1.55,3.41.23,1.21-.15,2.55-1.2,2.95-.76.29-1.69.01-2.44-.5-2.61-1.74-4.4-5.35-6.25-7.86-2.13-2.91-4.3-5.8-6.5-8.66-.41-.53-.92-1.11-1.57-1.08-.81.05-1.23.99-1.49,1.78-.59,1.83-1.17,3.66-1.76,5.49-.24.74-.56,1.57-1.26,1.82-.55.2-1.16-.04-1.67-.34-3.28-1.96-3.43-5.6-2.57-8.95,1.15-4.45,2.29-8.91,3.44-13.36.41-1.59.82-3.19,1.23-4.78.36-1.4.55-3.1,1.14-4.4.06-.14.14-.26.22-.39Z"/>
      <path class="cls-1" d="M99.29,80.43c-1.19-.07-2.37-.32-3.28-1.06-1.29-1.04-1.73-2.79-2.09-4.41-2.07-9.23-4.14-18.46-6.21-27.68-.78-3.49-1.57-7.04-1.27-10.6.42-4.95,2.88-9.45,5.3-13.79,3.74-6.72,7.48-13.45,11.23-20.17.55-.99,1.18-2.05,2.23-2.49,1.8-.75,3.71.67,5.15,1.99,2.12,1.96,4.24,3.92,6.36,5.88.94.87,1.91,1.77,2.43,2.94,1.19,2.66-.81,8.35-1.23,11.16-.63,4.23-1.25,8.46-1.87,12.69-1.28,8.75-2.55,17.49-3.85,26.23-.48,3.22-1.03,6.7-1.74,9.99-.59,2.7-.47,5.55-2.9,7.4-2,1.52-4.63,1.91-7.14,1.95-.36,0-.73,0-1.1-.02ZM100.56,62.5c.58.3,1.31.35,1.87.02.88-.52.82-1.52.98-2.45.34-1.91.57-3.84.89-5.75,1.04-6.11,2.15-12.2,3.27-18.3.55-3.01,1.1-6.03,1.64-9.04.37-2.07,1.61-5.49.2-7.4-3.47-4.7-5.32,1.52-6.52,4.16-1.09,2.39-2.21,4.77-3.15,7.22-1.66,4.3-1.8,8.52-1.67,13.08.15,4.99.56,9.97.98,14.95.09,1.07.21,2.22.9,3.04.17.2.38.36.62.49Z"/>
      <path class="cls-1" d="M44.24,66.78c-.03-3.71,0-7.43-.03-11.15,0-1.02.13-2.1-.06-3.11-.13-.7-.47-1.4-1.04-1.82-.74-.54-1.76-.56-2.61-.22-1.01.4-1.79,1.22-2.53,2.01-1.32,1.41-2.64,2.82-3.95,4.23-.57.6-1.24,1.26-2.07,1.22-.83-.04-1.45-.76-1.93-1.45-.93-1.34-1.74-2.77-2.4-4.26-.99-2.21.5-3.29,1.54-5.1,1.39-2.44,2.87-4.84,4.35-7.23,3.3-5.31,6.69-10.56,10.08-15.82,1.11-1.72,2.3-3.42,3.3-5.21.65-1.17,1.31-2.34,1.66-3.61.41-1.47-.42-3.14.52-4.38,1.01-1.34,2.54-2.41,4.02-3.31.81-.5,1.66-.95,2.53-1.37.48-.23,1.5-.92,2.05-.88,1.2.09,1.32,1.68,1.24,2.45-2.07,18.95-4.78,37.87-5.37,56.9-.06,1.94-.1,3.92-.75,5.78-.65,1.86-2.01,3.61-4.02,4.38-2.77,1.05-4.37-.88-4.43-3.1-.05-1.65-.07-3.3-.08-4.95ZM49.23,36.01c.05-.77.1-1.49.19-2.09.1-.67.2-1.37.05-1.99-.15-.62-.63-1.14-1.22-1.05-.62.09-1.1.78-1.48,1.39-1.71,2.73-3.76,5.56-4.81,8.63-.12.36-.23.73-.21,1.1.02.38.19.76.52.95.39.22.87.1,1.3-.03,1.01-.29,2.03-.59,3.04-.88.47-.13.94-.28,1.33-.57,1.37-1.02,1.19-3.96,1.29-5.45Z"/>
      <path class="cls-1" d="M58.04,71c2.52-22.85,5.93-45.63,10.21-68.3.11-.59.27-1.25.86-1.6,1.03-.62,2.44.13,3.38.84,4.55,3.46,9.1,6.92,13.65,10.38,1.05.8,2.14,1.65,2.55,2.77,1.48,4.03-5.51,8.59-8.32,11.14-5.91,5.38-5.69,7-2.54,15.01,2.04,5.17,7.95,10.55,6.22,16.34-.77,2.59-3.13,4.63-5.48,6.47-5.4,4.22-11.24,8.05-17.43,11.44-.58.32-1.24.65-1.93.54-1.33-.2-1.53-1.68-1.41-2.79.08-.75.16-1.5.24-2.25ZM75.29,52.4c-.14-.94-.51-1.86-.87-2.76-.62-1.53-1.24-3.05-1.85-4.58-.29-.72-.64-1.51-1.44-1.9-2.03-1-2.45,1.58-2.62,2.58-.63,3.72-1.25,7.43-1.88,11.15-.13.8-.27,1.64.02,2.41,1.7,4.6,8.57-3.74,8.69-5.88.02-.34,0-.68-.05-1.02ZM77.41,19.39c.59-.79.7-1.55.14-2.44-.34-.54-1.25-1.37-1.9-1.64-.51-.22-1.2-.21-1.58.14-.26.24-.32.58-.36.9-.2,1.36-.41,2.72-.61,4.07-.31,2.05,3.57-.12,4.17-.85.05-.06.1-.12.14-.18Z"/>
      <path class="cls-1" d="M156.29,54.82c-.79,3.46-1.57,6.91-2.36,10.37-.34,1.51-.92,3.28-2.39,3.71-1.02.29-2.11-.21-2.88-.94-2.1-1.99-2.28-5.32-1.72-8.18.34-1.78,3.47-17.88,4.18-21.67.76-4.07,1.53-8.13,2.3-12.2.43-2.28.46-8.25,3.68-8.68,1.16-.16,2.31.49,3.08,1.38.77.89,1.23,2.01,1.68,3.11,1.31,3.22,2.62,6.45,3.93,9.67.32.79.65,1.59.97,2.38.22.55.43,1.51.86,1.94,1.04,1.04,2.28-.94,2.75-1.71,1.08-1.78,2.32-3.44,3.66-5.02.96-1.13,1.78-2.72,3.55-2.51,1,.12,1.75.98,2.3,1.84.68,1.06,1.13,2.24,1.84,3.28,1.19,1.77,2.29,3.6,3.49,5.36.52.75,1.02,1.59,1.6,2.28.67.8,1.34,1.39,1.75,2.39.33.8.49,1.7.25,2.53-.51,1.76-2.72,2.26-4.26,1.75-1.51-.51-2.6-1.82-3.6-3.07-.99-1.23-1.97-2.46-2.96-3.68-.78-.97-1.55-2.12-2.73-.79-.39.44-.6,1-.8,1.55-.74,2.01-1.47,4.02-2.2,6.03-.41,1.13-.84,2.28-1.63,3.18-.79.9-2.03,1.49-3.17,1.16-1.21-.35-1.94-1.56-2.54-2.68-.95-1.74-1.89-3.49-2.84-5.23-.28-.51-.61-1.07-1.17-1.23-.6-.17-1.25.22-1.58.76-.49.79-.51,1.88-.71,2.77-.26,1.15-.52,2.3-.79,3.45-.26,1.15-.52,2.3-.79,3.45-.23,1-.74,2.24-.74,3.26Z"/>
      <path class="cls-1" d="M103.42,68.95c.05.23.11.45.16.68"/>
    </g>
  </g>
</svg>