<?xml version="1.0" encoding="UTF-8"?>
<svg id="Layer_2" data-name="Layer 2" xmlns="http://www.w3.org/2000/svg" viewBox="0 0 395.09 161.73">
  <defs>
    <style>
      .cls-1 {
        fill: #4c4c4c;
      }
    </style>
  </defs>
  <g id="Layer_1-2" data-name="Layer 1">
    <g>
      <g>
        <path class="cls-1" d="M75.63,74.65c-8.24-22.4-21.51-57.7-21.51-57.7,0,0-14.16,35.48-23.3,58.24-.72,1.79-1.43,3.58-1.97,5.38,5.91,0,15.05.18,24.19.18,7.53,0,17.2-.18,24.73-.18-.72-1.97-1.44-3.94-2.15-5.91M95.34,129.67s-7.71-21.86-14.87-41.58c-7.53,0-18.64-.18-27.42-.18-10.57,0-21.86.18-27.24.36-7.71,19.53-16.31,41.4-16.31,41.4-3.76-.18-6.27-.18-9.5,0,0,0,16.67-40.32,27.24-66.13C37.28,38.99,52.87.46,52.87.46c3.23.36,10.75.18,14.34,0,0,0,14.34,38.89,23.66,63.44,9.68,25.63,25.09,65.77,25.09,65.77-4.48-.36-15.95-.36-20.61,0"/>
        <path class="cls-1" d="M159.71,96.68c-5.35,12.93-13.37,32.98-13.37,32.98-3.12-.3-7.73-.3-11,0,0,0-8.32-23.77-11.89-33.58-5.94-16.19-13.07-35.06-13.07-35.06,4.75.3,11.44.3,15.9,0,0,0,5.5,16.34,9.21,26.89,3.71,10.4,10.4,28.08,10.4,28.08,0,0,7.43-17.38,11.29-26.89,4.16-10.4,10.99-28.08,10.99-28.08,3.71.15,3.57.15,6.83,0,0,0-9.95,22.88-15.3,35.66"/>
        <path class="cls-1" d="M210.37,61.77c-8.62,0-18.27,8.47-18.27,26.74h37c0-16.79-7.73-26.74-18.72-26.74M191.95,93.12c.3,10.4,5.2,30.61,26.45,30.61,7.28,0,15.01-2.67,21.69-9.66l2.08,2.82c-3.71,3.57-12.18,14.26-31.8,14.26-18.42,0-34.91-13.97-34.91-37.29s19.32-35.96,34.91-35.96c17.09,0,35.36,11.29,34.47,35.21h-52.89Z"/>
        <path class="cls-1" d="M301.89,129.67c.3-9.51.3-16.05.15-24.96v-20.8c0-6.39-3.42-16.49-13.22-16.49-9.06,0-17.68,8.77-19.31,11.59-.15,5.79,0,12.78,0,19.46,0,10.85.3,22.58.45,31.2-5.35-.45-10.4-.3-15.3,0,0,0,.59-15.9.59-32.54,0-13.37-.15-28.08-.59-36.1,5.35.15,9.06.15,15.15,0,0,4.01,0,7.87-.45,11.29,6.83-6.84,14.86-13.82,26.15-13.82,9.36,0,16.34,5.35,19.46,12.33,1.78,4.16,1.93,9.51,1.78,15.15-.15,4.01-.15,10.1-.15,17.24,0,7.87.15,16.94.45,26.45-5.2-.3-10.7-.3-15.16,0"/>
        <path class="cls-1" d="M360.58,61.77c-8.62,0-18.27,8.47-18.27,26.74h37c0-16.79-7.73-26.74-18.72-26.74M342.15,93.12c.3,10.4,5.2,30.61,26.45,30.61,7.28,0,15.01-2.67,21.69-9.66l2.08,2.82c-3.71,3.57-12.18,14.26-31.8,14.26-18.42,0-34.91-13.97-34.91-37.29s19.32-35.96,34.91-35.96c17.09,0,35.36,11.29,34.47,35.21h-52.89Z"/>
      </g>
      <polygon class="cls-1" points="109.67 1.22 121.38 1.22 121.38 3.44 112.19 3.44 112.19 9.82 121.11 9.82 121.11 12.03 112.19 12.03 112.19 20.46 121.38 20.46 121.38 22.67 109.67 22.67 109.67 1.22"/>
      <path class="cls-1" d="M141.24,5.78l-3.86,8.59h7.64l-3.77-8.59ZM136.35,16.59l-2.72,6.09h-2.76L141.3.2l10.15,22.48h-2.79l-2.67-6.09h-9.64Z"/>
      <path class="cls-1" d="M163.67,14c0,1.59-.06,3.41.99,4.78.99,1.31,2.9,2.05,4.55,2.05s3.38-.71,4.43-1.91c1.2-1.37,1.11-3.24,1.11-4.92V1.22h2.52v13.43c0,2.33-.18,4.18-1.98,5.95-1.56,1.59-3.8,2.45-6.08,2.45-2.13,0-4.31-.77-5.84-2.19-1.98-1.79-2.22-3.76-2.22-6.2V1.22h2.52v12.77Z"/>
      <polygon class="cls-1" points="211.55 22.67 209.04 22.67 209.04 3.44 203.59 3.44 203.59 1.22 217.06 1.22 217.06 3.44 211.55 3.44 211.55 22.67"/>
      <polygon class="cls-1" points="241.14 9.93 241.14 1.22 243.65 1.22 243.65 22.67 241.14 22.67 241.14 12.15 229.58 12.15 229.58 22.67 227.06 22.67 227.06 1.22 229.58 1.22 229.58 9.93 241.14 9.93"/>
      <polygon class="cls-1" points="255.63 1.22 267.34 1.22 267.34 3.44 258.15 3.44 258.15 9.82 267.07 9.82 267.07 12.03 258.15 12.03 258.15 20.46 267.34 20.46 267.34 22.67 255.63 22.67 255.63 1.22"/>
      <path class="cls-1" d="M281.44,11.15h.78c2.85,0,5.72-.51,5.72-3.84,0-3.53-2.73-3.87-5.75-3.87h-.75v7.71ZM281.44,22.67h-2.52V1.22h3.26c4.28,0,8.27,1.08,8.27,5.92,0,3.3-2.19,5.63-5.66,5.92l7.19,9.62h-3.08l-6.83-9.42h-.63v9.42Z"/>
      <polygon class="cls-1" points="305.4 0 313.61 18.01 321.84 0 326.42 22.68 323.85 22.68 320.94 8.16 320.88 8.16 313.61 23.56 306.36 8.16 306.3 8.16 303.39 22.68 300.82 22.68 305.4 0"/>
      <path class="cls-1" d="M344.87,5.78l-3.86,8.59h7.64l-3.77-8.59ZM339.99,16.59l-2.72,6.09h-2.76L344.93.2l10.15,22.48h-2.79l-2.67-6.09h-9.64Z"/>
      <polygon class="cls-1" points="367.36 20.46 373.59 20.46 373.59 22.67 364.84 22.67 364.84 1.22 367.36 1.22 367.36 20.46"/>
      <polygon class="cls-1" points="383.38 1.22 395.09 1.22 395.09 3.44 385.9 3.44 385.9 9.82 394.82 9.82 394.82 12.03 385.9 12.03 385.9 20.46 395.09 20.46 395.09 22.67 383.38 22.67 383.38 1.22"/>
      <polygon class="cls-1" points="3.24 158.5 7.8 158.5 7.8 161.08 .01 161.08 .01 145.86 3.24 145.86 3.24 158.5"/>
      <path class="cls-1" d="M17.85,149.92h-.04l-1.82,5.53h3.93l-2.06-5.53ZM15.06,157.87l-1.36,3.21h-3.4l6.45-15.62h2.5l6.27,15.62h-3.44l-1.27-3.21h-5.75Z"/>
      <g>
        <path class="cls-1" d="M32.59,158.7h.68c1.73,0,3.22-.2,3.22-2.18s-1.75-2.06-3.38-2.06h-.53v4.24ZM32.59,152.2h.39c1.58,0,2.35-.42,2.35-2s-.97-1.96-2.33-1.96h-.42v3.96ZM29.37,145.86h4.01c3.07,0,4.96,1.11,4.96,4.14,0,1.09-.42,2.34-1.45,2.95,1.95.32,2.83,2.14,2.83,3.82,0,2.99-2.28,4.32-5.29,4.32h-5.07v-15.22Z"/>
        <path class="cls-1" d="M51.74,148.39c-3.05,0-4.85,2.48-4.85,4.95s1.27,5.23,4.85,5.23,4.85-2.89,4.85-5.23c0-2.46-1.8-4.95-4.85-4.95M51.74,161.49c-5.04,0-8.18-3.55-8.18-8.03s3.25-7.99,8.18-7.99,8.18,3.47,8.18,7.99-3.14,8.03-8.18,8.03"/>
        <path class="cls-1" d="M67.58,152.87h.42c1.78,0,3.03-.48,3.03-2.34s-1.29-2.24-3.01-2.24h-.44v4.58ZM75.55,161.08h-3.9l-4.01-6.14h-.04v6.14h-3.22v-15.22h4.37c3.27,0,5.53,1.33,5.53,4.58,0,1.94-1.16,3.87-3.38,4.22l4.67,6.42Z"/>
      </g>
      <path class="cls-1" d="M85.62,149.92h-.04l-1.82,5.53h3.93l-2.06-5.53ZM82.83,157.87l-1.36,3.21h-3.4l6.45-15.62h2.5l6.27,15.62h-3.44l-1.27-3.21h-5.75Z"/>
      <polygon class="cls-1" points="100.76 161.08 97.54 161.08 97.54 148.45 94.2 148.45 94.2 145.86 104.09 145.86 104.09 148.45 100.76 148.45 100.76 161.08"/>
      <path class="cls-1" d="M115.52,148.39c-3.05,0-4.85,2.48-4.85,4.95s1.27,5.23,4.85,5.23,4.85-2.89,4.85-5.23c0-2.46-1.8-4.95-4.85-4.95M115.52,161.49c-5.04,0-8.18-3.55-8.18-8.03s3.25-7.99,8.18-7.99,8.18,3.47,8.18,7.99-3.14,8.03-8.18,8.03"/>
      <rect class="cls-1" x="128.14" y="145.87" width="3.22" height="15.22"/>
      <path class="cls-1" d="M139.79,152.87h.42c1.78,0,3.03-.48,3.03-2.34s-1.29-2.24-3.01-2.24h-.44v4.58ZM147.75,161.08h-3.9l-4.01-6.14h-.04v6.14h-3.22v-15.22h4.37c3.27,0,5.53,1.33,5.53,4.58,0,1.94-1.16,3.87-3.38,4.22l4.67,6.42Z"/>
      <polygon class="cls-1" points="154.89 148.45 154.89 151.8 160.02 151.8 160.02 154.38 154.89 154.38 154.89 158.5 160.22 158.5 160.22 161.08 151.66 161.08 151.66 145.87 160.22 145.87 160.22 148.45 154.89 148.45"/>
      <path class="cls-1" d="M177.64,158.5h.53c3.97,0,5.51-2.02,5.51-5.03,0-3.31-1.84-5.03-5.51-5.03h-.53v10.05ZM174.41,145.86h4.61c4.78,0,7.99,3.29,7.99,7.63s-3.29,7.59-8.01,7.59h-4.58v-15.22Z"/>
      <polygon class="cls-1" points="194.66 148.45 194.66 151.8 199.79 151.8 199.79 154.38 194.66 154.38 194.66 158.5 199.99 158.5 199.99 161.08 191.44 161.08 191.44 145.87 199.99 145.87 199.99 148.45 194.66 148.45"/>
      <path class="cls-1" d="M208.22,152.87h.42c1.78,0,3.03-.48,3.03-2.34s-1.29-2.24-3.01-2.24h-.44v4.58ZM216.18,161.08h-3.9l-4.01-6.14h-.04v6.14h-3.22v-15.22h4.37c3.27,0,5.53,1.33,5.53,4.58,0,1.94-1.16,3.87-3.38,4.22l4.67,6.42Z"/>
      <polygon class="cls-1" points="232.44 151.64 232.39 151.64 228.64 161.29 227.53 161.29 223.91 151.64 223.86 151.64 222.39 161.08 219.15 161.08 221.93 145.46 224.21 145.46 228.29 155.49 232.2 145.46 234.52 145.46 237 161.08 233.76 161.08 232.44 151.64"/>
      <path class="cls-1" d="M247.45,149.92h-.04l-1.82,5.53h3.93l-2.06-5.53ZM244.66,157.87l-1.36,3.21h-3.4l6.45-15.62h2.5l6.27,15.62h-3.44l-1.27-3.21h-5.75Z"/>
      <polygon class="cls-1" points="262.59 161.08 259.36 161.08 259.36 148.45 256.03 148.45 256.03 145.86 265.92 145.86 265.92 148.45 262.59 148.45 262.59 161.08"/>
      <path class="cls-1" d="M277.35,148.39c-3.05,0-4.85,2.48-4.85,4.95s1.27,5.23,4.85,5.23,4.85-2.89,4.85-5.23c0-2.46-1.8-4.95-4.85-4.95M277.35,161.49c-5.04,0-8.18-3.55-8.18-8.03s3.25-7.99,8.18-7.99,8.18,3.47,8.18,7.99-3.14,8.03-8.18,8.03"/>
      <polygon class="cls-1" points="293.19 158.5 297.76 158.5 297.76 161.08 289.97 161.08 289.97 145.86 293.19 145.86 293.19 158.5"/>
      <g>
        <path class="cls-1" d="M309.03,148.39c-3.05,0-4.85,2.48-4.85,4.95s1.27,5.23,4.85,5.23,4.85-2.89,4.85-5.23c0-2.46-1.8-4.95-4.85-4.95M309.03,161.49c-5.05,0-8.18-3.55-8.18-8.03s3.25-7.99,8.18-7.99,8.18,3.47,8.18,7.99-3.14,8.03-8.18,8.03"/>
        <path class="cls-1" d="M336.26,152.99v.38c0,4.3-2.39,8.12-7.52,8.12-4.83,0-7.87-3.75-7.87-7.95s3.14-8.07,8.07-8.07c2.81,0,5.27,1.31,6.54,3.63l-2.85,1.41c-.66-1.37-2.06-2.42-3.77-2.42-3.12,0-4.65,2.93-4.65,5.45s1.56,5.33,4.67,5.33c2.02,0,3.71-1.61,3.77-3.45h-3.51v-2.42h7.13Z"/>
      </g>
      <rect class="cls-1" x="340.72" y="145.87" width="3.22" height="15.22"/>
      <g>
        <path class="cls-1" d="M360.35,156.52c.72-.83,1.03-2.1,1.03-3.15,0-2.46-1.95-5.09-4.85-5.09-3.14,0-4.85,2.72-4.85,5.35s1.69,4.98,4.85,4.98c.59,0,1.29-.24,1.73-.5l-2.72-2.88,3.34-.24,1.47,1.53ZM361.78,161.73l-1.14-1.27c-1.12.69-2.59,1.03-4.1,1.03-4.82,0-8.18-3.67-8.18-8.03s3.36-7.99,8.18-7.99,8.18,3.73,8.18,7.99c0,2.06-.68,4-1.95,5.51l2.26,2.46-3.25.3Z"/>
        <path class="cls-1" d="M369.06,145.86h3.22v8.52c0,1.88.17,4.52,2.92,4.52s2.92-2.64,2.92-4.52v-8.52h3.22v9.1c0,3.71-1.71,6.52-6.14,6.52s-6.14-2.81-6.14-6.52v-9.1Z"/>
      </g>
      <polygon class="cls-1" points="389.71 148.45 389.71 151.8 394.84 151.8 394.84 154.38 389.71 154.38 389.71 158.5 395.04 158.5 395.04 161.08 386.48 161.08 386.48 145.87 395.04 145.87 395.04 148.45 389.71 148.45"/>
      <path class="cls-1" d="M224.3,55.26l-24.86-14.44c-2.13-1.26-2.64-3.01-2.64-4.64,0-2.64,2.13-5.4,5.4-5.4,2.26,0,3.64,1,4.9,2.38l19.96,20.09-2.76,2.01Z"/>
    </g>
  </g>
</svg>