<?xml version="1.0" encoding="UTF-8"?>
<svg id="Layer_2" data-name="Layer 2" xmlns="http://www.w3.org/2000/svg" viewBox="0 0 491.69 51.12">
  <defs>
    <style>
      .cls-1 {
        fill: #4c4c4c;
      }
    </style>
  </defs>
  <g id="Layer_1-2" data-name="Layer 1">
    <g>
      <g>
        <polygon class="cls-1" points="252.41 50.28 282.98 50.28 282.98 41.44 262.53 41.44 262.53 29.69 279.88 29.69 279.88 20.89 262.53 20.89 262.53 9.68 282.98 9.68 282.98 .84 252.41 .84 252.41 50.28"/>
        <path class="cls-1" d="M329.04,16.17c0-9.34-4.72-15.34-13.57-15.34h-21.38v49.45h10.08v-18.73h6.73l7.67,18.68h10.96l-8.65-19.61c5.31-2.02,8.16-7.23,8.16-14.45ZM318.57,18.53c0,3.44-1.67,4.62-4.37,4.62h-9.98v-13.47h9.98c2.65,0,4.37,1.23,4.37,4.62v4.23Z"/>
        <path class="cls-1" d="M350.76.88l-14.01,49.4h9.68l3.05-12.09h15.14l3.05,12.09h9.98L363.64.88h-12.88ZM351.9,30.03l2.9-11.4,1.57-8.55h1.13l1.57,8.55,3.05,11.4h-10.22Z"/>
        <path class="cls-1" d="M391.91,38.93c-3.98,0-5.8,2.02-5.8,5.11v1.82c0,3.15,1.87,5.11,5.8,5.11s5.8-2.02,5.8-5.11v-1.82c0-3.15-1.82-5.11-5.8-5.11Z"/>
        <path class="cls-1" d="M434.92,25.27v-1.13c4.13-.3,8.36-2.26,8.36-10.62,0-7.67-3.83-12.68-11.7-12.68h-21.92v49.45h23.94c7.13,0,11.45-6.34,11.45-14.11s-5.51-10.91-10.13-10.91ZM419.73,9.49h9.34c2.31,0,3.74,1.18,3.74,4.23v3.24c0,3.05-1.38,4.23-3.74,4.23h-9.34v-11.7ZM434.43,37.36c0,3.15-1.47,4.33-3.74,4.33h-10.96v-12.19h10.96c2.26,0,3.74,1.23,3.74,4.33v3.54Z"/>
        <path class="cls-1" d="M473.85,22.96v8.5h8.16v2.9c0,5.11-3.74,7.72-8.85,7.72-5.55,0-9.04-3.39-9.04-10.13v-12.88c0-6.68,3.49-10.17,8.8-10.17s8.36,2.85,9.68,7.23l8.26-4.72c-3.24-7.52-9.09-11.4-17.89-11.4-11.85,0-19.61,7.08-19.61,25.76s8.31,25.36,17.65,25.36c6.49,0,10.47-3.64,11.11-8.65h1.13-.05v7.72h8.5v-27.23h-17.84Z"/>
      </g>
      <path class="cls-1" d="M19.81,42.17c-5.55,0-9.04-3.39-9.04-10.17v-12.88c0-6.78,3.44-10.17,9.04-10.17s6.98,2.9,8.06,7.13l8.8-4.52C33.33,3.74,28.71,0,19.81,0,8.01,0,0,7.42,0,25.9s8.01,25.22,19.81,25.17c8.95,0,13.62-4.33,17.01-11.75l-8.36-4.82c-1.28,4.28-3.29,7.67-8.65,7.67Z"/>
      <path class="cls-1" d="M81.2,16.17c0-9.34-4.72-15.34-13.57-15.34h-21.38v49.45h10.13v-18.73h6.68l7.67,18.68h10.96l-8.65-19.61c5.31-2.02,8.16-7.23,8.16-14.45ZM70.73,18.53c0,3.44-1.67,4.62-4.37,4.62h-9.98v-13.47h9.98c2.65,0,4.37,1.23,4.37,4.62v4.23Z"/>
      <polygon class="cls-1" points="92.26 50.28 122.84 50.28 122.84 41.44 102.39 41.44 102.39 29.69 119.74 29.69 119.74 20.89 102.39 20.89 102.39 9.68 122.84 9.68 122.84 .84 92.26 .84 92.26 50.28"/>
      <path class="cls-1" d="M151.3.84h-17.35v49.45h17.35c12.04,0,19.32-7.03,19.32-24.72S163.34.84,151.3.84ZM159.85,31.51c0,6.73-2.95,9.93-8.55,9.93v-.05h-7.23V9.68h7.23c5.6,0,8.55,3.2,8.55,9.93v11.9Z"/>
      <polygon class="cls-1" points="179.71 8.85 185.51 8.85 185.51 42.27 179.71 42.27 179.71 50.28 201.43 50.28 201.43 42.27 195.63 42.27 195.63 8.85 201.43 8.85 201.43 .84 179.71 .84 179.71 8.85"/>
      <polygon class="cls-1" points="209.25 9.68 221.05 9.68 221.05 50.24 231.17 50.24 231.17 9.68 243.02 9.68 243.02 .84 209.25 .84 209.25 9.68"/>
    </g>
  </g>
</svg>