<?xml version="1.0" encoding="UTF-8"?>
<svg id="Layer_2" data-name="Layer 2" xmlns="http://www.w3.org/2000/svg" viewBox="0 0 529.07 151.85">
  <defs>
    <style>
      .cls-1 {
        fill: #4c4c4c;
      }
    </style>
  </defs>
  <g id="Layer_1-2" data-name="Layer 1">
    <g>
      <path class="cls-1" d="M351.58,72.4l1.01-2.26c3.87-8.59,10.71-22.85,10.71-22.85,4.98,9.69,8.55,17.36,10.97,22.85l1.02,2.42c-6.62.2-17.68.14-23.71-.16Z"/>
      <path class="cls-1" d="M298.15,72.74c-5.15,0-9.29-.54-10.87-1v-33.75s3.95-.7,9.66-.7c10.13,0,21.36,5.07,21.36,17.69s-10.92,17.75-20.15,17.75Z"/>
      <polyline class="cls-1" points="323.91 99.07 324.21 99.09 324.71 99.09"/>
      <polyline class="cls-1" points="339.37 98.86 339.67 98.88 340.16 98.88"/>
      <path class="cls-1" d="M94.88,97.01c-2.84.02-3.99.03-8.54-.12-4.7-.13-7.92-3.48-7.92-7.53,0-8.07.09-51.16.09-51.16,2.97-.14,5.93-.55,11.2-.59,7.77-.03,32.78,2.5,32.89,29.24.07,17.01-5.85,30.06-27.73,30.16Z"/>
      <path class="cls-1" d="M86.38,123.92l-1.29-3.91c-.29-.89-.49-1.71-.69-2.49h-.04c-.18.81-.4,1.64-.66,2.47l-1.28,3.94h3.95Z"/>
      <path class="cls-1" d="M95.65,128.22c.33.07.82.09,1.42.09,1.77,0,3.38-.67,3.38-2.65,0-1.86-1.55-2.62-3.4-2.62h-1.39v5.18Z"/>
      <path class="cls-1" d="M95.65,121.7h1.54c1.79,0,2.85-.96,2.85-2.27,0-1.6-1.17-2.22-2.89-2.22-.79,0-1.23.08-1.5.13v4.37Z"/>
      <path class="cls-1" d="M107.74,122.84c0,2.91,1.52,5.51,4.19,5.51s4.21-2.56,4.21-5.65c0-2.69-1.37-5.51-4.2-5.51s-4.2,2.66-4.2,5.65Z"/>
      <path class="cls-1" d="M124.08,122.34h1.74c1.82,0,2.96-1.03,2.96-2.59,0-1.75-1.23-2.52-3.01-2.54-.83,0-1.4.09-1.69.17v4.96Z"/>
      <path class="cls-1" d="M141.81,123.92l-1.28-3.91c-.3-.89-.49-1.71-.69-2.49h-.04c-.18.81-.4,1.64-.65,2.47l-1.29,3.94h3.95Z"/>
      <path class="cls-1" d="M160.87,122.84c0,2.91,1.51,5.51,4.18,5.51s4.21-2.56,4.21-5.65c0-2.69-1.36-5.51-4.2-5.51s-4.2,2.66-4.2,5.65Z"/>
      <path class="cls-1" d="M184.06,122.34h1.72c1.82,0,2.96-1.03,2.96-2.59,0-1.75-1.23-2.52-3.02-2.54-.81,0-1.39.09-1.66.17v4.96Z"/>
      <path class="cls-1" d="M226.11,128.16c.43.08,1.06.11,1.72.11,3.62,0,5.58-2.09,5.58-5.77.02-3.21-1.73-5.23-5.31-5.23-.87,0-1.55.07-1.99.17v10.72Z"/>
      <path class="cls-1" d="M252.93,122.34h1.72c1.81,0,2.96-1.03,2.96-2.59,0-1.75-1.23-2.52-3.02-2.54-.82,0-1.4.09-1.66.17v4.96Z"/>
      <path class="cls-1" d="M288.28,123.92l-1.28-3.91c-.3-.89-.49-1.71-.69-2.49h-.03c-.19.81-.41,1.64-.66,2.47l-1.28,3.94h3.95Z"/>
      <path class="cls-1" d="M307.33,122.84c0,2.91,1.52,5.51,4.19,5.51s4.21-2.56,4.21-5.65c0-2.69-1.36-5.51-4.19-5.51s-4.21,2.66-4.21,5.65Z"/>
      <path class="cls-1" d="M333.93,122.84c0,2.91,1.52,5.51,4.18,5.51s4.21-2.56,4.21-5.65c0-2.69-1.37-5.51-4.18-5.51s-4.21,2.66-4.21,5.65Z"/>
      <path class="cls-1" d="M379.83,122.69c0-2.71-1.36-5.51-4.15-5.51s-4.27,2.73-4.25,5.68c-.03,2.89,1.51,5.48,4.17,5.48s4.22-2.55,4.22-5.65Z"/>
      <g>
        <path class="cls-1" d="M125.77,117.21c-.83,0-1.4.09-1.69.17v4.96h1.74c1.82,0,2.96-1.03,2.96-2.59,0-1.75-1.23-2.51-3.01-2.54Z"/>
        <path class="cls-1" d="M338.14,117.19c-2.8,0-4.21,2.66-4.21,5.65s1.52,5.51,4.18,5.51,4.21-2.56,4.21-5.65c0-2.69-1.37-5.51-4.18-5.51Z"/>
        <path class="cls-1" d="M139.85,117.51h-.04c-.18.81-.4,1.64-.65,2.47l-1.29,3.94h3.95l-1.28-3.91c-.3-.89-.49-1.71-.69-2.49Z"/>
        <path class="cls-1" d="M111.94,117.19c-2.79,0-4.2,2.66-4.2,5.65s1.52,5.51,4.19,5.51,4.21-2.56,4.21-5.65c0-2.69-1.37-5.51-4.2-5.51Z"/>
        <path class="cls-1" d="M165.07,117.19c-2.8,0-4.2,2.66-4.2,5.65s1.51,5.51,4.18,5.51,4.21-2.56,4.21-5.65c0-2.69-1.36-5.51-4.2-5.51Z"/>
        <path class="cls-1" d="M318.3,54.99c0-12.62-11.23-17.69-21.36-17.69-5.71,0-9.66.7-9.66.7v33.75c1.59.46,5.73,1,10.87,1,9.22,0,20.15-5.13,20.15-17.75Z"/>
        <path class="cls-1" d="M254.59,117.21c-.82,0-1.4.09-1.66.17v4.96h1.72c1.81,0,2.96-1.03,2.96-2.59,0-1.75-1.23-2.51-3.02-2.54Z"/>
        <path class="cls-1" d="M89.72,37.61c-5.27.03-8.24.45-11.2.59,0,0-.09,43.09-.09,51.16,0,4.06,3.22,7.4,7.92,7.53,4.55.14,5.7.13,8.54.12,21.88-.09,27.8-13.14,27.73-30.16-.1-26.74-25.12-29.27-32.89-29.24Z"/>
        <path class="cls-1" d="M286.31,117.51h-.03c-.19.81-.41,1.64-.66,2.47l-1.28,3.94h3.95l-1.28-3.91c-.3-.89-.49-1.71-.69-2.49Z"/>
        <path class="cls-1" d="M311.53,117.19c-2.8,0-4.21,2.66-4.21,5.65s1.52,5.51,4.19,5.51,4.21-2.56,4.21-5.65c0-2.69-1.36-5.51-4.19-5.51Z"/>
        <path class="cls-1" d="M185.72,117.21c-.81,0-1.39.09-1.66.17v4.96h1.72c1.82,0,2.96-1.03,2.96-2.59,0-1.75-1.23-2.51-3.02-2.54Z"/>
        <path class="cls-1" d="M84.41,117.51h-.04c-.18.81-.4,1.64-.66,2.47l-1.28,3.94h3.95l-1.29-3.91c-.29-.89-.49-1.71-.69-2.49Z"/>
        <path class="cls-1" d="M0,0v151.85h472.56L529.07,0H0ZM75.53,129.56h-7.3v-13.59h1.69v12.11h5.61v1.48ZM88.14,129.56l-1.4-4.28h-4.65l-1.36,4.28h-1.75l4.46-13.59h2.04l4.47,13.59h-1.81ZM101.12,128.41c-.91.86-2.4,1.26-4.54,1.26-1.17,0-2.08-.08-2.63-.16v-13.35c.74-.17,1.91-.29,3.08-.29,1.69,0,2.79.3,3.61,1,.68.52,1.09,1.34,1.09,2.39,0,1.32-.83,2.45-2.22,2.98v.06c1.24.31,2.7,1.38,2.7,3.39,0,1.18-.44,2.06-1.11,2.74ZM111.83,129.77c-3.45,0-5.89-2.78-5.89-6.89,0-4.32,2.59-7.14,6.09-7.14s5.9,2.84,5.9,6.88c0,4.68-2.76,7.16-6.1,7.16ZM129.19,129.56c-.21-.4-.51-1.56-.87-3.26-.4-1.87-1.11-2.57-2.64-2.64h-1.6v5.89h-1.67v-13.4c.86-.18,2.07-.29,3.24-.29,1.81,0,2.98.34,3.8,1.11.67.61,1.02,1.53,1.02,2.58,0,1.79-1.08,2.98-2.46,3.47v.07c1.01.35,1.62,1.33,1.92,2.74.43,1.9.73,3.21,1.02,3.74h-1.75ZM96.08,101.45s-11.8.05-16.19-.13c-3.02-.13-11.58.19-11.58-13.06l.12-54.73c7.45.09,23.96.09,30.03.27,13.16.39,34.25,9.66,34.25,33,0,20.99-15.27,34.65-36.62,34.65ZM143.57,129.56l-1.4-4.28h-4.65l-1.36,4.28h-1.75l4.45-13.59h2.03l4.48,13.59h-1.81ZM156.5,117.46h-4.01v12.09h-1.71v-12.09h-4v-1.49h9.72v1.49ZM164.95,129.77c-3.47,0-5.89-2.78-5.89-6.89,0-4.32,2.58-7.14,6.09-7.14s5.9,2.84,5.9,6.88c0,4.68-2.75,7.16-6.1,7.16ZM177.24,129.56h-1.7v-13.59h1.7v13.59ZM189.16,129.56c-.22-.4-.51-1.56-.89-3.26-.38-1.87-1.08-2.57-2.62-2.64h-1.59v5.89h-1.69v-13.4c.86-.18,2.08-.29,3.26-.29,1.8,0,2.97.34,3.79,1.11.67.61,1.03,1.53,1.03,2.58,0,1.79-1.09,2.98-2.47,3.47v.07c1.01.35,1.61,1.33,1.91,2.74.44,1.9.75,3.21,1.02,3.74h-1.75ZM202.49,129.56h-7.37v-13.59h7.09v1.47h-5.39v4.29h5.1v1.45h-5.1v4.9h5.68v1.48ZM203.09,72.56c0,16.04-10.12,27.76-29.6,27.76s-30.64-7.54-30.64-26.84-.13-36.14-.26-38.99h4.05c2.14,0,5.84,1.89,5.84,6.57v.48c-.14,13.54-.22,26.07-.22,31.81,0,6.75,1.45,22.68,22.71,22.68s22.32-17.02,22.32-33.34-.75-28.06-.75-28.06h6.85c.17,15.79-.29,31.13-.29,37.92ZM209.62,129.75c-1.26,0-2.64-.38-3.36-.87l.43-1.46c.76.48,1.88.88,3.04.88,1.74,0,2.76-.96,2.76-2.32,0-1.27-.71-1.98-2.49-2.71-2.14-.78-3.47-1.92-3.47-3.85,0-2.11,1.7-3.68,4.26-3.68,1.33,0,2.3.32,2.9.67l-.46,1.42c-.44-.24-1.32-.64-2.51-.64-1.78,0-2.47,1.1-2.47,2.03,0,1.28.8,1.9,2.61,2.62,2.22.88,3.35,2,3.35,4,0,2.09-1.5,3.9-4.6,3.9ZM210.87,67.43c0-30.63,26.46-34.82,36.58-34.28,6.46.33,12.91,1.29,19.37,3.54l-2.22,9.04c-4.93-6.3-12.05-9.09-19.07-9.09-16.98,0-24.7,13.34-24.7,30.1,0,23.89,16.06,30.35,26.18,30.35s15.63-4.38,20.2-9.24l1.66,6.61v.5s-11.02,5.52-23.34,5.52-34.66-5.52-34.66-33.05ZM233.29,127.72c-1.23,1.27-3.25,1.95-5.8,1.95-1.2,0-2.21-.07-3.07-.16v-13.35c1.02-.17,2.25-.28,3.6-.28,2.43,0,4.16.58,5.31,1.69,1.17,1.1,1.85,2.68,1.85,4.87s-.66,4.04-1.89,5.28ZM247,129.56h-7.37v-13.59h7.09v1.47h-5.42v4.29h5.12v1.45h-5.12v4.9h5.7v1.48ZM258.02,129.56c-.23-.4-.51-1.56-.88-3.26-.39-1.87-1.09-2.57-2.62-2.64h-1.6v5.89h-1.71v-13.4c.87-.18,2.08-.29,3.26-.29,1.82,0,2.97.34,3.8,1.11.67.61,1.03,1.53,1.03,2.58,0,1.79-1.09,2.98-2.46,3.47v.07c.99.35,1.59,1.33,1.91,2.74.44,1.9.75,3.21,1.02,3.74h-1.75ZM275.35,129.56l-.32-5.97c-.1-1.9-.21-4.17-.19-5.86h-.07c-.44,1.59-1,3.29-1.65,5.16l-2.32,6.59h-1.28l-2.13-6.47c-.62-1.92-1.15-3.67-1.53-5.28h-.02c-.05,1.69-.15,3.97-.26,6.01l-.35,5.83h-1.63l.92-13.59h2.16l2.23,6.56c.56,1.69,1.01,3.17,1.33,4.58h.07c.34-1.36.81-2.86,1.38-4.58l2.33-6.56h2.17l.81,13.59h-1.66ZM290.03,129.56l-1.4-4.28h-4.65l-1.36,4.28h-1.76l4.46-13.59h2.05l4.48,13.59h-1.81ZM302.97,117.46h-4.01v12.09h-1.72v-12.09h-3.99v-1.49h9.72v1.49ZM311.42,129.77c-3.47,0-5.89-2.78-5.89-6.89,0-4.32,2.59-7.14,6.09-7.14s5.9,2.84,5.9,6.88c0,4.68-2.75,7.16-6.1,7.16ZM329.28,129.56h-7.3v-13.59h1.7v12.11h5.6v1.48ZM323.91,99.07l.8.02h-.49l-.31-.02ZM323.68,99.07c-3.07-.21-5.56-1.07-8.1-3.58-.52-.53-14.52-18.48-14.52-18.48-3.07-.36-13.98-.08-13.98-.08,0,7.01.6,18.69.88,21.77l-9.93.12c.61-11.15.88-23.08.88-29.89s-.27-32.65-.39-34.69c9.91.23,20.77.11,25.36.11,12.97,0,22.56,8.49,22.56,19.63,0,11.79-8.45,20.99-18.46,21.81,1.5,1.29,19.63,21.28,22.55,23.13l-6.85.14ZM338.02,129.77c-3.47,0-5.89-2.78-5.89-6.89,0-4.32,2.59-7.14,6.09-7.14s5.91,2.84,5.91,6.88c0,4.68-2.75,7.16-6.11,7.16ZM358.61,128.95c-.75.29-2.26.75-4.03.75-1.98,0-3.61-.53-4.9-1.79-1.14-1.12-1.84-2.95-1.84-5.06.01-4.05,2.72-7.01,7.1-7.01,1.51,0,2.71.34,3.27.62l-.41,1.42c-.7-.31-1.57-.56-2.9-.56-3.18,0-5.27,2.04-5.27,5.46s2.01,5.48,5.07,5.48c1.11,0,1.87-.16,2.26-.35v-4.06h-2.66v-1.41h4.31v6.53ZM365.17,129.56h-1.69v-13.59h1.69v13.59ZM381.24,131.55c-1.78-.49-3.5-1.04-5.05-1.58l-.78-.2c-3.12-.13-5.78-2.5-5.78-6.89s2.58-7.15,6.11-7.15,5.88,2.87,5.88,6.88c0,3.49-1.55,5.73-3.74,6.51v.09c1.3.34,2.72.65,3.84.86l-.48,1.48ZM395.65,123.88c0,4.18-2.12,5.89-4.97,5.89-2.68,0-4.7-1.6-4.7-5.8v-8h1.71v8.04c0,3.04,1.3,4.33,3.05,4.33,1.95,0,3.18-1.34,3.18-4.33v-8.04h1.72v7.91ZM386.5,98.83s-3.6-8.21-6.69-15.58l-1.86-4.41c-.3-.73-.61-1.44-.88-2.11h-27.37c-.3.7-.57,1.36-.89,2.11l-1.87,4.41c-2.68,6.35-4.29,9.96-5.47,15.61v.02h-1.49s.17,0,.17,0h-.57s-6.68-.03-6.68-.03c6.09-12.33,23.61-47.72,31.51-64.52h2.38c2.02,3.96,21.67,47.87,30.35,64.49h-10.64ZM408.15,129.56h-7.38v-13.59h7.09v1.47h-5.4v4.29h5.1v1.45h-5.1v4.9h5.69v1.48ZM415.29,129.75c-1.28,0-2.66-.38-3.36-.87l.43-1.46c.76.48,1.87.88,3.05.88,1.72,0,2.74-.96,2.74-2.32,0-1.27-.71-1.98-2.48-2.71-2.14-.78-3.46-1.92-3.46-3.85,0-2.11,1.69-3.68,4.25-3.68,1.34,0,2.32.32,2.9.67l-.48,1.42c-.43-.24-1.29-.64-2.48-.64-1.79,0-2.48,1.1-2.48,2.03,0,1.28.8,1.9,2.61,2.62,2.22.88,3.35,2,3.35,4,0,2.09-1.5,3.9-4.59,3.9ZM419.96,98.86h-10.52c1.15-5.68.9-22.37.9-25.81-6.29-9.77-25.85-38.08-25.85-38.08h6.67c4.24.09,6.37,2.08,8.62,5.7l16.32,25.56c6.78-10.35,18.65-27.52,20.66-31.5h8.13c-6.6,9.2-24.42,34.55-25.77,36.49-.14,8.78.22,24.66.85,27.64Z"/>
        <path class="cls-1" d="M100.03,119.43c0-1.6-1.17-2.22-2.88-2.22-.79,0-1.23.08-1.5.13v4.37h1.54c1.79,0,2.85-.96,2.85-2.27Z"/>
        <path class="cls-1" d="M228.1,117.27c-.87,0-1.55.07-1.99.17v10.72c.43.08,1.06.11,1.72.11,3.61,0,5.58-2.09,5.58-5.77.02-3.21-1.73-5.23-5.31-5.23Z"/>
        <path class="cls-1" d="M97.04,123.04h-1.39v5.18c.33.07.82.09,1.42.09,1.77,0,3.38-.67,3.38-2.65,0-1.86-1.55-2.62-3.4-2.62Z"/>
        <path class="cls-1" d="M379.83,122.69c0-2.71-1.36-5.5-4.15-5.5s-4.27,2.73-4.24,5.68c-.03,2.89,1.51,5.48,4.17,5.48s4.22-2.55,4.22-5.65Z"/>
        <path class="cls-1" d="M352.58,70.14l-1.01,2.26c6.02.3,17.09.37,23.71.16l-1.02-2.42c-2.42-5.49-5.99-13.16-10.97-22.85,0,0-6.84,14.26-10.71,22.85Z"/>
      </g>
    </g>
  </g>
</svg>