<?xml version="1.0" encoding="UTF-8"?>
<svg id="Layer_2" data-name="Layer 2" xmlns="http://www.w3.org/2000/svg" viewBox="0 0 393.45 95.11">
  <defs>
    <style>
      .cls-1 {
        fill: #4c4c4c;
      }
    </style>
  </defs>
  <g id="Layer_1-2" data-name="Layer 1">
    <g>
      <path class="cls-1" d="M151.01,94.95v-7.52h3.04c.07,0,.16,0,.27,0,.11,0,.21.02.31.03.42.07.77.21,1.05.43.28.22.49.5.63.83.14.33.21.7.21,1.11s-.07.78-.21,1.11c-.14.33-.35.61-.63.83-.28.22-.63.36-1.05.43-.1.01-.2.02-.31.03-.11,0-.2.01-.27.01h-1.95v2.7h-1.09ZM152.1,91.22h1.91c.07,0,.15,0,.23-.01.09,0,.17-.02.24-.04.22-.05.4-.15.54-.29.14-.14.23-.3.29-.49.06-.18.09-.37.09-.55s-.03-.37-.09-.55c-.06-.18-.16-.34-.29-.49-.14-.14-.32-.24-.54-.29-.08-.02-.16-.03-.24-.04-.09,0-.16-.01-.23-.01h-1.91v2.76Z"/>
      <path class="cls-1" d="M170.1,94.95l2.44-7.52h1.57l2.44,7.52h-1.13l-2.25-6.86h.28l-2.22,6.86h-1.13ZM171.37,92.23h3.93v1.02h-3.93v-1.02Z"/>
      <path class="cls-1" d="M196.94,94.95l-1.42-2.91c.34-.14.62-.36.82-.65.31-.43.46-.95.46-1.55,0-.4-.07-.77-.21-1.11-.14-.33-.35-.61-.63-.83-.28-.22-.63-.36-1.05-.43-.1-.02-.2-.03-.31-.03-.11,0-.2,0-.27,0h-3.04v7.52h1.09v-2.7h2l1.31,2.7h1.25ZM192.38,88.46h1.91c.07,0,.15,0,.23.01.09,0,.17.02.24.04.22.05.4.15.54.29.14.14.23.3.29.49.06.18.09.37.09.55s-.03.37-.09.55c-.06.18-.16.35-.29.49-.14.14-.32.24-.54.29-.08.02-.16.03-.24.04-.09,0-.16.01-.23.01h-1.91v-2.76Z"/>
      <rect class="cls-1" x="211.98" y="87.43" width="1.09" height="7.52"/>
      <path class="cls-1" d="M231.16,95.11c-.54,0-1.03-.09-1.46-.28-.43-.19-.79-.45-1.07-.8-.28-.35-.46-.76-.55-1.24l1.14-.17c.11.46.35.82.72,1.07.37.26.79.38,1.28.38.3,0,.58-.05.84-.14.25-.1.46-.23.61-.41.16-.18.23-.39.23-.64,0-.14-.02-.26-.07-.36-.05-.1-.11-.2-.19-.27-.08-.08-.18-.15-.3-.2-.12-.06-.24-.11-.38-.15l-1.93-.57c-.19-.06-.38-.13-.57-.22-.2-.09-.37-.21-.54-.35-.16-.14-.29-.32-.39-.54-.1-.21-.15-.47-.15-.78,0-.46.12-.85.36-1.18.24-.32.56-.57.97-.73.41-.17.86-.25,1.37-.25.51,0,.96.1,1.36.27.4.17.74.42,1,.75.27.33.45.72.55,1.18l-1.17.2c-.05-.28-.16-.52-.33-.73-.17-.2-.38-.36-.63-.47-.25-.11-.51-.17-.8-.17-.28,0-.53.03-.76.13-.23.09-.42.22-.55.38-.14.16-.21.35-.21.56s.06.38.18.51c.12.13.27.23.45.31.18.07.36.14.53.19l1.39.39c.17.05.37.11.59.2.22.08.43.2.64.34.21.15.38.34.51.58.14.24.2.55.2.91s-.08.71-.23,1c-.15.29-.36.53-.63.72-.27.19-.57.34-.92.44-.35.1-.72.15-1.1.15"/>
      <path class="cls-1" d="M393.45,76.69l-10.22-20.97c2.46-.98,4.45-2.52,5.95-4.62,2.1-2.94,3.15-6.42,3.15-10.45,0-2.74-.49-5.25-1.47-7.53-.98-2.28-2.43-4.17-4.35-5.66-1.92-1.49-4.27-2.46-7.06-2.89-.66-.12-1.32-.2-1.98-.24-.67-.04-1.26-.05-1.77-.05h-20.49v52.42h5.9v-19.62h16.04l9.51,19.62h6.81ZM361.09,51.43v-21.51h14.41c.44,0,.95.02,1.53.05.58.04,1.15.13,1.71.27,1.75.36,3.17,1.08,4.26,2.15,1.09,1.07,1.9,2.33,2.44,3.79.53,1.46.8,2.95.8,4.48s-.27,3.05-.8,4.5c-.53,1.44-1.35,2.7-2.44,3.77-1.09,1.07-2.51,1.8-4.26,2.18-.56.12-1.13.21-1.71.25-.58.05-1.09.07-1.53.07h-14.41Z"/>
      <polygon class="cls-1" points="306.24 76.69 306.24 24.27 339.18 24.27 339.18 29.92 312.14 29.92 312.14 47.21 334.81 47.21 334.81 52.85 312.14 52.85 312.14 71.05 339.18 71.05 339.18 76.69 306.24 76.69"/>
      <path class="cls-1" d="M290.95,76.69l-10.22-20.97c2.46-.98,4.45-2.52,5.95-4.62,2.1-2.94,3.15-6.42,3.15-10.45,0-2.74-.49-5.25-1.47-7.53-.98-2.28-2.43-4.17-4.35-5.66-1.92-1.49-4.27-2.46-7.06-2.89-.66-.12-1.32-.2-1.98-.24-.67-.04-1.26-.05-1.77-.05h-20.49v52.42h5.9v-19.62h16.04l9.51,19.62h6.81ZM258.59,51.43v-21.51h14.41c.44,0,.95.02,1.53.05.58.04,1.15.13,1.71.27,1.75.36,3.17,1.08,4.26,2.15,1.09,1.07,1.91,2.33,2.44,3.79.53,1.46.8,2.95.8,4.48s-.27,3.05-.8,4.5c-.53,1.44-1.35,2.7-2.44,3.77-1.09,1.07-2.51,1.8-4.26,2.18-.56.12-1.13.21-1.71.25-.58.05-1.09.07-1.53.07h-14.41Z"/>
      <polygon class="cls-1" points="203.74 76.69 203.74 24.27 236.68 24.27 236.68 29.92 209.63 29.92 209.63 47.21 232.31 47.21 232.31 52.85 209.63 52.85 209.63 71.05 236.68 71.05 236.68 76.69 203.74 76.69"/>
      <polygon class="cls-1" points="166.61 76.69 166.61 29.92 148.52 29.92 148.52 24.27 190.63 24.27 190.63 29.92 172.54 29.92 172.54 76.69 166.61 76.69"/>
      <path class="cls-1" d="M138.74,76.69l-10.22-20.97c2.46-.98,4.45-2.52,5.95-4.62,2.1-2.94,3.15-6.42,3.15-10.45,0-2.74-.49-5.25-1.47-7.53-.98-2.28-2.43-4.17-4.35-5.66-1.92-1.49-4.27-2.46-7.06-2.89-.66-.12-1.32-.2-1.98-.24-.67-.04-1.26-.05-1.77-.05h-20.49v52.42h5.9v-19.62h16.04l9.51,19.62h6.81ZM106.38,51.43v-21.51h14.41c.44,0,.95.02,1.53.05.58.04,1.15.13,1.71.27,1.75.36,3.17,1.08,4.26,2.15,1.09,1.07,1.9,2.33,2.44,3.79.53,1.46.8,2.95.8,4.48s-.27,3.05-.8,4.5c-.53,1.44-1.35,2.7-2.44,3.77-1.09,1.07-2.51,1.8-4.26,2.18-.56.12-1.13.21-1.71.25-.58.05-1.09.07-1.53.07h-14.41Z"/>
      <path class="cls-1" d="M64.72,77.78c-4.03,0-7.58-.83-10.67-2.49-3.08-1.66-5.5-4-7.26-7.01-1.76-3.01-2.64-6.55-2.64-10.63V24.31l5.97-.04v32.76c0,2.6.44,4.85,1.33,6.77.89,1.92,2.04,3.49,3.48,4.73,1.43,1.24,3,2.16,4.71,2.77,1.71.61,3.4.91,5.08.91s3.4-.3,5.11-.91c1.71-.61,3.28-1.53,4.71-2.78,1.43-1.25,2.58-2.83,3.46-4.73.87-1.9,1.31-4.16,1.31-6.75V24.27h5.97v33.38c0,4.05-.87,7.58-2.62,10.59-1.75,3.01-4.17,5.35-7.26,7.03-3.09,1.67-6.66,2.51-10.68,2.51"/>
      <polygon class="cls-1" points="0 76.69 0 24.27 30.32 24.27 30.32 30.17 5.9 30.17 5.9 47.53 25.95 47.53 25.95 53.43 5.9 53.43 5.9 76.69 0 76.69"/>
      <path class="cls-1" d="M229.81,13.53V2.79h6.75v1.16h-5.54v3.54h4.65v1.16h-4.65v3.73h5.54v1.16h-6.75ZM233.88,1.61h-.96l.67-1.61h1.01l-.72,1.61Z"/>
      <polygon class="cls-1" points="202.17 13.53 202.17 2.79 203.39 2.79 209.15 11.39 209.15 2.79 210.37 2.79 210.37 13.53 209.15 13.53 203.39 4.93 203.39 13.53 202.17 13.53"/>
      <polygon class="cls-1" points="175.9 13.53 175.9 2.79 182.65 2.79 182.65 3.95 177.11 3.95 177.11 7.49 181.76 7.49 181.76 8.65 177.11 8.65 177.11 12.38 182.65 12.38 182.65 13.53 175.9 13.53"/>
      <path class="cls-1" d="M156.37,13.53l-2.09-4.3c.5-.2.91-.52,1.22-.95.43-.6.65-1.32.65-2.14,0-.56-.1-1.08-.3-1.54-.2-.47-.5-.85-.89-1.16-.39-.31-.88-.5-1.45-.59-.13-.02-.27-.04-.41-.05-.14,0-.26-.01-.36-.01h-4.2v10.74h1.21v-4.02h3.29l1.95,4.02h1.39ZM149.74,8.36V3.95h2.95c.09,0,.19,0,.31.01.12,0,.24.03.35.06.36.07.65.22.87.44.22.22.39.48.5.78.11.3.16.6.16.92s-.05.63-.16.92c-.11.3-.28.55-.5.77-.22.22-.51.37-.87.45-.11.02-.23.04-.35.05-.12,0-.22.01-.31.01h-2.95Z"/>
    </g>
  </g>
</svg>