<?xml version="1.0" encoding="UTF-8"?>
<svg id="Layer_2" data-name="Layer 2" xmlns="http://www.w3.org/2000/svg" viewBox="0 0 212.03 188.68">
  <defs>
    <style>
      .cls-1 {
        fill: #4c4c4c;
      }
    </style>
  </defs>
  <g id="Layer_1-2" data-name="Layer 1">
    <path class="cls-1" d="M58.26,174.77h4.95v13.44h2.83v-13.44h4.95v-2.36h-12.74v2.36ZM20.52,181.14h8.02v-2.12h-8.02v-4.25h8.73v-2.36h-11.56v15.8h11.56v-2.36h-8.73v-4.72ZM9.91,178.78H2.83v-6.37H0v15.8h2.83v-7.08h7.31v7.08h2.83v-15.8h-3.07v6.37ZM37.03,172.41l-6.13,15.8h2.83l1.65-4.25h6.37l1.65,4.25h2.83l-6.13-15.8h-3.07ZM36.09,182.08l2.36-6.84,2.36,6.84h-4.72ZM51.42,172.41h-2.83v15.8h10.85v-2.36h-8.02v-13.44ZM83.96,178.78h-7.31v-6.37h-2.83v15.8h2.83v-7.08h7.31v7.08h2.83v-15.8h-2.83v6.37ZM183.26,174.77h4.95v13.44h2.83v-13.44h4.95v-2.36h-12.74v2.36ZM109.67,180.66h-2.12c0,.94-.24,1.65-.47,2.12l-2.36-2.83c1.65-.71,2.83-2.12,2.83-4.01,0-2.59-1.89-3.77-4.01-3.77s-4.01,1.65-4.01,3.77c0,1.42.71,2.36,1.65,3.54-1.89.94-3.54,2.36-3.54,4.48,0,3.07,2.12,4.72,4.95,4.72,1.89,0,3.3-.71,4.48-2.12l1.42,1.65h3.07l-3.07-3.54c.71-1.18,1.18-2.59,1.18-4.01h0ZM103.54,174.06c.94,0,1.65.71,1.65,1.89s-.94,1.89-1.89,2.59c-.47-.71-1.42-1.65-1.42-2.59,0-1.18.71-1.89,1.65-1.89h0ZM102.6,186.56c-1.42,0-2.59-.94-2.59-2.59,0-1.89,1.42-2.36,2.36-3.07l3.07,4.01c-.24.71-.94,1.65-2.83,1.65h0ZM208.73,172.41l-4.01,7.08-4.25-7.08h-3.07l5.9,9.67v6.37h2.83v-6.37l5.9-9.67h-3.3ZM178.07,181.61c0,2.12,0,4.48-3.77,4.48-3.54,0-3.77-2.36-3.77-4.48v-9.2h-2.83v10.14c0,4.01,2.59,6.13,6.6,6.13s6.37-2.12,6.37-6.13v-10.14h-2.83v9.2h.24ZM131.14,179.72c1.42-.71,2.36-1.89,2.36-3.3,0-2.59-1.89-4.01-4.72-4.01h-7.78v15.8h7.31c4.01,0,5.9-1.89,5.9-4.48-.24-1.89-1.18-3.54-3.07-4.01ZM123.82,174.77h4.48c1.42,0,2.36.71,2.36,2.12s-.94,2.12-2.36,2.12h-4.48v-4.25ZM128.54,186.09h-4.95v-4.95h4.95c1.65,0,2.59.94,2.59,2.36.24,1.65-.71,2.59-2.59,2.59ZM156.84,172.41l-6.13,15.8h2.83l1.65-4.25h6.37l1.42,4.25h2.83l-6.13-15.8h-2.83ZM155.9,182.08l2.36-6.84,2.36,6.84h-4.72ZM140.33,181.14h8.02v-2.12h-8.02v-4.25h8.73v-2.36h-11.32v15.8h11.56v-2.36h-8.73v-4.72h-.24ZM134.91,125.24H60.14V0h-16.98v140.1h98.35l-6.6-14.86ZM91.04,77.12h37.5l27.12,62.97h17.69l-28.54-67.22c15.8-4.25,25.24-18.87,25.24-34.67,0-11.32-5.19-22.64-14.39-29.48C146.7,1.89,135.85.47,125,.47h-50.71v112.27h16.98v-35.61h-.24ZM91.04,14.86h33.96c7.08,0,12.74.24,18.63,4.25,6.6,4.25,9.43,10.85,9.43,18.87,0,6.6-2.12,12.97-6.84,17.69-6.6,6.84-14.15,7.55-23.35,7.55h-31.84V14.86Z"/>
  </g>
</svg>