<?xml version="1.0" encoding="UTF-8"?>
<svg id="Layer_2" data-name="Layer 2" xmlns="http://www.w3.org/2000/svg" viewBox="0 0 305.01 225.79">
  <defs>
    <style>
      .cls-1 {
        fill: #4c4c4c;
        fill-rule: evenodd;
      }
    </style>
  </defs>
  <g id="Layer_1-2" data-name="Layer 1">
    <g>
      <g>
        <path class="cls-1" d="M248.72,110.77c-.51-2.92-1.3-5.8-2.4-8.56v-.02c-1.24-3.11-2.85-6.07-4.84-8.76-4.41-5.95-10.45-10.33-17.59-12.38-7.12-2.04-14.57-1.54-21.45,1.19-3.08,1.23-5.98,2.87-8.65,4.84-7.06,5.21-8.58,15.16-3.37,22.23,5.21,7.07,15.18,8.59,22.25,3.38.45-.33.97-.67,1.5-.88.21-.08.74-.26.98-.2.23.07.61.52.75.71.37.49.66,1.1.89,1.66v.02c.29.7.48,1.46.6,2.2.16.92.22,1.85.21,2.78-.06,4.7-2.08,10.22-5.94,13.08-2.02,1.5-4.22,2.79-6.57,3.72-3.89,1.54-8.12,2.06-12.18.9-1.2-.34-2.33-.82-3.4-1.41,1.32-1.79,2.55-3.64,3.68-5.55,4.47-7.55,1.95-17.33-5.6-21.79-3.47-2.05-7.4-2.62-11.08-1.92.31-14.22,6.7-29.72,18.31-38.29,7.06-5.21,8.58-15.16,3.38-22.23-5.21-7.08-15.18-8.59-22.25-3.38-13.4,9.89-22.9,24.74-27.69,40.86-2.89-5.53-7.3-10.06-12.73-13.29-2.83-1.68-5.9-2.91-9.04-3.88h-.02c-2.9-.9-5.89-1.36-8.91-1.57-2.87-.2-5.76-.13-8.63.19-14.46,1.65-28.69,10-36.2,22.62-2.69,4.53-4.83,9.38-6.27,14.45-3.08,10.82-2.77,22.2,1.42,32.67,4.2,10.51,11.82,18.94,21.51,24.7,4.73,2.81,9.63,5.09,15.01,6.33h.02c4.61,1.06,9.18,2.05,13.91,2.39,4.77.34,9.58.22,14.33-.32,11.3-1.28,22.44-4.97,32.36-10.6,5.5,4.88,11.96,8.51,19.12,10.57,10.86,3.12,22.18,2.27,32.65-1.89,4.9-1.94,9.51-4.57,13.74-7.7,11.81-8.74,18.67-23.74,18.86-38.29.04-2.88-.19-5.76-.68-8.6ZM145.46,118.23c.11.73.22,1.46.35,2.19.55,3.16,1.31,6.28,2.27,9.34-5.89,3.12-12.44,5.17-19.01,5.91-2.82.32-5.66.4-8.49.2-2.67-.19-5.33-.64-7.91-1.37h-.02c-2.47-.7-4.86-1.68-7.06-2.99-3.61-2.14-6.63-5.19-8.2-9.13-1.56-3.91-1.47-8.2-.33-12.21.69-2.42,1.76-4.74,3.04-6.91,2.45-4.13,7.75-6.7,12.42-7.23.92-.11,1.86-.14,2.78-.07.73.05,1.5.14,2.2.36h.02c.59.18,1.26.42,1.79.73.19.12.68.45.78.67.08.23-.04.78-.11,1-.15.54-.43,1.09-.72,1.58-4.47,7.55-1.95,17.33,5.6,21.79,6.94,4.1,15.75,2.3,20.6-3.87ZM225.99,151.52c-3.88,2.87-7.92,5.11-12.02,6.74-9.35,3.72-18.93,4.17-27.73,1.64-7.58-2.17-14.49-6.53-20.1-12.89-10.21,6.84-22.23,11.3-34.35,12.68-4.3.49-8.64.6-12.93.29-4.33-.31-8.6-1.03-12.75-2.21h-.02c-4.73-1.35-9.02-3.19-12.82-5.45-8.69-5.16-14.92-12.47-18.32-20.97-3.4-8.5-3.91-18.07-1.16-27.75,1.21-4.24,3.03-8.48,5.49-12.63,6.22-10.47,18.28-17.54,30.5-18.94,2.39-.27,4.82-.33,7.22-.16,2.44.17,4.85.58,7.2,1.25h.02c2.72.78,5.19,1.84,7.39,3.15,5.15,3.06,8.86,7.43,10.9,12.52,2.04,5.1,2.36,10.8.72,16.54-.7,2.46-1.75,4.91-3.17,7.29-2.32,3.93-7.39,5.24-11.32,2.92-3.93-2.32-5.24-7.39-2.92-11.32.69-1.16,1.19-2.29,1.49-3.38.61-2.16.54-4.2-.15-5.92-.69-1.72-2.04-3.26-3.97-4.4-1.02-.61-2.18-1.1-3.47-1.47h-.02c-1.25-.36-2.55-.58-3.89-.67-1.37-.1-2.77-.06-4.19.1-7.38.84-14.56,4.92-18.12,10.92-1.74,2.93-3.01,5.86-3.82,8.72-1.73,6.1-1.46,12.01.59,17.13,2.05,5.13,5.93,9.61,11.4,12.85,2.62,1.56,5.6,2.84,8.9,3.78h.02c3.05.87,6.22,1.41,9.43,1.64,3.25.23,6.57.15,9.89-.23,9.77-1.11,19.43-4.72,27.49-10.23-.2-.48-.4-.95-.6-1.44v-.02c-1.6-4.01-2.75-8.19-3.49-12.46-.73-4.24-1.07-8.56-1.01-12.89.27-22.16,10.67-45.01,28.15-57.95,3.68-2.71,8.85-1.92,11.56,1.76,2.71,3.68,1.92,8.85-1.76,11.56-13.3,9.84-21.21,27.52-21.42,44.82-.04,3.34.21,6.65.77,9.87.24,1.36.53,2.71.88,4.03.66-.94,1.28-1.9,1.87-2.88,2.32-3.93,7.39-5.24,11.32-2.92,3.93,2.32,5.24,7.39,2.92,11.32-2.22,3.74-4.87,7.24-7.86,10.47,3.45,3.83,7.58,6.44,12.05,7.72,5.31,1.52,11.21,1.2,17.1-1.14,2.76-1.1,5.55-2.65,8.29-4.68,5.6-4.15,8.94-11.7,9.03-19.12.02-1.43-.09-2.83-.32-4.18-.23-1.32-.58-2.59-1.06-3.8v-.02c-.5-1.25-1.12-2.35-1.82-3.31-1.34-1.8-3-2.99-4.78-3.5-1.78-.51-3.82-.38-5.9.45-1.05.42-2.12,1.02-3.21,1.83-3.68,2.71-8.85,1.92-11.56-1.76-2.71-3.68-1.92-8.85,1.76-11.56,2.23-1.65,4.56-2.94,6.94-3.88,5.54-2.2,11.25-2.46,16.52-.95,5.27,1.51,9.99,4.76,13.55,9.58,1.52,2.05,2.83,4.4,3.87,7.03v.02c.91,2.27,1.56,4.63,1.97,7.04.41,2.38.6,4.79.57,7.2-.15,12.29-5.98,25.01-15.76,32.25Z"/>
        <path class="cls-1" d="M144.77,58.92c6.44.05,14.14-5.28,19.11-13.89,4.97-8.61,5.73-17.94,2.47-23.49-6.44-.05-14.14,5.28-19.11,13.89-4.97,8.61-5.73,17.94-2.47,23.49Z"/>
        <path class="cls-1" d="M139.95,60.22c-5.55,3.26-14.88,2.5-23.49-2.47-8.61-4.97-13.94-12.67-13.89-19.11,5.55-3.26,14.88-2.5,23.49,2.47,8.61,4.97,13.94,12.67,13.89,19.11Z"/>
        <path class="cls-1" d="M137.57,41.69c-6.23-1.62-12.29-8.76-14.86-18.36-2.57-9.6-.89-18.81,3.69-23.33,6.23,1.62,12.29,8.76,14.86,18.36,2.57,9.6.9,18.82-3.69,23.33Z"/>
        <path class="cls-1" d="M250.76,64.49c2.86,0,5.46,1.16,7.33,3.04,1.88,1.88,3.04,4.47,3.04,7.33s-1.16,5.46-3.04,7.33c-1.88,1.88-4.47,3.04-7.33,3.04s-5.46-1.16-7.33-3.04c-1.88-1.88-3.04-4.47-3.04-7.33s1.16-5.46,3.04-7.33c1.88-1.88,4.47-3.04,7.33-3.04h0ZM257.14,68.48c-1.63-1.63-3.89-2.64-6.38-2.64s-4.74,1.01-6.38,2.64c-1.63,1.63-2.64,3.89-2.64,6.38s1.01,4.74,2.64,6.38c1.63,1.63,3.89,2.64,6.38,2.64s4.74-1.01,6.38-2.64c1.63-1.63,2.64-3.89,2.64-6.38s-1.01-4.74-2.64-6.38Z"/>
        <path class="cls-1" d="M252.97,72.09c0-.38-.06-.71-.18-.98-.12-.27-.28-.49-.48-.66-.2-.17-.43-.29-.7-.36-.27-.07-.55-.11-.84-.11h-2.18v4.31h2.18c.24,0,.49-.03.75-.09.26-.06.5-.17.71-.33.22-.16.39-.38.53-.67.14-.28.21-.65.21-1.11h0ZM248.58,75.64v3.9h1.39v1.41h-4.53v-1.41h1.15v-9.56h-1.15v-1.41h5.65c1.26,0,2.24.3,2.92.9.69.6,1.03,1.47,1.03,2.6,0,.29-.04.6-.11.92-.07.32-.2.64-.37.95-.18.31-.41.58-.7.83-.29.25-.64.44-1.06.57l1.95,4.26,1.34.18v1.08c-.24.1-.52.17-.84.22-.32.05-.58.07-.78.07-.43,0-.75-.1-.96-.29-.2-.19-.39-.47-.56-.83l-1.93-4.38h-2.44Z"/>
      </g>
      <path class="cls-1" d="M202.89,208.12c.7,2.63.12,5.38-1.75,8.25-1.87,2.87-4.13,4.66-6.79,5.37-2.75.73-4.53,1.12-5.36,1.15-1.07.04-1.86-.4-2.35-1.32-.43-.78-.95-2.47-1.58-5.06l-2.38-9.77c.12.43-.19-1.03-1.16-4.34-.32-1.09-.69-1.98-.79-2.91h-.01c-.24-1.5-.19-2.89.15-4.15.51-2,1.67-3.44,3.48-4.33.33-.16,1.5-.51,3.52-1.05,2.71-.72,4.21-.53,4.51.58l.21.78c-.32.49-.85.84-1.62,1.05-.21.06-.52.09-.92.11-.41.02-.71.05-.92.11-.94.25-1.86.95-2.76,2.1-.82,1.05-1.57,2.87-1.52,3.87.79,2.62,1.4,4.97,1.66,5.92.22.84.43,2.14.6,3.91.18,1.77.38,3.07.6,3.91.74,2.78,1.34,4.49,1.79,5.14.95,1.36,2.48,1.75,4.59,1.19,4.45-1.19,6.02-4.24,4.71-9.16-.94-3.53-3.98-5.46-9.12-5.79-.12-.43.28-1.05,1.18-1.85.8-.71,1.46-1.13,1.98-1.27,2.31-.62,4.53.08,6.64,2.08,1.74,1.64,2.88,3.47,3.42,5.5h0ZM246.49,203.28c.23.67.16,1.28-.21,1.83-.15.21-.43.41-.84.61-1.29.62-2.32.17-3.11-1.35.1.19-.09-.31-.56-1.51l-.44-.86-1.91-3.71c-1.13.58-2.87,1.44-5.48,2.74-1.85.92-3,.96-3.91,1.7,0,.17-.04.29-.12.36l3.39,6.59c.23.67.16,1.28-.21,1.83-.15.21-.43.41-.84.61-1.29.62-2.33.17-3.11-1.35.1.19-.09-.31-.56-1.51l-.44-.86-4.75-9.25c-.28-.27-.58-.72-.91-1.34-1.19-2.31-1.06-3.81.37-4.5.23-.11.49-.19.79-.23.98.17,2.01,1.3,3.09,3.39.27.52.63,1.29,1.09,2.32.24.53.45.99.63,1.38.09-.05.18-.11.28-.16,1.77-.91,7.37-3.49,9.16-4.4,0-.1.01-.2.02-.29l-1.33-2.58c-.28-.27-.58-.72-.91-1.34-1.19-2.31-1.06-3.81.37-4.5.23-.11.49-.19.79-.23.98.17,2.01,1.3,3.09,3.39.27.52.63,1.29,1.09,2.32.46,1.03.82,1.81,1.09,2.32l4.4,8.55h0ZM218.72,200.01c.18.38.35.79.5,1.22.17.48.39,1.2.66,2.15.27.95.49,1.67.66,2.15.4,1.13.85,2.07,1.36,2.81.15.17.86.74,2.13,1.73,1.11.91,1.69,1.42,1.73,1.54.16.45.1.96-.18,1.54-.28.57-.64.94-1.09,1.1-1.53.53-2.74.51-3.64-.06-.77-.49-1.43-1.51-1.98-3.07.05.14.06.12.03-.06l-.58-1.65c-.5-1.44-1.09-2.39-1.76-2.86-.79-.55-1.88-.58-3.27-.09-1.1.39-2.06,1.13-2.88,2.24-.91,1.21-1.18,2.33-.82,3.38.45,1.3,1.19,2.14,2.21,2.51,1.34.29,2.68.6,4.03.92.14,1.12-.76,2.03-2.71,2.71-1.64.57-3.14.54-4.5-.09-1.36-.63-2.33-1.77-2.91-3.41-1.1-3.14.03-5.5,3.37-7.08.92-.45,2.02-1.21,3.29-2.29,1.97-1.7,2.75-3.15,2.34-4.34-.26-.73-.97-1.29-2.13-1.66-1.16-.37-2.12-.42-2.88-.16-.17.06-.4.18-.68.36-.29.18-.51.3-.68.36-.62.22-1.16.23-1.6.04l-.22-.64c-.32-.9.63-1.74,2.83-2.51,1.64-.57,2.61-.88,2.91-.92,1.66-.23,3.14.22,4.42,1.35.82.71,1.5,1.64,2.05,2.79h0ZM10.46,165.84c-.56.66-1.5.73-2.82.21-1.08-.44-1.97-1.03-2.67-1.78-2.43-2.6-3.97-5.15-4.63-7.67-.82-3.12-.17-5.92,1.93-8.42,2.18-2.59,5.1-3.77,8.75-3.55,3.24.19,6.09,1.32,8.54,3.38.59.5,1.06,1.07,1.39,1.7.43.83.44,1.5.01,2.01-.56.66-1.22.68-1.97.04-.27-.23-.64-.64-1.09-1.21-.45-.58-.82-.98-1.09-1.21-1.69-1.43-3.55-2.09-5.57-2-2.02.1-3.73.98-5.14,2.65-1.41,1.67-1.95,3.93-1.62,6.77.33,2.84,1.34,4.97,3.03,6.4.14.12.4.25.8.41s.66.29.8.41l1.51,1.27c.14.12.09.31-.14.59h0ZM29.06,175.98c-1.17.7-2.62,1.1-4.37,1.18-1.75.08-3.29-.14-4.63-.66-.56-.2-1.39-.52-2.5-.95-.96-.4-1.68-.89-2.17-1.46-.6-.71-1.05-1.32-1.37-1.84-1.04-1.71-1.65-3.2-1.84-4.5-.53-3.85.55-6.91,3.26-9.18,1.4-1.17,3.03-1.88,4.9-2.12.37-.12,1-.23,1.88-.35,3.16.04,5.97,1.23,8.42,3.54,1.08,1.01,2.03,2.49,2.86,4.46.63,1.5.86,2.87.69,4.11-.16,1.07-.69,2.34-1.61,3.81-.92,1.47-1.85,2.61-2.82,3.42-.32.27-.56.45-.72.54h0ZM20.32,174.64c2.23.24,4.33-.47,6.31-2.12,1.9-1.6,3.04-3.47,3.41-5.61.37-2.15-.25-4.15-1.85-6.01-.64-.72-1.78-1.26-3.43-1.64-1.65-.38-2.85-.32-3.62.16-2.12,1.39-3.45,2.52-4,3.41-.87,1.43-1.33,3.01-1.37,4.72-.06,1.89.41,3.42,1.41,4.62.12.14.79.76,2.04,1.87.45.4.82.6,1.09.61h0ZM43.15,191.33c-.83.16-1.62.22-2.39.17-.59-.02-1.48-.06-2.67-.13-1.04-.08-1.88-.32-2.51-.72-.79-.49-1.41-.93-1.87-1.33-1.52-1.3-2.56-2.53-3.14-3.7-1.7-3.49-1.62-6.74.25-9.74.97-1.55,2.3-2.73,4-3.54.32-.23.88-.53,1.68-.91,3.02-.94,6.05-.69,9.11.76,1.34.62,2.71,1.74,4.1,3.35.76.88,1.31,1.76,1.64,2.64l2.26-3.63c.09-.37.31-.84.68-1.43,1.35-2.16,2.65-2.84,3.92-2.05.2.13.4.3.58.52.33.88-.11,2.3-1.33,4.25-.3.48-.77,1.18-1.41,2.09-.64.91-1.11,1.6-1.41,2.09l-.54.87c2.32-.3,4.66.11,7,1.22,1.34.62,2.71,1.74,4.1,3.35,1.07,1.23,1.71,2.46,1.93,3.69.18,1.07.07,2.44-.35,4.12-.41,1.68-.95,3.06-1.62,4.12-.22.36-.39.6-.51.74-.89,1.03-2.15,1.86-3.79,2.48-1.64.62-3.17.89-4.6.81-.59-.02-1.48-.06-2.67-.13-1.04-.08-1.88-.32-2.51-.72-.79-.49-1.41-.93-1.87-1.33-1.52-1.3-2.56-2.53-3.14-3.7-.17-.35-.32-.69-.45-1.03l-4.35,6.98c-.37.59-.98.8-1.63.78-.25,0-.55-.13-.91-.36-1.14-.71-1.27-1.78-.38-3.2-.11.18.32-.17.98-1.24l.5-.8,3.33-5.34h0ZM55.94,199.57c2.19-.47,3.97-1.79,5.34-3.97,1.31-2.11,1.81-4.24,1.5-6.39-.31-2.15-1.52-3.87-3.62-5.14-.83-.48-2.08-.65-3.77-.5-1.68.15-2.81.58-3.39,1.27-1.58,1.98-2.5,3.47-2.74,4.48-.38,1.63-.33,3.27.16,4.92.53,1.81,1.45,3.13,2.77,3.95.15.1.99.48,2.51,1.14.56.24.96.32,1.23.24h0ZM40.43,189.66c2.19-.47,3.97-1.79,5.34-3.97,1.31-2.11,1.81-4.24,1.5-6.39-.31-2.15-1.52-3.87-3.62-5.14-.83-.48-2.08-.65-3.77-.5-1.68.15-2.81.58-3.39,1.27-1.58,1.98-2.5,3.47-2.74,4.48-.38,1.63-.33,3.27.16,4.92.53,1.81,1.45,3.13,2.77,3.95.15.1.99.48,2.51,1.14.56.24.96.32,1.23.24h0ZM82.26,212.04c-.39.91-1.15,1.12-2.27.64-.36-.15-.85-.42-1.5-.81-.64-.39-1.14-.66-1.5-.81-.52-.22-1.3-.33-2.34-.32-1.13-.03-1.9-.11-2.32-.26-.76-.26-1.32-.47-1.68-.62-2.44-1.04-3.9-2.66-4.39-4.86-.03-.08,0-1.03.1-2.84.08-1.4.52-3.05,1.34-4.95.26-.61.66-1.49,1.19-2.67.53-1.17.93-2.06,1.19-2.67.13-.3.3-.74.52-1.32.21-.58.39-1.02.51-1.32.21-.5.65-.93,1.3-1.3.65-.37,1.21-.46,1.66-.27.29.12.57.43.87.91-.07,1.56-.49,3.22-1.25,4.99-.16.39-.42.98-.76,1.77-.34.8-.59,1.39-.76,1.78-.88,2.06-1.28,3.83-1.2,5.3.1,1.73.86,3.35,2.29,4.84.2.22.42.38.67.48,1.03.44,2.23.38,3.59-.2,1.36-.57,2.3-1.37,2.83-2.38.35-.66,1.52-3.34,3.53-8.01l.88-2.06c.74-1.28,1.75-1.65,3.01-1.1.96.41,1.04,1.57.23,3.47l-.44,1.03c-.18.41-.31.73-.41.95-.09.22-.1.23-.02.04-.2.47-.43,1.2-.69,2.19-.26.99-.49,1.73-.69,2.19l-3.5,8.17h0ZM106.63,196.81c.22.73.01,1.3-.62,1.73-.63.43-1.51.6-2.63.53-2.25-.15-3.83-.99-4.75-2.5-.9-1.48-.17-2.15,2.18-1.99,2.5.17,4.45.91,5.82,2.23h0ZM105.29,219.13c-.32.94-1.06,1.2-2.22.81-.37-.13-.88-.36-1.56-.7-.67-.34-1.19-.57-1.56-.7-.53-.18-1.32-.23-2.36-.15-1.13.06-1.9.03-2.34-.09-.78-.2-1.35-.37-1.72-.49-2.51-.86-4.09-2.37-4.73-4.52-.04-.08-.08-1.02-.11-2.84-.03-1.4.3-3.08.97-5.03.21-.62.54-1.54.99-2.74.45-1.21.77-2.12.99-2.75.11-.31.25-.76.42-1.35.17-.59.31-1.04.42-1.35.18-.51.58-.97,1.2-1.39.63-.42,1.17-.55,1.64-.39.3.1.6.38.94.84.04,1.57-.25,3.25-.88,5.06-.14.39-.34,1-.63,1.83-.28.82-.49,1.43-.63,1.83-.73,2.12-1,3.92-.81,5.37.22,1.72,1.11,3.28,2.64,4.65.22.2.45.35.7.43,1.06.36,2.25.21,3.57-.46,1.32-.67,2.2-1.53,2.65-2.58.3-.69,1.28-3.44,2.93-8.25l.73-2.12c.65-1.33,1.62-1.77,2.92-1.32.99.34,1.15,1.49.48,3.44l-.36,1.06c-.15.42-.26.75-.34.98-.08.23-.08.24-.01.04-.17.48-.34,1.23-.53,2.24-.19,1.01-.37,1.76-.53,2.24l-2.89,8.41h0ZM127.07,222.11c-.11.86-.87,1.43-2.26,1.69-1.15.21-2.21.19-3.21-.06-3.45-.88-6.13-2.2-8.04-3.96-2.37-2.18-3.34-4.89-2.91-8.13.44-3.35,2.26-5.92,5.46-7.7,2.84-1.59,5.84-2.17,9.02-1.75.77.1,1.47.33,2.08.68.81.47,1.18,1.03,1.09,1.68-.11.86-.66,1.23-1.64,1.1-.36-.05-.88-.19-1.57-.43-.69-.24-1.22-.39-1.57-.43-2.2-.29-4.12.15-5.77,1.32-1.65,1.17-2.62,2.84-2.9,5.01-.29,2.17.47,4.36,2.28,6.57,1.81,2.22,3.81,3.47,6,3.76.18.02.48,0,.89-.09.42-.08.72-.11.89-.09l1.96.26c.18.02.24.21.2.57h0ZM147.57,224.71c-.35.83-1.11,1.17-2.3,1.02-.36-.05-.63-.13-.83-.24-1.35-.74-2.88-2.76-4.57-6.05-1.63-3.13-2.96-4.85-4.01-5.17-.26.12-.54.34-.85.66-.34,1.95-.7,4.48-1.1,7.6-.04.33-.24.67-.58,1.04s-.68.57-.98.62c-.49.09-.9.11-1.23.07-1.22-.15-1.72-1.08-1.51-2.77.03-.24.11-.6.23-1.08.12-.48.2-.86.23-1.12.64-6.04,1.47-11.96,2.47-17.75l.25-1.96c.17-.64.3-1.33.4-2.08.03-.24.04-.58.02-1.04-.02-.46-.01-.8.02-1.04.11-.86.53-1.49,1.28-1.88.13-.07.31-.1.55-.07,1.75.22,2.47,1.58,2.16,4.07-.04.33-.14.81-.3,1.46-.16.64-.26,1.13-.3,1.46l-1.02,8.06c-.06.45.05.94.33,1.49.28.55.62.89,1.02,1.03.29.1.52.16.7.18,1.01.13,2.1-.49,3.27-1.85.14-.16.99-1.25,2.54-3.25,1.14-1.15,2.39-1.57,3.73-1.25,0,.21,0,.44-.04.67-.09.71-1.01,1.88-2.75,3.5-1.74,1.62-2.64,2.59-2.68,2.92-.12.98.58,2.73,2.1,5.24.58.92,1.6,2.6,3.07,5.05.67,1.14.9,1.95.69,2.44h0ZM170.4,223.52c0,.48-.21.95-.65,1.4-.44.46-.9.69-1.38.69-1.62.02-2.76-.38-3.43-1.21-.58-.71-.88-1.89-.9-3.53,0,.15.02.13.04-.05l-.03-1.75c-.02-1.53-.28-2.62-.77-3.27-.58-.77-1.6-1.14-3.07-1.12-1.17.02-2.31.42-3.44,1.22-1.24.86-1.86,1.84-1.84,2.95.02,1.38.45,2.4,1.3,3.08,1.18.7,2.36,1.42,3.53,2.15-.22,1.11-1.37,1.68-3.43,1.71-1.74.03-3.15-.48-4.24-1.51-1.09-1.03-1.65-2.42-1.68-4.15-.05-3.32,1.77-5.2,5.44-5.65,1.02-.13,2.3-.51,3.85-1.13,2.41-.99,3.61-2.12,3.59-3.37-.01-.78-.51-1.53-1.49-2.25-.98-.72-1.88-1.07-2.69-1.06-.18,0-.43.04-.76.12-.33.08-.58.12-.76.12-.66,0-1.17-.15-1.53-.47v-.67c-.02-.96,1.14-1.45,3.47-1.49,1.74-.03,2.75,0,3.05.05,1.65.31,2.91,1.2,3.77,2.68.74,1.25,1.12,2.78,1.14,4.61,0,.51-.01,1.26-.06,2.25-.05.99-.06,1.74-.06,2.25.02,1.2.15,2.23.4,3.09.09.21.58.98,1.47,2.31.77,1.22,1.15,1.88,1.15,2h0ZM267.81,190.98c.52.84.26,1.58-.78,2.23-.33.21-.83.46-1.53.76-.68.3-1.2.56-1.53.76-.48.3-1.01.88-1.6,1.73-.67.91-1.18,1.49-1.55,1.75-.65.47-1.14.81-1.47,1.02-2.25,1.4-4.42,1.67-6.49.81-.08-.02-.84-.59-2.27-1.71-1.1-.87-2.2-2.18-3.29-3.93-.35-.56-.85-1.39-1.5-2.5-.65-1.11-1.15-1.94-1.5-2.5-.17-.28-.44-.67-.79-1.18-.35-.51-.61-.9-.78-1.18-.28-.46-.39-1.06-.32-1.81.07-.75.31-1.25.73-1.51.27-.17.68-.23,1.25-.19,1.24.96,2.36,2.25,3.37,3.88.22.36.56.9,1.02,1.64.46.74.8,1.28,1.02,1.64,1.18,1.91,2.4,3.25,3.65,4.02,1.48.92,3.24,1.21,5.27.9.29-.04.55-.13.78-.27.95-.59,1.59-1.61,1.9-3.06.31-1.44.2-2.67-.32-3.68-.34-.67-1.86-3.16-4.54-7.48l-1.18-1.91c-.62-1.34-.35-2.37.82-3.1.89-.55,1.88.05,2.97,1.8l.59.95c.24.38.42.67.54.88.13.2.13.22.02.04.27.43.73,1.04,1.4,1.83.66.79,1.13,1.39,1.4,1.83l4.69,7.55h0ZM289.66,174.88c.99-.07,4.5,5.99,3.63,6.85-1.64,1.63-5.75-3.66-7.35-2.19-.55.51-1.13.68-1.44.92-.44.35-.92.98-1.41,1.89-.57.97-1.02,1.61-1.35,1.91-.6.54-1.05.93-1.36,1.17-2.09,1.63-4.22,2.12-6.37,1.49-.08-.01-.9-.5-2.44-1.46-1.19-.75-2.42-1.93-3.68-3.56-.4-.52-.99-1.3-1.76-2.33-.77-1.03-1.35-1.81-1.76-2.33-.2-.26-.5-.62-.9-1.09-.4-.47-.7-.83-.9-1.09-.33-.43-.5-1.02-.5-1.77,0-.75.18-1.28.57-1.58.25-.19.65-.3,1.22-.32,1.33.82,2.58,1.99,3.76,3.5.26.33.65.84,1.19,1.52.53.68.93,1.19,1.19,1.52,1.38,1.77,2.73,2.97,4.06,3.61,1.56.75,3.35.87,5.34.34.29-.07.54-.19.75-.35.89-.69,1.41-1.77,1.57-3.24.16-1.47-.08-2.68-.71-3.63-.41-.63-2.18-2.95-5.31-6.96l-1.38-1.77c-.76-1.27-.6-2.32.49-3.17.83-.64,1.87-.15,3.14,1.48l.69.89c.28.35.49.63.63.81.15.19.16.2.03.04.31.4.84.96,1.58,1.67.74.71,1.27,1.27,1.58,1.67l4.48,5.76,2.72-.19h0ZM304.57,160.47c.32.36.46.85.43,1.48-.03.63-.23,1.11-.58,1.43-1.2,1.08-2.33,1.53-3.38,1.35-.9-.15-1.91-.84-3.01-2.06.1.11.1.09,0-.06l-1.17-1.3c-1.02-1.13-1.93-1.78-2.73-1.95-.94-.2-1.96.2-3.05,1.18-.87.78-1.46,1.84-1.79,3.18-.37,1.46-.19,2.61.55,3.43.92,1.02,1.93,1.51,3.01,1.46,1.35-.25,2.71-.49,4.07-.71.56.98.08,2.17-1.45,3.55-1.29,1.16-2.69,1.72-4.19,1.66-1.5-.06-2.83-.73-4-2.02-2.23-2.47-2.1-5.08.37-7.83.68-.77,1.39-1.9,2.15-3.39,1.16-2.33,1.32-3.97.48-4.9-.52-.58-1.39-.81-2.6-.71-1.21.11-2.12.43-2.72.97-.13.12-.3.32-.49.59-.19.28-.36.47-.49.59-.49.44-.98.66-1.46.66l-.45-.5c-.64-.71-.1-1.85,1.64-3.41,1.29-1.16,2.07-1.82,2.33-1.98,1.44-.86,2.98-1.01,4.6-.46,1.38.45,2.67,1.36,3.9,2.71.34.38.82.95,1.44,1.73.62.77,1.1,1.35,1.44,1.73.8.89,1.58,1.58,2.34,2.06.21.1,1.08.35,2.63.77,1.38.41,2.11.66,2.19.75h0Z"/>
    </g>
  </g>
</svg>