<?xml version="1.0" encoding="UTF-8"?>
<svg id="Layer_2" data-name="Layer 2" xmlns="http://www.w3.org/2000/svg" viewBox="0 0 455.6 86.58">
  <defs>
    <style>
      .cls-1 {
        fill: #4c4c4c;
      }
    </style>
  </defs>
  <g id="Layer_1-2" data-name="Layer 1">
    <g>
      <polygon class="cls-1" points="36.34 62.46 36.45 7.48 60.06 7.53 60.07 .98 6.31 .87 6.3 7.41 29.9 7.46 29.79 62.44 36.34 62.46"/>
      <g>
        <path class="cls-1" d="M114.22,19.02c.03-12.07-5.88-17.94-18.05-17.97l-33.61-.07-.13,61.53h6.54s.06-26.6.06-26.6l23.66.05c13.33.03,13.91,3.29,13.9,10.06,0,2.03.05,12.3,1.49,15.21l.68,1.37,13.41.03,8.52-18.68,29.75.06,8.44,18.71,7.53.02L148.28,1.16h-5.24s-27.81,60.19-27.81,60.19l-1.11-2.3c-.57-1.21-1-8.8-.99-14.53.01-5.91-1.98-10.04-5.93-12.31,5.09-3.3,7.01-8.86,7.02-13.19M133.67,37.41l11.96-26.19,11.85,26.24-23.82-.05ZM93.5,29.41l-24.45-.05.05-21.81,26.91.06c8.53.02,11.69,3.11,11.67,11.4-.01,5.19-4.4,10.43-14.17,10.41"/>
        <rect class="cls-1" x="224.82" y="-144.67" width="5.96" height="455.59" transform="translate(144.19 310.75) rotate(-89.88)"/>
        <path class="cls-1" d="M201.85,57.52c-14.65-.03-21.23-4.93-21.33-15.88v-2.47s-6.6-.01-6.6-.01l.04,2.53c.25,14.81,9.52,22.34,27.55,22.38,22.54.05,25.01-12.82,25.02-18.35.02-8.08-4.97-13.28-14.84-15.45l-19-4.17c-9.37-2.05-10.15-5.57-10.14-9,0-4.93,1.98-10.58,17.26-10.55,12.51.03,18.14,3.99,18.81,13.26l.16,2.3h6.54s-.17-2.62-.17-2.62C224.36,6.41,215.94.04,199.44,0c-20.36-.04-23.42,10.59-23.43,16.93-.02,8.55,4.88,13.42,15.87,15.78l17.9,3.84c8.49,1.81,10.22,5.03,10.21,9.32,0,2.99-1,5.46-2.94,7.35-2.96,2.88-8.08,4.33-15.2,4.31"/>
        <path class="cls-1" d="M434.49,44.6l8.44,18.71,7.53.02-27.68-60.59-.46-1h-5.24s-28.39,61.46-28.39,61.46l7.53.02,8.52-18.68,29.75.06ZM407.72,37.99l11.96-26.19,11.85,26.24-23.82-.05Z"/>
        <polygon class="cls-1" points="253.99 62.91 254.1 7.93 277.71 7.98 277.72 1.43 223.96 1.32 223.95 7.87 247.55 7.92 247.44 62.9 253.99 62.91"/>
        <polygon class="cls-1" points="328.9 8.09 328.92 1.54 279.91 1.44 279.78 62.97 329.26 63.07 329.27 56.52 286.34 56.43 286.39 34.3 327.02 34.39 327.04 27.84 286.4 27.75 286.44 8 328.9 8.09"/>
        <polygon class="cls-1" points="381.87 63.18 387.58 63.19 387.71 1.67 381.16 1.65 381.06 51.88 339.99 1.57 334.27 1.55 334.14 63.08 340.69 63.09 340.79 12.86 381.87 63.18"/>
      </g>
    </g>
  </g>
</svg>