<?xml version="1.0" encoding="UTF-8"?>
<svg id="Layer_2" data-name="Layer 2" xmlns="http://www.w3.org/2000/svg" viewBox="0 0 540.15 85.32">
  <defs>
    <style>
      .cls-1 {
        fill: #4c4c4c;
      }
    </style>
  </defs>
  <g id="Layer_1-2" data-name="Layer 1">
    <g>
      <path class="cls-1" d="M170.16,17.87c-1.53,1.31-4.11,1.62-17.51,3.95,0,0-.52.05-2.65,1.1-3.11-.02-8.2,2.32-9.7,3.16-.63.35-1.4,2.11-1.64,5.37.89,1.07,1.36,1,2.51,1,6.42,0,15.58-3.22,16.69-3.02,4.17.93,6.1,7.36,6.1,10.67,0,.37-.4,2.41-.49,2.64-.52,1.4-3.03,2.56-6.06,2.84-14.43,1.31-21.17,2.44-22.85,3.61-.33.23-.82,1.83-.82,2.71,0,3.4,7.23,4.28,8.45,4.28,4.48,0,6.72-2.38,8.35-2.38,1.96,0,5.98,4.74,5.98,10.08,0,3.5-2.05,9.23-10.98,9.23-2.32,0-12.14-1.73-19.2-6.68,0,0,.21-1.43-2.74-3.53-1-1.71-2.83-7.75-2.83-12.38,0-10.26,5.08-17.08,5.77-21.06,0,0-2.42-3.4-3.36-4.66-.52-.69-1.08-1.29-1.08-3.85,0-8,5.25-9.5,5.5-9.5l1.82.03s3.88-1.78,4.4-2.52l2.87-.19c1.7-.21,20.91-5.18,24.74-5.18,3.06,0,4.25.5,5.46,2.37.81,1.25,4.07,7.21,4.07,9.35,0,.5-.42,2.23-.82,2.57Z"/>
      <path class="cls-1" d="M179.68,49.05c-.43.42-.91,2.04-1.03,3-.14,1.22,4.34,3.17,8.4,3.38,11.88.61,10.35-4.88,13.83-3.15,2.27,1.13,4.28,6.87,4.28,10.21,0,7.69-7.48,9.86-14.12,9.86-9.1,0-17.25-4.25-17.25-4.25,0,0-7-8.72-7-15,0-14.4,7.65-30.25,8.03-31,0,0,.63-4.14,1-6.82.42-3.03,2.46-3.65,4.17-5.55,3.89-.39,10.8-3.46,32.49-5.81,2.74-.3,6.15,3.5,7.99,9.25.33,1.02-.21,5.04-1.58,5.46-.81.25-2.99.5-20.53,2.33-3.02.31-6.16.82-7.42,1.72-1.4,1-4.08,5.46-4.46,6.96-.39,1.54.39,2.36,2.36,2.15,9.25-.99,15.48-5.02,16.19-5.02,3.3,0,6.43,4.39,7.36,9.21.54,2.81-.21,5.15-1.11,5.73-2.7,1.75-7.02,2.85-11.6,3.74-1.99.38-3.4.32-4.21.25-.4-.04-1.36.64-1.92.72-6.69.94-12.71,1.49-13.89,2.64Z"/>
      <path class="cls-1" d="M379.11,11.42c0,3.6-1.04,5.96-2.32,6.45-5.65,2.16-24.62,4.86-33.38,7.78-1.59.53-4.44,5.3-4.44,7.16,0,.96,1.1,1.28,2.74,1.06,12.64-1.67,14.84-2.76,20.12-5.12.89.06,2.15.17,2.88.95,1.52,1.62,3.06,4.82,3.06,9.47,0,2.84-1.25,5.84-6.2,6.59-6.55.99-21.61,3.22-26.02,3.75-2.22.27-3.5.84-3.7,1.13-1.98,2.86-1.2,8.86,12.31,5.9,5.67-1.24,6.8-3.32,10.01-3.32.21,0,.6.04.83.11,2.76,2.33,3.36,5.12,3.36,8.91,0,4.52-1.93,7.53-5.93,9.58-.33.17-1.82.46-1.96.49-.17.03-1.98,1.06-2.85,1.29-2.36.63-4.16.76-5.02.76-9.27,0-24.02-4.26-24.02-21.39,0-15.53,10.55-26.38,13.35-36.65,0,0,.72-.72,1.4-1.78.2-1.77,1.8-5.91,3.79-6.12,4.95-.53,20.21-3.85,33.67-8.2,1.13-.37,2.13-.24,2.99.37,2.35,1.66,5.34,6.23,5.34,10.85Z"/>
      <path class="cls-1" d="M118.83,56.22c-2.75-3.09-11.62-7.97-14.66-11.08,1.31-1.49,8.43-11.52,8.43-19.44,0-11.19-8.11-24.6-19.03-24.6,0,0-3.18.06-7.04.36-.7,1.09-3.03.84-3.03.84-3.83,1.72-7.39,4.61-7.39,13.86,0,1.66,2.32,3.38,3.72,4.67-.26,2.98-1.29,8.09-2.66,11.57-.49,1.26-4.03,1.75-4.03,1.75l-1.86,2.41c-1.21,7.18.02,8.04,2.5,11.27.33,3.79-1.15,10.36-1.15,14.1,0,2.69,1.03,2.4.49,5.17,0,0,.42.46.63,1.1.94,2.85,4.2,5.36,7.31,5.36s4.55-2.41,4.55-3.55c0-3.19-.82-12.93-.74-13.82.27-3.08,1.54-4.76,1.54-4.76,2.1,0,11.43,8.47,19.4,16.59,1.2,1.23,3.6,2.48,5.72,2.48,4.85,0,6.84-5.47,8.23-6.73.76-.99.86-5.54-.91-7.54ZM91,34.66c-.46.25-1.85-.23-2.02-.4,0,0,2.46-14.39,2.67-17.49,3.46-.96,8.05.94,8.05,5.52,0,3.95-1.83,8.69-8.7,12.37Z"/>
      <path class="cls-1" d="M318.72,5.03l-3.48-1.01-1.8-.91c-4.66-.91-15.92-1.1-19.68-.71-.64.06-3.11-.55-4.17-.78-2.81,1.63-5.29,2.38-5.29,2.38-.64,0-2.43-.73-2.43-.73-2.66.21-9.67,1.86-12.84,3.75-1.47.88-2.45,2.5-2.91,3.42-.02.04-.04.08-.06.12-.11.26-.54.7-.61,0h0c-.07-.67-.18-1.4-.31-1.91-.88-3.27-4.95-5.8-7.42-5.8-1,0-3.11,1.12-3.3,2.32-.24,1.51-.4,8.3-1.13,14.9-.07.66-.08,13.08-1.32,17.21-.28.06-1.17.38-1.44-.03-3.12-4.7-11.28-12.82-11.97-18.21-.64-4.97.18-12.79-2.39-14.81-.95-.75-5.5-2.13-7.09-2.13-1.93,0-3.56.85-4.44,2.08l-.2,1.5-1.42,2.14c-.43,1.39-.68,3.78-.81,8.92l1.19,6.12s-.03,1.41-1.09,2.63l.3,4.72c0,5.31-4.85,23.55-4.85,29.05,0,12.36,10.79,11.34,11.42,10.82.77-.65,2.32-3.29,2.39-4.05.73-7.3,1.48-19.75,3.45-23.41.4-.74,1.43-1.11,1.96-.61,1.73,1.63,3.64,5.3,3.88,5.64,1.92,2.73,7.52,9.52,8.57,15.62.09.51,0,1.74.16,2.7.36,2.08,1.24,4.49,4.06,6.84.77.64,3.83,1.02,5.88.67,2.05-.35,5.79-.75,5.79-10.4,0-6.26-1.03-8.77-.95-9.97.08-1.2,1.46-12.64,1.46-28.54,0,0-.73-1.43-1.01-2.3.38-1.37.57-2.45.67-3.18h0c.06-.39.26-.68.42-.36h0c.11.23.25.48.4.73.8,1.27,2.61,2.36,4.77,2.36,3.42,0,7.91-4.01,11.01-3.28.43.1.89-.66,3.32-.86.06,1.48.08,4.7-.32,9.16-.18,2.06-1.13,2.52-4.96,2.52-1.4,0-2.29,1.11-2.69,2.01-.51,1.12-1.49,6.51-1.49,7.99,0,3.02,3.37,6.91,7.47,8,.26,1.26-.97,11.01-.97,15.91s1.17,7.12,1.38,7.32c.29.27,3.75,2.82,6.41,2.82,2,0,4.26-1.15,4.65-1.95.23-.47.81-1.77.86-4.19.26-11.2,1.52-23.02,2.92-23.44,6.73-1.99,13.26-4.5,19.92-9.35,3.44-2.5,7.75-7.7,7.75-12.9,0-6.8-4.41-14.48-7.63-16.54ZM298.93,27.46c-.84,0-1.38-.27-1.6-.96-.8-2.49-1.16-7.75-1.16-10.56,2.93-.61,15.82.18,15.82,3.51,0,3-8.67,8.03-13.06,8.01Z"/>
      <path class="cls-1" d="M69.34,44.99c0-1.99-1.94-8.69-3.36-10.28-1.8-2.02-3.91-2.5-6.51-2.5-1.71,0-30.49,4.44-34.1,6.67-1.73,1.07-2.37,3.51-2.37,7.07,0,4.98,3.28,7.19,4.22,7.19,2.1,0,16.71-2.83,21.96-3.81,1.08-.2,1.5.25,1.49.68,0,1.28-.36,2.78-.93,3.41-2.04,2.27-5.11,3.67-7.76,4.54-4.14-.8-7.63,2.73-11.79.67-1.79-.02-4.38,1.28-5.61-.73-4.17-.94-8.64-1.22-11.98-3.99-1.26-1.2-1.59-2.61-1.59-4.32,0-4.52,6.75-16.13,18.22-26.92,2.38-2.24,10.93-8.51,14.7-8.51,2.52,0,3.4,5.61,5.4,7.74.5.53,2.58.58,3.61.13,2.2-.96,3.93-2.15,3.93-4.74,0-5.8-2.27-10.51-4.17-12.84-1.2-1.47-6.84-3.89-9.1-3.89-4.82,0-7.09,2.86-8.86,2.93-7.14,4.39-10.54,8.42-11.99,9.73-.57.51-1.28.7-1.28.7,0,0-.44,1.59-1.17,2.61-.26.16-2.77,1.82-2.77,1.82C14.22,21.55,0,39.33,0,45.98c0,6.24,4.15,14.95,5.67,16.37,5.21,4.86,14.87,8.28,25.76,8.28,7.63,0,14.74-3.01,16.87-4.18h0c.52-.3.87-.26.81.31-.07.64-.16,1.53-.2,2.23-.05.74-.4,4.48-.4,7.01,0,4.42,1.2,6.7,2.42,7.87.56.54,4.29,1.47,6.72,1.47,1.21,0,5.02-1.8,5.02-5.77,0-2.3-.26-5.39-.22-6.14,1.06-19.74,6.88-25.16,6.88-28.43Z"/>
      <path class="cls-1" d="M539.78,11.88c-1.07-4.78-4.75-9.15-7.86-9.85-2.81.63-25.86,5.05-41,7.03-2.09.27-4.66.37-4.66.37l-1.73.88s-3.02.26-4.46,1.31c-1.96,1.43-4.59,4.22-5.31,8.58l.3,3.96c-4.68,9.3-7.84,16.77-7.84,26.9,0,.2,0,.42.02.65,0,.75-.08,1.12-.28.93-.23-.36-.53-.79-.86-1.16-1.81-2.06-2.41-2.34-3.24-2.34-2.49,0-4.37,4.67-12.73,4.67-7.53,0-21.66-7.89-21.66-12.01,0-9.06,12.06-20.37,21.04-20.37,1.57,0,1.98.45,1.98,1.52,0,1.79-1.34,4.59-1.34,6.37,0,4.32,6.51,7.43,9.93,7.43.99,0,8.01-2.58,8.01-12.78,0-5.99-4.37-15.87-11.55-15.87-9.03,0-22.56,4.79-31.63,11.11,0,0-.48,1.11-1.27,1.86-.79.74-2.98,2.22-2.98,2.22-2.16,2.77-3.88,6.46-4.47,7.79-.17.39-.37.9-.57,1.43,0,0,0,0,0,0-.39,1.04-1.03,1.39-1.17.78-.05-.52-.11-1.19-.18-2.04-.3-3.85-.63-6.19-1.21-9.04,0,0-1.01-2.74-1.28-3.98-.08-.36-.12-1.86-.12-1.86-2.11-8.09-7.07-13.39-7.76-13.64-3.28-1.2-4.1-1.5-5.52-.6-5.6,3.57-12.17,14.45-22.28,33.12,0,0-1.63,1.84-3.91,3.2.27,2.86.09,4.37-.17,5.19-2.01,6.43-7.83,14.48-7.57,16.14l.32,1.96-.22,2.32c0,1.49,4.61,6.88,8.46,6.88.32,0,.67-.03.89-.09,3.87-3.43,4.98-10.11,8.43-15.72.38-.62.51-.73,1.44-1.08,2.22-.83,6.72-1.59,8.69-1.83,1.97-.24,3.69.18,3.69.18l1.72-.57c1.61-.09,2.48.39,2.48,1.69,0,6.32.13,11.49.56,13.41.68,3.04,3.49,5.12,9.07,5.54.61,0,2.89-1.37,3.59-3.4,1.11-3.22.43-7.31.43-10.81,0-5.24.16-8.37.3-10.07.13-.57.54-.75.72-.21,0,0,0,0,0,0,.54,1.43,1.48,3.55,2.75,5.06,6.95,8.3,18.72,17.99,35.14,19.02,6.55.41,11.37-2.92,13.9-9.35.55-1.4.94-2.63,1.14-3.32.13-.19.38-.12.57.22h0c.33.6.88,1.49,1.74,2.57,5.65,7.11,13.67,9.32,23.78,7.79,11.27-1.7,12.8-2.86,13.75-4.09,1.57-2.03,2.16-5.1,2.38-7.55.16-1.81.39-3.96-1.15-5.5-1.75-1.74-7.15.02-14.28,1.23-9.44,1.6-13.42-2.38-13.3-3.61.07-.74.43-2.23,1.4-2.47.94-.24,2.88.15,3.75.36.36-.02,5.62-1.01,9.56-1.01,1.45,0,3.15.21,3.73.24,0,0,6.21-.46,9.89-1.19,2.26-.45,4.31-2.44,4.49-3.68.55-3.63.14-5.81-.54-7.21-2.6-5.36-5.68-5.97-6.35-5.83-3.28.7-9.86,2.63-18.69,2.17-1.07-.06-1.74-1.32-1.64-2.16.28-2.28,3.09-6.03,5.76-6.55,7.09-1.35,28.08-3.45,35.79-3.84,4.83-.24,9.91,1.23,10.87-.41,1.13-1.91.6-5.84.33-7.05ZM400.96,33.71c-.57,1.12-3.94,1.96-9.61,2.03-.25,0-.53-.5-.4-.82,2.34-5.58,6.88-15.41,7.49-15.48.63-.08,1.59.25,2,.77,1.17,1.5,1.23,12.09.51,13.51Z"/>
    </g>
  </g>
</svg>