<?xml version="1.0" encoding="UTF-8"?>
<svg id="Layer_2" data-name="Layer 2" xmlns="http://www.w3.org/2000/svg" viewBox="0 0 302.16 315.99">
  <defs>
    <style>
      .cls-1 {
        letter-spacing: -.04em;
      }

      .cls-2 {
        letter-spacing: -.02em;
      }

      .cls-3 {
        letter-spacing: -.04em;
      }

      .cls-4 {
        font-size: 41.87px;
      }

      .cls-4, .cls-5, .cls-6, .cls-7 {
        fill: #fff;
      }

      .cls-4, .cls-7 {
        font-family: GillSansMT, 'Gill Sans MT';
      }

      .cls-6 {
        font-family: GillSansMT-Bold, 'Gill Sans MT';
        font-size: 36.41px;
        font-weight: 700;
      }

      .cls-7 {
        font-size: 36.51px;
      }
    </style>
  </defs>
  <g id="Layer_1-2" data-name="Layer 1">
    <g>
      <text class="cls-6" transform="translate(82.6 80.45)"><tspan class="cls-3"><tspan x="0" y="0">AIDFF </tspan></tspan><tspan class="cls-1"><tspan x="-20" y="35.27">WINNER</tspan></tspan></text>
      <text class="cls-4" transform="translate(99.01 159.31)"><tspan x="0" y="0">2020</tspan></text>
      <text class="cls-7" transform="translate(0 271.06)"><tspan x="0" y="0">Athens International</tspan><tspan x="44.73" y="34.62">Digital </tspan><tspan class="cls-2" x="149.58" y="34.62">F</tspan><tspan x="166.16" y="34.62">estival</tspan></text>
      <g>
        <path class="cls-5" d="M85.24,177.73c-.59-.88-1.11-1.59-1.48-2.08-.19-.25-.34-.44-.43-.57-.09-.14-.14-.21-.14-.21,0,0-.18.3-.43.83-.25.53-.58,1.28-.93,2.22-.7,1.88-1.44,4.49-1.64,7.39-.13,1.48.03,2.9.31,4.38.3,1.47.8,2.93,1.55,4.32.18.35.39.68.6,1.02.22.32.49.63.75.93.54.61,1.14,1.18,1.81,1.72,1.34,1.06,2.95,1.96,4.86,2.59,2.41-2.06,2.95-4.73,2.54-7.48-.2-1.37-.65-2.78-1.24-4.14-.15-.35-.31-.68-.47-1.03-.15-.35-.3-.7-.45-1.05-.32-.69-.66-1.37-1.02-2.04-.71-1.33-1.5-2.57-2.25-3.7-.67-1.18-1.34-2.24-1.93-3.12Z"/>
        <path class="cls-5" d="M74.59,172.08l-.24-1.03c-.33-1.36-.74-2.66-1.17-3.84-.21-.58-.45-1.13-.63-1.67-.17-.54-.34-1.05-.5-1.51-.66-1.85-1.22-3-1.22-3,0,0-.9,1.02-2.03,2.7-.57.85-1.2,1.86-1.8,3.02-.59,1.14-1.21,2.46-1.56,3.77-.38,1.34-.65,2.75-.73,4.2-.04.72-.03,1.45.03,2.18.03.36.07.74.15,1.09.08.35.18.7.29,1.04.45,1.38,1.17,2.72,2.18,3.94.52.59,1.06,1.2,1.77,1.69.71.5,1.5.95,2.37,1.36,2.77-1.67,3.77-4.1,3.96-6.74.14-1.35.06-2.75-.15-4.13-.11-.7-.26-1.39-.43-2.07-.09-.34-.18-.68-.28-1.01Z"/>
        <path class="cls-5" d="M54.52,168.71c.54.58,1.17,1.13,1.89,1.65,3.02-1.18,4.62-3.35,5.42-5.81.18-.61.38-1.26.53-1.92.15-.66.26-1.34.33-2.01.15-1.36.15-2.71.09-4.03.03-1.35-.03-2.65-.15-3.84-.11-1.19-.3-2.25-.35-3.21-.17-1.88-.42-3.07-.42-3.07,0,0-1.1.84-2.58,2.29-.76.73-1.59,1.61-2.45,2.62-.42.51-.87,1.05-1.25,1.61-.39.56-.76,1.14-1.11,1.75-.7,1.22-1.31,2.53-1.75,3.9-.22.69-.4,1.38-.52,2.08-.08.69-.1,1.38-.06,2.07.08,1.38.41,2.76,1.06,4.07.3.66.77,1.27,1.32,1.85Z"/>
        <path class="cls-5" d="M43.34,151.37c.37.63.84,1.25,1.38,1.85,3.17-.66,5.22-2.49,6.59-4.71.17-.28.33-.57.49-.85.16-.3.32-.6.47-.91.3-.61.56-1.24.79-1.89.46-1.28.8-2.59,1.03-3.87.31-1.3.55-2.58.71-3.74.08-.59.14-1.15.2-1.68.04-.53.08-1.02.15-1.5.24-1.87.25-3.09.25-3.09,0,0-1.23.68-2.97,1.9-.87.61-1.87,1.35-2.9,2.22-1.04.87-2.01,1.83-2.96,2.9-.95,1.08-1.83,2.25-2.56,3.5-.36.62-.71,1.27-.96,1.92-.23.64-.42,1.3-.55,1.96-.25,1.33-.27,2.69.03,4.02.12.68.44,1.31.8,1.95Z"/>
        <path class="cls-5" d="M45.9,130.11c.86-.98,1.72-2.12,2.41-3.3.7-1.19,1.29-2.43,1.77-3.65,1.05-2.47,1.84-4.9,2.27-6.7.52-1.82.78-3.03.78-3.03,0,0-1.3.54-3.18,1.55-.93.5-2.05,1.13-3.14,1.86-1.1.73-2.25,1.57-3.36,2.5-2.22,1.87-4.34,4.15-5.31,6.63-.52,1.25-.82,2.55-.81,3.87.04,1.31.49,2.63,1.27,3.92,3.16-.2,5.51-1.67,7.3-3.64Z"/>
        <path class="cls-5" d="M41.76,113.29c.51-.43,1-.9,1.46-1.4.48-.5.95-1.03,1.38-1.57.87-1.09,1.64-2.26,2.31-3.42.34-.58.64-1.15.94-1.73.31-.59.6-1.17.87-1.74.53-1.12.97-2.18,1.32-3.08.67-1.82,1.07-3,1.07-3,0,0-1.33.45-3.24,1.33-1.9.88-4.41,2.18-6.81,3.84-1.2.84-2.38,1.76-3.43,2.76-1.02.99-1.93,2.08-2.63,3.22-.7,1.15-1.22,2.37-1.4,3.64-.14,1.26.01,2.58.54,3.9,3.06.15,5.57-1.01,7.64-2.75Z"/>
        <path class="cls-5" d="M32.78,97.19c2.92.36,5.48-.58,7.67-2.14,1.1-.78,2.09-1.72,3.02-2.73.96-1,1.82-2.08,2.59-3.16.78-1.07,1.42-2.18,2.07-3.17.64-.99,1.18-1.92,1.61-2.72.43-.8.76-1.46.99-1.93.23-.46.36-.72.36-.72,0,0-.32.08-.91.23-.59.15-1.38.4-2.35.72-1.92.66-4.48,1.68-6.98,3.07-.63.35-1.25.72-1.86,1.12-.6.4-1.16.83-1.71,1.28-1.09.89-2.08,1.88-2.89,2.94-1.65,2.12-2.31,4.59-1.63,7.23Z"/>
        <path class="cls-5" d="M42.56,75.11c2.22-1.3,4.38-3.1,6.12-4.93.44-.45.84-.92,1.24-1.37.43-.43.83-.87,1.21-1.29.75-.84,1.39-1.63,1.92-2.31.51-.68.96-1.23,1.28-1.61.3-.39.48-.61.48-.61,0,0-1.3.11-3.29.47-1.99.35-4.51,1.01-7.13,2.05-1.29.52-2.62,1.13-3.81,1.85-1.16.73-2.24,1.57-3.15,2.5-.45.47-.87.96-1.23,1.47-.36.51-.67,1.05-.86,1.61-.42,1.13-.57,2.35-.38,3.62,2.77.54,5.34-.18,7.61-1.46Z"/>
        <path class="cls-5" d="M60.57,47.99c-.97.02-2.13.08-3.38.2-1.27.12-2.54.34-3.89.63-1.34.29-2.7.67-4.02,1.17-.66.25-1.3.52-1.93.82-.61.31-1.16.65-1.69,1.03-2.09,1.49-3.79,3.44-3.86,5.92,2.51.89,5.07.58,7.47-.28,2.52-.83,4.86-2.21,6.91-3.65,2.21-1.39,3.99-2.87,5.35-3.97,1.41-1.09,2.25-1.85,2.25-1.85,0,0-1.26-.08-3.21-.02Z"/>
        <path class="cls-5" d="M73.06,33.54c-1.9-.16-4.51-.28-7.16-.04-2.68.24-5.57.77-7.99,1.87-2.32,1.13-4.31,2.76-5.11,5.03,1.07.62,2.22.94,3.42,1.06,1.22.13,2.5.05,3.78-.18,1.27-.22,2.56-.58,3.8-1.03,1.25-.45,2.43-.98,3.67-1.52,2.43-1.08,4.5-2.31,6.08-3.24,1.62-.92,2.61-1.59,2.61-1.59,0,0-1.2-.2-3.09-.37Z"/>
        <path class="cls-5" d="M71.21,20.2c-2.28,1.09-4.24,2.63-5.06,4.83,3.98,2.4,9.68.61,14.23-1.65,2.34-1.12,4.49-2.36,6-3.35,1.53-.97,2.46-1.68,2.46-1.68,0,0-4.65-.63-9.91-.08-2.62.28-5.44.82-7.72,1.92Z"/>
        <path class="cls-5" d="M195.42,200.29c1.9-.64,3.52-1.53,4.86-2.59.67-.53,1.26-1.11,1.81-1.72.26-.3.52-.61.75-.93.22-.34.41-.67.6-1.02.75-1.38,1.24-2.85,1.54-4.31.28-1.48.45-2.91.31-4.38-.2-2.9-.94-5.52-1.64-7.39-.35-.95-.69-1.7-.93-2.23-.26-.53-.43-.83-.43-.83,0,0-.05.07-.14.21-.09.13-.24.32-.43.56-.37.49-.89,1.2-1.48,2.08-.6.88-1.26,1.93-1.93,3.12-.75,1.13-1.54,2.37-2.25,3.7-.36.67-.7,1.35-1.02,2.04-.16.35-.31.7-.46,1.05-.16.34-.32.68-.47,1.03-.59,1.37-1.03,2.77-1.24,4.14-.4,2.75.13,5.42,2.55,7.49Z"/>
        <path class="cls-5" d="M216.69,163.74c-1.14-1.68-2.04-2.7-2.04-2.7,0,0-.56,1.15-1.21,2.99-.16.46-.33.97-.5,1.51-.19.54-.43,1.08-.64,1.67-.43,1.18-.84,2.47-1.17,3.83l-.24,1.03c-.1.34-.19.67-.28,1.01-.17.68-.31,1.37-.42,2.07-.22,1.39-.3,2.78-.16,4.13.2,2.63,1.19,5.06,3.96,6.74.87-.4,1.66-.86,2.37-1.36.71-.5,1.25-1.1,1.76-1.69,1.02-1.22,1.73-2.55,2.19-3.94.11-.34.21-.69.29-1.04.07-.35.11-.73.14-1.09.07-.73.07-1.46.03-2.18-.08-1.45-.34-2.87-.73-4.2-.36-1.31-.97-2.63-1.56-3.77-.6-1.15-1.23-2.17-1.79-3.01Z"/>
        <path class="cls-5" d="M231,154.75c-.35-.61-.73-1.19-1.11-1.75-.38-.56-.83-1.1-1.25-1.61-.85-1.01-1.69-1.89-2.44-2.62-1.49-1.45-2.6-2.29-2.6-2.29,0,0-.25,1.19-.42,3.07-.05.96-.24,2.02-.34,3.21-.11,1.19-.17,2.49-.15,3.84-.05,1.32-.06,2.67.09,4.03.08.67.19,1.35.33,2.01.15.67.35,1.31.53,1.92.8,2.45,2.4,4.63,5.42,5.81.72-.51,1.35-1.06,1.89-1.64.54-.58,1.01-1.19,1.31-1.85.65-1.31.98-2.69,1.06-4.07.04-.69.02-1.38-.06-2.07-.12-.71-.3-1.4-.52-2.09-.44-1.37-1.05-2.68-1.75-3.89Z"/>
        <path class="cls-5" d="M234.17,148.5c1.37,2.22,3.42,4.05,6.58,4.71.56-.6,1.01-1.21,1.38-1.85.36-.64.68-1.28.81-1.95.29-1.34.28-2.7.02-4.02-.13-.67-.31-1.32-.55-1.96-.25-.65-.6-1.3-.96-1.92-.73-1.24-1.61-2.42-2.56-3.49-.96-1.09-1.91-2.04-2.96-2.91-1.03-.87-2.03-1.61-2.89-2.22-1.74-1.22-2.97-1.9-2.97-1.9,0,0,.02,1.22.25,3.09.08.47.11.97.15,1.5.05.53.11,1.09.19,1.68.16,1.17.4,2.45.72,3.75.24,1.27.57,2.59,1.03,3.86.23.64.5,1.27.8,1.88.15.31.31.61.47.91.16.29.31.58.48.85Z"/>
        <path class="cls-5" d="M248.15,129.83c.01-1.31-.29-2.61-.81-3.86-.98-2.49-3.1-4.77-5.31-6.64-1.11-.93-2.26-1.77-3.36-2.5-1.09-.73-2.21-1.35-3.14-1.86-1.88-1.01-3.18-1.55-3.18-1.55,0,0,.25,1.21.78,3.03.43,1.8,1.21,4.23,2.27,6.7.48,1.22,1.07,2.46,1.77,3.65.69,1.19,1.55,2.32,2.41,3.31,1.79,1.97,4.15,3.43,7.3,3.64.78-1.29,1.23-2.61,1.27-3.92Z"/>
        <path class="cls-5" d="M251.9,112.14c-.18-1.26-.7-2.48-1.4-3.64-.7-1.15-1.61-2.23-2.63-3.22-1.05-1-2.23-1.93-3.43-2.77-2.4-1.67-4.91-2.96-6.81-3.85-1.91-.88-3.24-1.33-3.24-1.33,0,0,.39,1.18,1.07,3,.35.9.79,1.96,1.32,3.09.26.56.55,1.15.86,1.73.3.58.6,1.15.94,1.73.67,1.16,1.44,2.33,2.32,3.42.43.55.89,1.08,1.37,1.58.46.49.94.96,1.46,1.4,2.06,1.73,4.58,2.89,7.64,2.74.53-1.32.69-2.64.54-3.9Z"/>
        <path class="cls-5" d="M251.07,89.96c-.8-1.06-1.79-2.04-2.88-2.94-.55-.45-1.12-.87-1.71-1.28-.61-.4-1.23-.77-1.86-1.11-2.5-1.4-5.06-2.41-6.98-3.07-.96-.33-1.76-.57-2.34-.72-.59-.15-.91-.23-.91-.23,0,0,.13.26.37.72.22.47.55,1.13.98,1.93.44.8.97,1.73,1.61,2.72.66.98,1.28,2.09,2.07,3.17.77,1.08,1.64,2.16,2.59,3.16.93,1.01,1.92,1.95,3.02,2.73,2.19,1.57,4.75,2.5,7.67,2.14.69-2.63.02-5.11-1.63-7.23Z"/>
        <path class="cls-5" d="M249.29,71.34c-.36-.51-.77-1-1.23-1.47-.91-.93-1.99-1.77-3.15-2.5-1.19-.72-2.52-1.33-3.81-1.85-2.62-1.03-5.14-1.7-7.13-2.05-1.99-.36-3.29-.47-3.29-.47,0,0,.18.22.48.61.32.38.78.93,1.28,1.62.52.68,1.17,1.46,1.92,2.31.37.42.78.85,1.2,1.28.4.45.81.92,1.25,1.37,1.74,1.83,3.9,3.63,6.11,4.94,2.27,1.28,4.84,1.99,7.62,1.46.19-1.27.04-2.49-.38-3.61-.19-.57-.49-1.11-.86-1.62Z"/>
        <path class="cls-5" d="M239.82,51.84c-.53-.37-1.07-.72-1.69-1.03-.62-.3-1.27-.57-1.93-.82-1.32-.5-2.69-.88-4.02-1.17-1.35-.29-2.62-.51-3.89-.63-1.26-.13-2.41-.19-3.38-.21-1.95-.06-3.21.02-3.21.02,0,0,.83.77,2.25,1.86,1.36,1.1,3.14,2.58,5.35,3.97,2.05,1.43,4.4,2.81,6.92,3.64,2.4.86,4.95,1.18,7.47.28-.07-2.48-1.77-4.42-3.86-5.92Z"/>
        <path class="cls-5" d="M227.57,35.37c-2.43-1.09-5.31-1.63-7.99-1.86-2.65-.24-5.27-.12-7.16.04-1.89.16-3.09.37-3.09.37,0,0,.99.67,2.61,1.58,1.59.93,3.65,2.16,6.08,3.24,1.24.53,2.43,1.07,3.67,1.52,1.25.45,2.53.81,3.81,1.03,1.27.22,2.55.3,3.77.18,1.2-.12,2.35-.44,3.42-1.06-.81-2.27-2.79-3.9-5.11-5.03Z"/>
        <path class="cls-5" d="M205.11,23.39c4.55,2.26,10.25,4.05,14.22,1.65-.82-2.2-2.78-3.75-5.06-4.84-2.27-1.1-5.09-1.64-7.71-1.92-5.27-.55-9.92.08-9.92.08,0,0,.93.7,2.46,1.68,1.51.98,3.67,2.22,6.01,3.34Z"/>
        <path class="cls-5" d="M254.93,136.12c2.88.51,5.59-.28,8.07-1.9,1.35-.85,2.46-1.93,3.55-3.14,1.08-1.2,2.07-2.54,2.96-3.9,1.7-2.73,2.87-5.58,3.71-7.74.74-2.15,1.06-3.62,1.06-3.62,0,0-1.35.6-3.31,1.66-.99.52-2.09,1.17-3.33,1.9-1.24.73-2.55,1.56-3.83,2.47-2.57,1.81-4.99,3.92-6.85,6.27-.09.11-.15.22-.24.34.9-4.2,1.65-8.43,2.21-12.69,2.41-.1,4.51-1.09,6.34-2.65.55-.47,1.08-.99,1.57-1.54.48-.56.92-1.15,1.34-1.77.84-1.24,1.56-2.58,2.2-3.95.31-.68.6-1.37.87-2.04.24-.66.47-1.31.67-1.94.4-1.26.72-2.44.97-3.46.51-2.03.65-3.42.65-3.42,0,0-1.21.66-3,1.77-1.8,1.11-4.14,2.7-6.36,4.6-1.11.95-2.17,1.97-3.14,3.07-.41.46-.8.92-1.16,1.4.21-3.59.27-7.19.14-10.77,1.72-.47,3.19-1.42,4.46-2.7.94-.96,1.78-2.09,2.48-3.32.67-1.24,1.23-2.57,1.69-3.92.45-1.35.88-2.69,1.09-3.99.23-1.29.39-2.5.49-3.54.11-1.05.17-1.92.2-2.52.02-.61,0-.97,0-.97,0,0-.25.19-.72.54-.46.35-1.14.85-1.93,1.47-1.58,1.26-3.64,3.01-5.55,5.03-.47.51-.94,1.03-1.38,1.57-.46.53-.91,1.08-1.33,1.65-.12.15-.22.31-.33.46-.46-3.44-1.1-6.85-1.94-10.24,1.6-.6,2.89-1.66,3.92-3.06,1.59-2.06,2.34-4.81,2.75-7.59.1-.69.19-1.39.23-2.07.01-.68.01-1.36,0-2.01-.04-1.31-.14-2.53-.25-3.58-.09-1.05-.28-1.92-.42-2.52-.15-.61-.23-.95-.23-.95,0,0-.86.88-2.03,2.31-1.18,1.43-2.84,3.41-4.23,5.61-.71,1.1-1.35,2.25-1.91,3.43-.23.44-.42.88-.6,1.33-1.41-3.91-2.95-7.51-4.64-10.87,1.75-.78,2.96-2.13,3.71-3.85.86-2.18,1.01-4.97.69-7.69-.44-2.67-1.2-5.34-1.97-7.27-.81-1.9-1.48-3.15-1.48-3.15,0,0-.61.95-1.39,2.48-.39.76-.82,1.66-1.25,2.66-.42.99-.92,2.11-1.31,3.26-.41,1.15-.76,2.35-.98,3.56-.11.6-.2,1.21-.25,1.81-.01.22-.03.44-.05.65-2.46-3.87-5.17-7.47-8.16-10.96.83-.43,1.5-.98,2.01-1.64.63-.83,1-1.81,1.16-2.9.17-1.09.13-2.29-.06-3.53-.19-1.24-.51-2.54-1-3.73-.95-2.42-2.18-4.78-3.25-6.46-1.1-1.65-1.93-2.7-1.93-2.7,0,0-.41.96-.88,2.47-.47,1.51-.97,3.56-1.3,5.85-.31,2.28-.31,4.68.32,6.92.04.16.08.31.13.47-3.49-3.64-7.33-7.26-11.51-11.04,4.15-2.34,3.02-7.24.7-11.69-1.19-2.19-2.69-4.19-3.86-5.67-1.18-1.48-2.06-2.42-2.06-2.42,0,0-1.17,3.78-1.13,8.07.02,2.15.38,4.39,1.27,6.5.19.43.4.83.64,1.23t-.01,0c-3.82-3.38-10.46-6.87-10.46-6.87,26.45,22.15,46.64,48.94,49.65,79.65,1.09,11.15-.26,22.28-1.99,33.35-1.95,12.49-5.1,24.94-11.57,36.51-9.99,17.89-23.34,32.21-41.49,43.4,0,0-27.24,13.66-56.44,13.96h0c-.7,0-1.4,0-2.1,0-.34,0-.67,0-1.01,0h0c-28.84-.41-56.44-13.95-56.44-13.95-18.14-11.18-31.49-25.5-41.49-43.4-6.47-11.57-9.62-24.03-11.57-36.51-1.73-11.06-3.08-22.19-1.99-33.35,3.02-30.71,23.2-57.5,49.65-79.65,0,0-6.64,3.49-10.47,6.87,0,0,0,0,0,0,.24-.4.46-.8.64-1.23.88-2.11,1.24-4.35,1.26-6.51.04-4.29-1.13-8.07-1.13-8.07,0,0-.88.94-2.06,2.42-1.18,1.49-2.68,3.48-3.87,5.67-2.32,4.45-3.44,9.35.71,11.69-4.19,3.78-8.02,7.4-11.52,11.04.05-.15.09-.31.13-.47.63-2.24.62-4.64.32-6.91-.32-2.29-.83-4.34-1.3-5.85-.46-1.51-.88-2.48-.88-2.48,0,0-.83,1.06-1.92,2.71-1.07,1.67-2.31,4.04-3.26,6.46-.49,1.2-.82,2.49-1,3.73-.19,1.24-.23,2.43-.07,3.53.17,1.09.53,2.08,1.17,2.9.51.67,1.18,1.21,2.02,1.65-2.99,3.5-5.71,7.1-8.17,10.96-.02-.22-.03-.44-.05-.65-.05-.6-.13-1.21-.24-1.81-.23-1.21-.57-2.4-.98-3.56-.4-1.15-.9-2.27-1.32-3.26-.43-1-.86-1.9-1.25-2.66-.78-1.52-1.39-2.48-1.39-2.48,0,0-.66,1.24-1.48,3.15-.77,1.93-1.53,4.6-1.97,7.27-.31,2.73-.17,5.52.69,7.69.76,1.72,1.96,3.07,3.72,3.85-1.7,3.37-3.23,6.97-4.64,10.88-.18-.45-.38-.89-.61-1.33-.56-1.18-1.2-2.33-1.91-3.43-1.39-2.2-3.06-4.18-4.23-5.61-1.18-1.43-2.04-2.3-2.04-2.3,0,0-.08.35-.23.95-.14.6-.33,1.47-.42,2.52-.11,1.04-.2,2.27-.24,3.58-.02.65-.02,1.33,0,2.01.04.69.13,1.38.23,2.07.42,2.78,1.16,5.53,2.75,7.59,1.03,1.39,2.32,2.46,3.92,3.06-.85,3.39-1.49,6.81-1.95,10.24-.11-.16-.21-.31-.33-.46-.42-.57-.87-1.11-1.33-1.65-.44-.54-.91-1.06-1.38-1.57-1.9-2.02-3.96-3.77-5.55-5.03-.79-.62-1.47-1.12-1.93-1.47-.47-.34-.73-.53-.73-.53,0,0-.02.36,0,.97.04.61.09,1.48.2,2.52.11,1.04.26,2.26.5,3.55.21,1.3.64,2.64,1.08,3.99.46,1.35,1.03,2.68,1.7,3.92.7,1.23,1.54,2.36,2.48,3.32,1.26,1.28,2.74,2.22,4.45,2.7-.12,3.58-.06,7.18.14,10.77-.37-.48-.75-.94-1.16-1.4-.97-1.1-2.03-2.12-3.14-3.07-2.22-1.9-4.57-3.49-6.36-4.6-1.79-1.12-2.99-1.78-2.99-1.78,0,0,.14,1.39.64,3.42.25,1.02.57,2.2.97,3.46.2.63.42,1.28.67,1.94.26.67.56,1.36.87,2.04.64,1.36,1.36,2.71,2.2,3.95.42.62.85,1.21,1.33,1.76.5.56,1.03,1.08,1.57,1.54,1.82,1.56,3.94,2.55,6.34,2.66.56,4.25,1.31,8.49,2.2,12.69-.08-.12-.15-.23-.23-.34-1.86-2.35-4.27-4.46-6.85-6.28-1.28-.91-2.59-1.73-3.83-2.47-1.24-.74-2.34-1.38-3.33-1.9-1.96-1.06-3.3-1.66-3.3-1.66,0,0,.32,1.47,1.06,3.62.84,2.16,2.01,5.01,3.72,7.74.9,1.37,1.89,2.7,2.96,3.9,1.09,1.21,2.21,2.29,3.55,3.14,2.48,1.62,5.2,2.41,8.07,1.9.13.53.27,1.06.42,1.59.99,3.76,2.2,7.47,3.65,11.12-.27-.28-.55-.55-.83-.82-.59-.54-1.23-1.06-1.9-1.56-.67-.5-1.31-.99-2.01-1.46-1.39-.94-2.89-1.8-4.39-2.57-1.49-.79-3.05-1.49-4.4-2.12-1.37-.62-2.66-1.16-3.76-1.61-2.22-.88-3.71-1.37-3.71-1.37,0,0,.63,1.51,1.78,3.68.56,1.09,1.42,2.34,2.3,3.65.92,1.31,1.93,2.68,3.07,3.99,1.22,1.31,2.54,2.57,3.91,3.67.69.55,1.38,1.07,2.1,1.53.36.23.72.45,1.08.66.39.2.77.39,1.15.57,2.94,1.34,5.92,1.75,8.75.79,2.03,4.09,4.39,8.08,7.11,11.95-.43-.32-.88-.64-1.35-.93-.74-.46-1.53-.89-2.33-1.29-.76-.42-1.57-.81-2.39-1.19-1.64-.75-3.37-1.4-5.09-1.98-.87-.29-1.72-.56-2.57-.82-.83-.25-1.63-.5-2.4-.73-1.54-.46-2.98-.84-4.21-1.14-2.47-.61-4.11-.91-4.11-.91,0,0,1.01,1.47,2.72,3.58.81,1.06,1.97,2.22,3.22,3.44,1.26,1.22,2.65,2.48,4.12,3.67,1.56,1.16,3.24,2.24,4.92,3.16.84.46,1.69.88,2.53,1.24.84.37,1.68.68,2.56.9,3.4.91,6.57.83,9.2-.67,2.66,3.31,5.46,6.65,8.43,9.92-.12-.05-.24-.11-.36-.15-.44-.17-.88-.33-1.33-.49-.44-.15-.87-.32-1.31-.47-.89-.3-1.8-.57-2.73-.82-1.86-.48-3.79-.87-5.69-1.18-1.94-.29-3.69-.59-5.39-.8-1.68-.22-3.25-.38-4.58-.5-2.67-.24-4.42-.3-4.42-.3,0,0,1.42,1.35,3.71,3.21.57.46,1.2.96,1.87,1.48.68.51,1.47,1.01,2.26,1.52,1.6,1.03,3.35,2.07,5.16,3.04.46.24.9.48,1.38.7.48.21.97.42,1.46.62.97.4,1.96.77,2.93,1.09,1.95.65,3.87,1.13,5.69,1.36,3.1.33,5.89-.08,8.06-1.39,2.44,2.35,4.97,4.61,7.61,6.75-.8-.12-1.61-.22-2.44-.3-2-.2-4.1-.23-6.02-.32-3.89-.12-7.62.05-10.39.24-1.38.09-2.52.2-3.31.28-.79.08-1.22.12-1.22.12,0,0,.11.07.31.21.2.14.52.32.91.55.79.47,1.93,1.12,3.33,1.86,1.39.75,3.04,1.59,4.84,2.42,1.86.77,3.89,1.53,5.96,2.2,1.03.33,2.09.64,3.12.92.53.14,1.05.27,1.57.4.53.11,1.07.2,1.59.29,2.13.34,4.19.51,6.09.46,2.6-.07,4.86-.59,6.65-1.66.99.58,1.99,1.14,3.01,1.67.22.12.4.16.54.13,13.72,7.55,30.7,12.2,44.68,13.87-11.19,2.08-24.35,4.37-38.32,6.5l-15.08,12.82s33.92-11.3,65.56-18.5c31.64,7.2,65.56,18.5,65.56,18.5l-15.08-12.82c-14.33-2.18-27.79-4.54-39.17-6.66,17.31-1.97,31.84-7.05,43.49-13.71.12-.01.25-.04.41-.13,1.02-.53,2.02-1.09,3.01-1.67,1.78,1.08,4.05,1.59,6.64,1.67,1.9.05,3.96-.12,6.08-.46.53-.09,1.07-.18,1.6-.29.52-.13,1.04-.25,1.57-.4,1.04-.28,2.1-.6,3.13-.93,2.07-.67,4.1-1.43,5.96-2.2,1.8-.84,3.45-1.68,4.84-2.43,1.39-.74,2.54-1.39,3.33-1.86.39-.23.71-.41.91-.55.2-.14.3-.21.3-.21,0,0-.43-.04-1.21-.12-.79-.08-1.93-.18-3.31-.28-2.76-.19-6.49-.36-10.38-.24-1.92.09-4.02.11-6.02.32-.82.08-1.63.18-2.43.3,2.64-2.14,5.18-4.4,7.61-6.75,2.16,1.32,4.96,1.72,8.06,1.39,1.82-.23,3.74-.7,5.68-1.35.98-.32,1.96-.69,2.93-1.09.49-.2.97-.4,1.46-.61.47-.22.92-.47,1.38-.7,1.81-.97,3.56-2.01,5.16-3.04.79-.52,1.58-1.01,2.26-1.52.67-.52,1.3-1.02,1.87-1.48,2.29-1.87,3.71-3.21,3.71-3.21,0,0-1.75.06-4.41.3-1.34.12-2.9.28-4.58.5-1.7.21-3.45.51-5.39.8-1.9.31-3.83.69-5.69,1.18-.93.25-1.84.52-2.73.82-.45.15-.87.31-1.32.47-.45.15-.89.31-1.33.48-.13.05-.24.1-.37.15,2.97-3.27,5.78-6.6,8.43-9.92,2.63,1.51,5.81,1.58,9.2.67.88-.22,1.72-.53,2.57-.9.84-.37,1.69-.78,2.53-1.24,1.68-.92,3.36-2,4.92-3.16,1.47-1.19,2.87-2.45,4.13-3.67,1.25-1.22,2.4-2.39,3.22-3.44,1.7-2.1,2.72-3.58,2.72-3.58,0,0-1.64.31-4.11.91-1.23.31-2.67.69-4.21,1.14-.77.23-1.57.48-2.4.73-.84.26-1.7.53-2.56.82-1.73.58-3.46,1.24-5.1,1.98-.82.38-1.62.77-2.39,1.19-.8.41-1.59.83-2.32,1.29-.48.29-.92.6-1.36.93,2.73-3.86,5.09-7.86,7.11-11.95,2.83.96,5.81.55,8.74-.79.38-.17.77-.36,1.15-.57.36-.21.71-.43,1.07-.66.72-.46,1.42-.98,2.1-1.53,1.37-1.1,2.69-2.36,3.91-3.67,1.14-1.31,2.15-2.69,3.07-3.99.89-1.31,1.75-2.56,2.3-3.65,1.15-2.17,1.78-3.68,1.78-3.68,0,0-1.49.49-3.7,1.37-1.11.45-2.4.98-3.76,1.61-1.35.63-2.91,1.34-4.4,2.12-1.5.78-3,1.64-4.39,2.57-.71.46-1.35.95-2.01,1.46-.67.5-1.32,1.02-1.91,1.56-.29.27-.57.54-.83.82,1.44-3.65,2.66-7.36,3.65-11.12.14-.53.27-1.06.41-1.59Z"/>
      </g>
    </g>
  </g>
</svg>