<?xml version="1.0" encoding="UTF-8"?>
<svg id="Layer_2" data-name="Layer 2" xmlns="http://www.w3.org/2000/svg" viewBox="0 0 516.2 119.38">
  <defs>
    <style>
      .cls-1, .cls-2 {
        fill: #fff;
      }

      .cls-2 {
        font-family: LucidaSans, 'Lucida Sans';
        font-size: 29.91px;
        letter-spacing: .08em;
      }
    </style>
  </defs>
  <g id="Layer_1-2" data-name="Layer 1">
    <g>
      <text class="cls-2" transform="translate(53.05 113.07)"><tspan x="0" y="0">BEST DESIGN RECOGNITION </tspan></text>
      <g>
        <path id="logo-a1" class="cls-1" d="M1.72,29.83c1.43-7.31,7.89-12.48,17.07-12.48,10.61,0,18.79,4.45,18.79,18.79v26.67h-9.03l-1.15-5.74c-3.16,3.87-7.31,6.45-13.77,6.45-7.6,0-13.62-4.73-13.62-13.62s7.89-14.63,19.07-14.63h7.46v-2.01c0-5.02-3.73-6.6-7.89-6.6-3.16,0-6.31,1-7.74,5.16l-9.18-2.01ZM16.21,54.21c5.02,0,10.33-3.44,10.33-9.18v-.86h-7.31c-4.73-.14-7.6,1.72-7.6,5.59,0,2.15,1.58,4.45,4.59,4.45Z"/>
        <path id="logo-a2" class="cls-1" d="M216.55,29.83c1.43-7.31,7.89-12.48,17.07-12.48,10.61,0,18.79,4.45,18.79,18.79v26.67h-9.03l-1.15-5.74c-3.16,3.87-7.31,6.45-13.77,6.45-7.6,0-13.62-4.73-13.62-13.62s7.89-14.63,19.07-14.63h7.46v-2.01c0-5.02-3.73-6.6-7.89-6.6-3.16,0-6.31,1-7.74,5.16l-9.18-2.01ZM231.04,54.21c5.02,0,10.33-3.44,10.33-9.18v-.86h-7.31c-4.73,0-7.6,1.72-7.6,5.74,0,2.01,1.58,4.3,4.59,4.3Z"/>
        <path id="logo-r" class="cls-1" d="M262.44,62.96V18.07h11.04v7.31c3.16-5.31,8.17-8.03,13.19-8.03,2.01,0,3.59.29,5.45.86l-2.01,10.18c-1.29-.86-2.72-1.29-4.59-1.29-6.45,0-12.05,5.31-12.05,19.79v15.92l-11.04.14h0Z"/>
        <path id="logo-d" class="cls-1" d="M315.65,17.35c4.59,0,8.89,2.29,10.9,4.73V0h11.04v62.96h-11.04v-4.59c-1.29,2.29-5.31,5.31-10.9,5.31-13.48,0-20.36-9.32-20.36-23.09s6.88-23.23,20.36-23.23ZM317.23,54.21c5.74,0,10.33-4.73,10.33-13.62s-4.59-13.62-10.33-13.62-10.33,4.73-10.33,13.62,4.59,13.62,10.33,13.62Z"/>
        <path id="logo-s" class="cls-1" d="M377.46,24.52l-6.6,6.02c-2.01-2.72-5.02-3.87-7.46-3.87-2.15,0-4.16,1.29-4.16,3.73,0,2.01,1.58,3.44,4.3,4.3,6.17,2.29,16.21,4.16,16.21,13.77,0,8.17-6.17,14.91-15.92,14.91s-15.63-6.6-17.78-12.05l8.75-4.73c1.58,4.3,4.59,7.46,9.03,7.46,3.44,0,5.59-1.58,5.59-4.88,0-3.73-5.74-4.59-11.19-6.88-4.88-2.01-9.03-5.16-9.03-12.05s5.59-13.05,14.34-13.05c5.88,0,11.19,3.01,13.91,7.31Z"/>
        <polygon id="logo-w2" class="cls-1" points="147.71 18.07 139.83 48.9 132.23 18.07 121.9 18.07 114.44 48.9 108.13 30.98 107.42 33.13 103.83 44.6 109.57 62.96 119.32 62.96 127.06 33.99 134.81 62.96 144.56 62.96 158.9 18.07 147.71 18.07"/>
        <polygon id="logo-w3" class="cls-1" points="201.06 18.07 193.03 48.9 185.43 18.07 175.11 18.07 167.65 48.9 161.34 30.98 160.62 33.13 157.04 44.6 162.77 62.96 172.52 62.96 180.27 33.99 188.01 62.96 197.76 62.96 212.11 18.07 201.06 18.07"/>
        <path id="logo-w1" class="cls-1" d="M105.69,18.07l-14.34,44.74h-9.75l-7.74-28.97-7.74,29.11h-9.75l-14.34-44.74h11.19l8.03,30.69,7.6-30.69h10.18l7.6,30.69,8.03-30.69,11.04-.14h0Z"/>
        <path id="logo-p" class="cls-1" d="M394.09,48.47c4.3,0,7.46,3.16,7.46,7.46s-3.16,7.46-7.46,7.46-7.46-3.16-7.46-7.46,3.3-7.46,7.46-7.46Z"/>
      </g>
    </g>
  </g>
</svg>