<?xml version="1.0" encoding="UTF-8"?>
<svg id="Layer_2" data-name="Layer 2" xmlns="http://www.w3.org/2000/svg" viewBox="0 0 196.56 280.8">
  <defs>
    <style>
      .cls-1 {
        fill: #4c4c4c;
      }
    </style>
  </defs>
  <g id="Layer_1-2" data-name="Layer 1">
    <g>
      <path class="cls-1" d="M10.16,226.18h6.67c1.85,0,3.26.49,4.25,1.48.83.83,1.25,1.95,1.25,3.33v.04c0,1.18-.29,2.14-.86,2.89-.58.74-1.33,1.29-2.26,1.64l3.56,5.21h-3.75l-3.13-4.67h-2.52v4.67h-3.21v-14.59ZM16.62,233.27c.79,0,1.4-.19,1.82-.56.42-.38.64-.88.64-1.5v-.04c0-.69-.22-1.22-.67-1.56-.44-.35-1.06-.52-1.85-.52h-3.19v4.19h3.25Z"/>
      <path class="cls-1" d="M28.18,226.18h10.98v2.85h-7.82v2.96h6.88v2.86h-6.88v3.06h7.92v2.86h-11.09v-14.59Z"/>
      <path class="cls-1" d="M50.11,226.08h2.96l6.25,14.69h-3.36l-1.33-3.27h-6.17l-1.33,3.27h-3.27l6.25-14.69ZM53.48,234.66l-1.94-4.73-1.94,4.73h3.88Z"/>
      <path class="cls-1" d="M64.53,226.18h3.21v11.69h7.27v2.9h-10.48v-14.59Z"/>
      <path class="cls-1" d="M89.6,226.18h10.98v2.85h-7.82v2.96h6.88v2.86h-6.88v3.06h7.92v2.86h-11.09v-14.59Z"/>
      <path class="cls-1" d="M111.73,240.98c-1.11,0-2.2-.19-3.27-.57-1.07-.38-2.04-.97-2.92-1.76l1.9-2.27c.67.54,1.35.97,2.05,1.29.7.32,1.47.48,2.3.48.67,0,1.18-.12,1.55-.36.37-.24.55-.58.55-1.01v-.04c0-.21-.04-.39-.11-.55-.08-.16-.22-.31-.44-.45-.22-.14-.52-.28-.9-.42-.38-.14-.88-.28-1.49-.44-.74-.18-1.41-.38-2.01-.6-.6-.22-1.11-.5-1.53-.82-.42-.33-.74-.73-.97-1.22-.23-.49-.34-1.09-.34-1.81v-.04c0-.67.12-1.27.37-1.8.25-.53.6-1,1.05-1.39.45-.39.98-.69,1.61-.9.62-.21,1.31-.31,2.06-.31,1.07,0,2.05.16,2.95.48.9.32,1.72.78,2.47,1.38l-1.67,2.42c-.65-.44-1.29-.8-1.92-1.05-.63-.26-1.25-.39-1.88-.39s-1.09.12-1.41.36c-.31.24-.47.55-.47.91v.04c0,.24.05.44.14.61.09.17.25.33.49.47.24.14.56.27.97.4.41.13.93.27,1.56.44.74.19,1.4.41,1.97.66.58.24,1.07.53,1.46.88.4.34.7.74.9,1.2.2.46.3,1.01.3,1.65v.04c0,.72-.13,1.37-.39,1.93-.26.56-.63,1.03-1.1,1.42-.47.38-1.03.67-1.68.88-.65.2-1.37.3-2.16.3Z"/>
      <path class="cls-1" d="M126.22,229.14h-4.44v-2.96h12.09v2.96h-4.44v11.63h-3.21v-11.63Z"/>
      <path class="cls-1" d="M144.28,226.08h2.96l6.25,14.69h-3.36l-1.33-3.27h-6.17l-1.33,3.27h-3.27l6.25-14.69ZM147.66,234.66l-1.94-4.73-1.94,4.73h3.88Z"/>
      <path class="cls-1" d="M162.1,229.14h-4.44v-2.96h12.09v2.96h-4.44v11.63h-3.21v-11.63Z"/>
      <path class="cls-1" d="M175.17,226.18h10.98v2.85h-7.82v2.96h6.88v2.86h-6.88v3.06h7.92v2.86h-11.09v-14.59Z"/>
      <path class="cls-1" d="M10.51,258.4h9.86c2.53,0,4.45.65,5.75,1.95.98.99,1.48,2.2,1.48,3.65v.06c0,.67-.09,1.26-.27,1.78-.18.51-.41.96-.69,1.35-.28.39-.61.73-1,1.02-.38.29-.77.55-1.17.75.65.23,1.23.5,1.77.8.53.3.99.67,1.38,1.09.39.42.68.91.89,1.48.21.57.31,1.23.31,1.98v.06c0,.99-.19,1.86-.58,2.61-.39.75-.94,1.38-1.65,1.89-.71.5-1.57.89-2.57,1.15-1.01.26-2.11.39-3.33.39h-10.17v-22.02ZM19.61,267.68c1.25,0,2.26-.25,3.01-.74.75-.49,1.13-1.24,1.13-2.25v-.06c0-.88-.33-1.57-.99-2.06-.66-.49-1.61-.74-2.87-.74h-5.55v5.85h5.27ZM20.74,276.99c1.32,0,2.35-.25,3.11-.75.75-.5,1.13-1.26,1.13-2.26v-.06c0-.94-.37-1.67-1.11-2.19-.74-.51-1.88-.77-3.4-.77h-6.12v6.04h6.4Z"/>
      <path class="cls-1" d="M43.19,280.76c-1.43,0-2.72-.2-3.87-.61-1.15-.41-2.14-1.02-2.96-1.84-.82-.82-1.45-1.83-1.89-3.04-.44-1.21-.66-2.61-.66-4.2v-12.68h3.84v12.52c0,2.06.5,3.62,1.49,4.69.99,1.07,2.36,1.6,4.11,1.6s3.09-.51,4.08-1.54c.99-1.03,1.49-2.56,1.49-4.59v-12.68h3.84v12.49c0,1.64-.23,3.07-.68,4.31-.45,1.24-1.09,2.27-1.9,3.1-.82.83-1.81,1.45-2.97,1.86-1.16.41-2.47.61-3.92.61Z"/>
      <path class="cls-1" d="M58.91,258.4h3.84v18.53h11.58v3.49h-15.41v-22.02Z"/>
      <path class="cls-1" d="M89.77,280.8c-1.72,0-3.28-.29-4.69-.86-1.41-.58-2.61-1.37-3.6-2.39-1-1.02-1.77-2.21-2.31-3.59-.55-1.37-.82-2.87-.82-4.48v-.06c0-1.53.28-2.99.84-4.37.56-1.38,1.35-2.59,2.36-3.63,1.01-1.04,2.22-1.86,3.61-2.47,1.39-.61,2.92-.91,4.58-.91.96,0,1.84.07,2.63.2.79.14,1.51.33,2.19.58.67.25,1.31.56,1.9.93.6.37,1.18.79,1.75,1.27l-2.45,2.93c-.42-.36-.85-.68-1.29-.98-.44-.29-.9-.54-1.38-.74-.48-.2-1.01-.36-1.59-.47-.58-.11-1.21-.17-1.9-.17-1.01,0-1.95.21-2.81.63-.87.42-1.63.98-2.26,1.69-.64.7-1.14,1.53-1.51,2.47-.37.95-.55,1.94-.55,2.99v.06c0,1.13.18,2.19.53,3.15.36.97.86,1.8,1.52,2.49.66.69,1.44,1.24,2.35,1.64.91.4,1.93.6,3.06.6,1.05,0,2.02-.15,2.93-.46.91-.31,1.7-.71,2.37-1.22v-4.14h-5.63v-3.37h9.37v9.25c-.55.46-1.15.9-1.81,1.32-.66.42-1.37.79-2.14,1.1-.77.31-1.59.56-2.47.74-.88.18-1.8.27-2.77.27Z"/>
      <path class="cls-1" d="M112.73,258.24h3.59l9.69,22.17h-4.09l-2.23-5.32h-10.41l-2.26,5.32h-3.96l9.69-22.17ZM118.27,271.67l-3.81-8.81-3.77,8.81h7.58Z"/>
      <path class="cls-1" d="M130.72,258.4h9.81c1.38,0,2.61.19,3.68.58,1.07.39,1.96.93,2.67,1.62.59.61,1.04,1.31,1.35,2.11.31.8.47,1.68.47,2.64v.06c0,.9-.13,1.71-.39,2.44-.26.72-.62,1.36-1.09,1.92-.46.56-1.01,1.03-1.65,1.42-.64.39-1.35.69-2.12.9l5.94,8.34h-4.56l-5.43-7.67h-4.86v7.67h-3.84v-22.02ZM140.24,269.31c1.39,0,2.49-.33,3.31-.99.82-.66,1.23-1.56,1.23-2.7v-.06c0-1.2-.4-2.11-1.2-2.73-.8-.62-1.92-.93-3.38-.93h-5.65v7.42h5.68Z"/>
      <path class="cls-1" d="M154.63,258.4h3.84v22.02h-3.84v-22.02Z"/>
      <path class="cls-1" d="M173.12,258.24h3.59l9.69,22.17h-4.09l-2.23-5.32h-10.41l-2.26,5.32h-3.96l9.69-22.17ZM178.66,271.67l-3.81-8.81-3.77,8.81h7.58Z"/>
      <rect class="cls-1" x="10.35" y="203.89" width="175.87" height="11.56"/>
      <polygon class="cls-1" points="10.57 192.21 10.57 132.32 55.74 132.32 55.74 144.03 23.65 144.03 23.65 156.19 51.89 156.19 51.89 167.91 23.65 167.91 23.65 180.49 56.17 180.49 56.17 192.21 10.57 192.21"/>
      <path class="cls-1" d="M103.39,152.94c0,5.04-3.67,8.46-10.1,8.46h-13.34v-17.19h13.09c6.42,0,10.35,2.91,10.35,8.56v.17ZM114.06,185.67l-5.09-7.45-5.06-7.39c7.62-2.83,12.83-8.9,12.83-18.57v-.18c0-12.32-8.47-19.76-22.59-19.76h-27.37v54.57c0,4.03,3.27,5.32,7.29,5.32h5.88v-19.17h10.35l10.63,15.87.18.27c1.29,1.83,3.42,3.03,5.83,3.03h11.6l-4.48-6.55Z"/>
      <path class="cls-1" d="M146.85,167.09l7.9-19.29,7.9,19.29h-15.8ZM160.95,132.32h-12.06l-19.43,45.66-4.26,10.01-1.8,4.22h8.42c3.03,0,5.63-1.84,6.74-4.46v-.02s3.62-8.86,3.62-8.86h25.15l5.43,13.34h13.68l-25.49-59.9Z"/>
      <polygon class="cls-1" points="0 126.73 98.51 82.24 98.51 0 0 70.81 0 126.73"/>
      <polygon class="cls-1" points="196.56 126.73 98.5 82.24 98.5 0 196.56 70.81 196.56 126.73"/>
    </g>
  </g>
</svg>