<?xml version="1.0" encoding="UTF-8"?>
<svg id="Layer_2" data-name="Layer 2" xmlns="http://www.w3.org/2000/svg" viewBox="0 0 256.04 198.24">
  <defs>
    <style>
      .cls-1, .cls-2 {
        fill: #4c4c4c;
      }

      .cls-2 {
        fill-rule: evenodd;
      }
    </style>
  </defs>
  <g id="Layer_1-2" data-name="Layer 1">
    <g>
      <polygon class="cls-2" points="147.75 94.54 140.64 94.54 140.64 69.95 112.91 69.95 112.91 94.54 105.84 94.54 105.84 42.27 112.91 42.27 112.91 63.74 140.64 63.74 140.64 42.27 147.75 42.27 147.75 94.54"/>
      <path class="cls-2" d="M119.57.32c28.9-2.83,55.4,13.41,66.96,38.42h-6.16c-11.13-21.6-34.67-35.41-60.26-32.9-33.46,3.28-58.07,33.24-54.79,66.7,3.28,33.46,33.24,58.07,66.7,54.79,20.24-1.98,37.23-13.73,46.78-30.11h6.32c-10.06,19.31-29.36,33.35-52.56,35.63-36.5,3.58-69.18-23.27-72.76-59.76C56.23,36.58,83.07,3.9,119.57.32Z"/>
      <path class="cls-2" d="M251.55,169.36c-1.7-2.36-3.61-4.1-5.72-5.21-2.1-1.11-4.51-1.66-7.2-1.66-4.23,0-7.85,1.56-10.86,4.69-3,3.13-4.5,6.85-4.5,11.16,0,4.58,1.5,8.45,4.48,11.6,2.99,3.14,6.61,4.71,10.87,4.71,2.63,0,5.01-.55,7.13-1.65,2.12-1.09,3.97-2.73,5.53-4.9h4.44c-1.74,3.23-4.07,5.73-7,7.5-2.92,1.76-6.2,2.64-9.85,2.64-5.59,0-10.25-1.9-13.98-5.71-3.73-3.8-5.6-8.56-5.6-14.25,0-2.66.51-5.18,1.51-7.56,1.01-2.38,2.49-4.53,4.44-6.44,1.81-1.81,3.84-3.18,6.1-4.1,2.25-.93,4.7-1.4,7.33-1.4,3.78,0,7.18.92,10.2,2.76,3.02,1.84,5.41,4.45,7.17,7.82h-4.49Z"/>
      <rect class="cls-1" x="210.42" y="159.54" width="3.73" height="37.94"/>
      <polygon class="cls-2" points="200.06 192.95 199.61 159.54 203.32 159.54 203.32 197.48 198.83 197.48 177.96 164.03 178.38 197.48 174.7 197.48 174.7 159.54 179.19 159.54 200.06 192.95"/>
      <rect class="cls-1" x="163.99" y="159.54" width="3.73" height="37.94"/>
      <polygon class="cls-2" points="159.14 197.48 142 197.48 142 159.54 145.77 159.54 145.77 193.81 159.14 193.81 159.14 197.48"/>
      <path class="cls-2" d="M132.1,169.36c-1.7-2.36-3.61-4.1-5.72-5.21-2.1-1.11-4.51-1.66-7.2-1.66-4.23,0-7.85,1.56-10.86,4.69-3,3.13-4.5,6.85-4.5,11.16,0,4.58,1.5,8.45,4.48,11.6,2.99,3.14,6.61,4.71,10.87,4.71,2.63,0,5.01-.55,7.13-1.65,2.12-1.09,3.97-2.73,5.53-4.9h4.44c-1.74,3.23-4.07,5.73-7,7.5-2.92,1.76-6.2,2.64-9.85,2.64-5.59,0-10.25-1.9-13.99-5.71-3.73-3.8-5.6-8.56-5.6-14.25,0-2.66.51-5.18,1.51-7.56,1.01-2.38,2.49-4.53,4.44-6.44,1.81-1.81,3.84-3.18,6.1-4.1,2.25-.93,4.7-1.4,7.33-1.4,3.78,0,7.18.92,10.2,2.76,3.02,1.84,5.41,4.45,7.17,7.82h-4.49Z"/>
      <polygon class="cls-2" points="82.06 197.35 65.04 197.35 65.04 159.57 68.78 159.57 68.78 193.69 82.06 193.69 82.06 197.35"/>
      <polygon class="cls-2" points="60.16 197.35 43.14 197.35 43.14 159.57 46.88 159.57 46.88 193.69 60.16 193.69 60.16 197.35"/>
      <rect class="cls-1" x="32.4" y="159.57" width="3.71" height="37.78"/>
      <polygon class="cls-2" points="3.74 197.35 0 197.35 0 159.57 3.74 159.57 3.74 176.52 21.69 176.52 21.69 159.57 25.4 159.57 25.4 197.35 21.69 197.35 21.69 180.12 3.74 180.12 3.74 197.35"/>
    </g>
  </g>
</svg>